<?xml version="1.0" encoding="UTF-8" standalone="no"?>
<!DOCTYPE svg PUBLIC "-//W3C//DTD SVG 1.1//EN" "http://www.w3.org/Graphics/SVG/1.1/DTD/svg11.dtd">
<svg xmlns="http://www.w3.org/2000/svg" version="1.1" viewBox="0.00 0.00 500.00 281.00" width="500.00" height="281.00">
<path fill="#b6b8bc" d="
  M 194.14 146.62
  L 192.14 147.39
  Q 191.57 147.60 191.35 147.03
  Q 186.10 133.11 194.43 120.91
  Q 199.36 113.70 206.75 112.30
  Q 212.17 111.27 213.63 111.38
  C 217.96 111.69 228.96 107.44 230.63 103.46
  A 1.67 1.59 52.0 0 0 230.72 102.54
  C 229.90 98.44 232.08 97.15 232.48 93.78
  C 232.80 91.18 233.23 89.47 233.88 87.20
  A 0.70 0.69 -65.3 0 0 233.60 86.43
  Q 229.05 83.42 227.51 78.54
  Q 226.92 76.68 225.66 71.02
  Q 223.92 63.14 227.47 55.52
  Q 227.73 54.94 227.84 55.57
  C 228.56 60.03 229.70 66.29 234.57 68.18
  C 238.72 69.79 244.36 65.08 247.33 63.86
  C 256.45 60.13 263.24 64.55 266.45 73.15
  Q 266.63 73.63 267.04 73.93
  C 274.29 79.34 278.76 85.63 279.02 94.96
  Q 279.03 95.51 279.46 95.86
  L 280.29 96.53
  Q 280.76 96.90 280.69 97.49
  L 279.02 112.49
  Q 278.96 112.96 279.37 113.21
  C 283.40 115.73 288.21 118.62 292.91 118.13
  Q 293.50 118.07 293.28 117.53
  L 261.63 38.18
  A 1.27 1.22 41.1 0 1 261.57 37.49
  L 265.16 19.47
  A 0.42 0.42 0.0 0 1 265.81 19.21
  L 280.35 29.45
  A 3.09 2.99 7.7 0 1 281.43 30.82
  L 317.86 122.19
  A 0.86 0.86 0.0 0 0 318.63 122.73
  Q 320.59 122.78 322.54 122.61
  Q 324.03 122.49 326.19 121.44
  Q 332.76 118.25 338.13 123.38
  C 343.85 128.84 341.13 139.54 333.07 141.05
  Q 332.21 141.22 332.74 141.92
  C 335.54 145.68 335.42 147.42 335.02 151.54
  A 1.02 1.01 -67.4 0 0 335.37 152.41
  C 342.03 158.30 340.53 162.02 339.83 170.00
  Q 339.79 170.47 340.27 170.47
  L 350.76 170.47
  Q 351.32 170.47 351.19 171.01
  L 344.08 199.90
  Q 343.96 200.38 343.47 200.38
  L 337.11 200.40
  Q 336.59 200.40 336.47 200.89
  L 331.78 220.01
  Q 331.63 220.63 330.99 220.63
  L 321.07 220.63
  Q 320.57 220.63 320.44 221.11
  L 319.57 224.40
  Q 319.42 224.95 318.86 224.94
  L 311.77 224.91
  Q 311.18 224.91 311.03 225.48
  L 309.90 229.90
  Q 309.73 230.55 310.41 230.55
  L 342.74 230.51
  Q 343.90 230.51 343.02 231.26
  L 326.20 245.63
  Q 325.82 245.96 325.70 246.45
  L 322.36 260.04
  Q 322.23 260.54 321.72 260.54
  L 153.07 260.53
  Q 152.60 260.53 152.71 260.07
  L 157.13 242.06
  A 0.60 0.60 0.0 0 0 156.92 241.45
  L 144.31 231.16
  Q 143.56 230.54 144.53 230.54
  L 166.13 230.55
  Q 166.60 230.55 166.71 230.10
  L 176.66 189.50
  A 0.84 0.83 -64.4 0 0 176.36 188.64
  L 154.02 171.05
  Q 153.26 170.45 154.22 170.45
  L 182.58 170.48
  A 0.88 0.86 -76.8 0 0 183.36 169.98
  L 194.54 147.06
  A 0.32 0.32 0.0 0 0 194.14 146.62
  Z
  M 232.74 77.57
  L 230.65 76.34
  Q 229.79 75.83 230.05 76.79
  Q 231.27 81.36 235.16 84.03
  Q 235.64 84.36 235.97 83.88
  C 238.89 79.63 244.86 75.35 250.26 76.05
  Q 251.56 76.21 250.30 76.55
  Q 236.10 80.33 235.43 95.05
  Q 235.40 95.61 235.02 96.02
  C 232.78 98.45 233.08 100.84 233.71 103.76
  Q 233.81 104.25 233.57 104.70
  C 230.51 110.30 220.73 114.14 214.23 114.49
  C 207.62 114.84 202.27 116.05 197.93 121.41
  Q 190.21 130.96 193.24 142.94
  A 0.55 0.55 0.0 0 0 194.07 143.27
  L 197.43 141.10
  Q 197.77 140.88 198.09 141.11
  Q 199.45 142.11 198.95 143.24
  Q 192.15 158.52 184.80 173.34
  A 0.65 0.65 0.0 0 1 184.22 173.70
  L 163.76 173.70
  Q 162.53 173.70 163.49 174.46
  L 180.00 187.46
  Q 180.38 187.76 180.27 188.23
  L 170.44 228.31
  Q 170.32 228.81 170.74 229.10
  L 176.71 233.32
  Q 177.56 233.93 176.52 233.92
  L 153.48 233.84
  Q 152.31 233.83 153.23 234.55
  L 160.49 240.23
  Q 160.87 240.52 160.75 240.99
  L 156.88 256.78
  Q 156.76 257.26 157.26 257.26
  L 319.26 257.26
  Q 319.73 257.26 319.84 256.80
  L 322.67 245.11
  A 2.92 2.91 -13.6 0 1 323.62 243.56
  L 334.18 234.57
  Q 335.01 233.87 333.93 233.87
  L 306.07 233.86
  A 0.35 0.35 0.0 0 1 305.73 233.43
  L 309.51 218.05
  Q 309.65 217.50 310.21 217.50
  L 328.67 217.50
  Q 329.10 217.50 329.21 217.07
  L 334.01 197.50
  Q 334.10 197.11 334.51 197.11
  L 341.14 197.14
  A 0.42 0.42 0.0 0 0 341.55 196.82
  L 347.09 174.18
  Q 347.21 173.70 346.72 173.70
  L 336.23 173.71
  Q 335.72 173.71 335.84 173.21
  Q 337.96 164.94 337.43 160.35
  C 337.20 158.36 334.20 154.45 331.32 154.54
  Q 330.88 154.55 331.05 154.14
  C 333.96 147.18 330.67 143.85 326.29 139.04
  A 0.63 0.63 0.0 0 1 326.49 138.04
  Q 327.03 137.80 327.95 138.00
  Q 333.80 139.27 336.57 135.38
  C 341.83 128.01 332.45 119.46 325.76 125.47
  Q 325.42 125.77 324.97 125.77
  L 316.49 125.76
  Q 315.92 125.76 315.71 125.23
  L 278.94 33.08
  A 3.94 3.86 -83.8 0 0 277.58 31.35
  L 267.93 24.54
  A 0.41 0.41 0.0 0 0 267.29 24.79
  L 264.90 36.71
  A 2.80 2.79 40.1 0 0 265.04 38.31
  L 298.35 121.85
  Q 298.61 122.50 297.93 122.31
  Q 293.33 120.97 288.52 121.26
  A 0.94 0.91 -17.9 0 1 287.69 120.85
  Q 287.22 120.15 286.95 120.03
  Q 281.34 117.55 276.04 114.85
  Q 275.48 114.57 275.56 113.96
  L 277.52 98.90
  A 0.95 0.94 23.3 0 0 277.18 98.06
  L 276.26 97.29
  Q 275.87 96.97 275.88 96.46
  Q 276.27 82.94 264.78 76.39
  Q 264.33 76.14 264.12 75.67
  C 260.55 67.87 257.05 62.96 247.58 67.08
  C 242.20 69.42 238.44 74.13 232.24 70.23
  Q 230.00 68.81 229.00 66.82
  Q 228.20 65.22 228.18 67.00
  Q 228.10 73.33 232.96 77.25
  A 0.20 0.19 79.6 0 1 232.74 77.57
  Z"
/>
<path fill="#000000" d="
  M 232.96 77.25
  Q 228.10 73.33 228.18 67.00
  Q 228.20 65.22 229.00 66.82
  Q 230.00 68.81 232.24 70.23
  C 238.44 74.13 242.20 69.42 247.58 67.08
  C 257.05 62.96 260.55 67.87 264.12 75.67
  Q 264.33 76.14 264.78 76.39
  Q 276.27 82.94 275.88 96.46
  Q 275.87 96.97 276.26 97.29
  L 277.18 98.06
  A 0.95 0.94 23.3 0 1 277.52 98.90
  L 275.56 113.96
  Q 275.48 114.57 276.04 114.85
  Q 281.34 117.55 286.95 120.03
  Q 287.22 120.15 287.69 120.85
  A 0.94 0.91 -17.9 0 0 288.52 121.26
  Q 293.33 120.97 297.93 122.31
  Q 298.61 122.50 298.35 121.85
  L 265.04 38.31
  A 2.80 2.79 40.1 0 1 264.90 36.71
  L 267.29 24.79
  A 0.41 0.41 0.0 0 1 267.93 24.54
  L 277.58 31.35
  A 3.94 3.86 -83.8 0 1 278.94 33.08
  L 315.71 125.23
  Q 315.92 125.76 316.49 125.76
  L 324.97 125.77
  Q 325.42 125.77 325.76 125.47
  C 332.45 119.46 341.83 128.01 336.57 135.38
  Q 333.80 139.27 327.95 138.00
  Q 327.03 137.80 326.49 138.04
  A 0.63 0.63 0.0 0 0 326.29 139.04
  C 330.67 143.85 333.96 147.18 331.05 154.14
  Q 330.88 154.55 331.32 154.54
  C 334.20 154.45 337.20 158.36 337.43 160.35
  Q 337.96 164.94 335.84 173.21
  Q 335.72 173.71 336.23 173.71
  L 346.72 173.70
  Q 347.21 173.70 347.09 174.18
  L 341.55 196.82
  A 0.42 0.42 0.0 0 1 341.14 197.14
  L 334.51 197.11
  Q 334.10 197.11 334.01 197.50
  L 329.21 217.07
  Q 329.10 217.50 328.67 217.50
  L 310.21 217.50
  Q 309.65 217.50 309.51 218.05
  L 305.73 233.43
  A 0.35 0.35 0.0 0 0 306.07 233.86
  L 333.93 233.87
  Q 335.01 233.87 334.18 234.57
  L 323.62 243.56
  A 2.92 2.91 -13.6 0 0 322.67 245.11
  L 319.84 256.80
  Q 319.73 257.26 319.26 257.26
  L 157.26 257.26
  Q 156.76 257.26 156.88 256.78
  L 160.75 240.99
  Q 160.87 240.52 160.49 240.23
  L 153.23 234.55
  Q 152.31 233.83 153.48 233.84
  L 176.52 233.92
  Q 177.56 233.93 176.71 233.32
  L 170.74 229.10
  Q 170.32 228.81 170.44 228.31
  L 180.27 188.23
  Q 180.38 187.76 180.00 187.46
  L 163.49 174.46
  Q 162.53 173.70 163.76 173.70
  L 184.22 173.70
  A 0.65 0.65 0.0 0 0 184.80 173.34
  Q 192.15 158.52 198.95 143.24
  Q 199.45 142.11 198.09 141.11
  Q 197.77 140.88 197.43 141.10
  L 194.07 143.27
  A 0.55 0.55 0.0 0 1 193.24 142.94
  Q 190.21 130.96 197.93 121.41
  C 202.27 116.05 207.62 114.84 214.23 114.49
  C 220.73 114.14 230.51 110.30 233.57 104.70
  Q 233.81 104.25 233.71 103.76
  C 233.08 100.84 232.78 98.45 235.02 96.02
  Q 235.40 95.61 235.43 95.05
  Q 236.10 80.33 250.30 76.55
  Q 251.56 76.21 250.26 76.05
  C 244.86 75.35 238.89 79.63 235.97 83.88
  Q 235.64 84.36 235.16 84.03
  Q 231.27 81.36 230.05 76.79
  Q 229.79 75.83 230.65 76.34
  L 232.74 77.57
  A 0.20 0.19 79.6 0 0 232.96 77.25
  Z
  M 327.67 130.12
  L 314.52 130.68
  Q 314.01 130.70 313.82 130.23
  L 275.57 34.38
  L 270.53 30.68
  Q 269.85 30.18 269.68 31.00
  L 268.37 37.16
  Q 268.20 37.97 268.92 38.39
  C 271.65 39.99 273.90 41.35 275.17 44.55
  Q 292.21 87.38 309.42 130.45
  A 0.83 0.83 0.0 0 1 309.21 131.38
  L 296.83 142.65
  A 0.90 0.88 -57.0 0 1 295.97 142.84
  C 293.91 142.22 291.66 143.13 292.00 145.55
  C 292.51 149.17 296.68 148.60 297.49 145.08
  Q 297.59 144.65 298.00 144.49
  L 327.70 132.69
  Q 328.22 132.48 328.69 132.80
  L 329.72 133.49
  A 1.19 1.19 0.0 0 0 330.38 133.69
  C 335.72 133.67 333.24 124.36 327.67 130.12
  Z
  M 265.28 121.57
  L 270.47 118.06
  A 1.98 1.93 -12.7 0 0 271.30 116.78
  L 273.73 103.37
  Q 273.85 102.69 273.18 102.83
  Q 272.10 103.05 271.22 103.89
  L 265.01 106.77
  A 3.06 3.03 43.0 0 1 262.63 106.84
  L 243.64 99.43
  Q 243.06 99.20 243.34 98.65
  L 245.47 94.49
  Q 245.74 93.95 246.28 94.21
  L 263.81 102.47
  Q 264.32 102.70 264.79 102.41
  L 267.79 100.52
  L 272.10 97.95
  Q 272.52 97.70 272.55 97.21
  Q 273.13 87.84 265.58 82.57
  Q 265.04 82.19 265.06 82.85
  Q 265.11 84.03 265.57 84.71
  L 265.16 97.52
  Q 265.15 98.07 264.60 98.06
  L 264.27 98.05
  A 0.26 0.26 0.0 0 1 264.01 97.77
  C 264.35 92.23 263.55 85.04 260.40 80.15
  Q 260.11 79.70 259.57 79.71
  Q 243.03 79.97 240.34 96.10
  Q 240.24 96.73 239.61 96.63
  L 238.27 96.43
  Q 237.41 96.30 237.98 96.96
  Q 241.61 101.22 237.77 105.08
  Q 237.28 105.57 237.96 105.74
  C 241.33 106.57 242.04 104.43 242.51 101.67
  Q 242.62 101.03 243.21 101.30
  L 246.99 103.03
  A 0.34 0.34 0.0 0 1 247.00 103.64
  C 242.62 105.73 242.46 107.99 242.34 112.46
  Q 242.32 113.02 242.71 113.42
  Q 250.08 120.94 260.28 123.66
  Q 260.77 123.79 261.22 123.57
  L 265.28 121.57
  Z
  M 259.53 102.84
  C 257.51 101.87 255.54 100.67 253.57 99.78
  A 0.36 0.36 0.0 0 0 253.08 100.01
  L 252.79 101.03
  A 0.40 0.39 -74.9 0 0 253.07 101.52
  L 259.51 103.15
  Q 259.66 103.19 259.67 103.08
  Q 259.68 103.01 259.67 102.96
  Q 259.65 102.89 259.53 102.84
  Z
  M 266.87 103.13
  A 0.19 0.18 21.0 0 0 267.02 103.46
  L 270.00 102.77
  Q 270.45 102.67 270.25 102.26
  L 269.99 101.74
  A 0.52 0.51 -30.0 0 0 269.24 101.54
  L 266.87 103.13
  Z
  M 277.49 125.30
  L 279.11 123.53
  Q 279.47 123.14 279.02 122.87
  L 273.84 119.82
  Q 273.40 119.56 272.99 119.87
  L 268.72 123.10
  Q 265.13 125.59 260.46 127.15
  C 255.83 128.71 240.10 117.29 236.24 114.11
  Q 234.42 112.62 235.52 114.70
  Q 242.95 128.84 257.51 135.47
  Q 257.97 135.68 258.46 135.53
  Q 269.03 132.34 277.49 125.30
  Z
  M 203.90 128.47
  C 209.95 121.86 220.43 120.84 228.20 123.37
  Q 230.67 124.17 228.52 122.72
  C 221.48 117.96 206.33 117.73 203.48 128.24
  Q 203.22 129.22 203.90 128.47
  Z
  M 285.39 126.60
  C 290.81 125.98 296.04 126.79 300.44 129.56
  Q 303.89 131.72 301.15 128.72
  C 297.68 124.92 291.48 124.29 286.45 124.84
  A 1.63 1.62 -74.9 0 0 285.33 125.49
  L 285.00 125.93
  A 0.43 0.42 14.9 0 0 285.39 126.60
  Z
  M 211.45 129.59
  Q 203.98 137.46 211.00 144.22
  Q 215.68 148.72 222.99 149.35
  Q 223.47 149.39 223.77 149.01
  Q 228.84 142.33 237.07 139.60
  Q 238.06 139.49 238.56 139.00
  Q 238.95 138.62 238.72 138.12
  Q 230.36 119.82 211.45 129.59
  Z
  M 286.41 145.02
  Q 284.43 138.59 280.07 133.45
  A 0.58 0.58 0.0 0 0 279.20 133.43
  Q 273.92 138.96 267.37 142.90
  Q 266.49 143.43 267.52 143.37
  Q 272.75 143.05 277.69 141.31
  Q 278.18 141.14 278.66 141.31
  Q 282.58 142.74 285.78 145.44
  Q 286.81 146.30 286.41 145.02
  Z
  M 313.35 141.25
  Q 314.17 143.59 316.26 143.12
  Q 317.50 142.83 318.73 143.21
  A 0.32 0.32 0.0 0 1 318.77 143.81
  L 315.41 145.35
  Q 314.40 145.82 314.87 146.82
  L 315.17 147.46
  Q 315.63 148.46 316.70 148.19
  L 320.86 147.14
  Q 320.98 147.11 321.08 147.17
  Q 321.24 147.25 321.40 147.33
  A 0.15 0.15 0.0 0 1 321.40 147.60
  L 318.03 149.31
  Q 317.61 149.52 317.60 149.99
  Q 317.52 151.92 319.25 151.59
  Q 321.77 151.11 324.27 150.49
  A 0.10 0.09 -10.4 0 1 324.39 150.57
  L 324.41 150.93
  Q 324.41 150.97 324.38 150.99
  Q 323.23 151.72 322.07 152.41
  Q 321.65 152.66 321.62 153.14
  Q 321.51 154.71 322.74 154.69
  Q 325.53 154.66 328.20 153.63
  A 1.74 1.74 0.0 0 0 328.61 150.61
  Q 327.17 149.54 327.78 147.81
  A 0.58 0.57 -64.9 0 0 327.54 147.12
  Q 326.19 146.33 325.87 145.30
  Q 326.20 142.56 323.42 142.01
  A 0.78 0.78 0.0 0 1 322.80 141.26
  L 322.79 140.24
  A 0.90 0.89 -80.6 0 0 322.20 139.41
  Q 320.86 138.92 318.76 139.11
  Q 313.98 139.53 313.35 141.25
  Z
  M 236.87 144.30
  Q 229.26 148.95 226.61 157.71
  Q 226.45 158.24 226.96 158.48
  Q 236.44 162.89 246.89 161.49
  Q 247.33 161.43 247.66 161.13
  L 254.68 154.70
  Q 255.39 154.42 255.81 153.99
  Q 256.18 153.60 255.88 153.15
  Q 250.59 145.25 241.50 142.81
  C 239.53 142.29 238.31 143.11 236.87 144.30
  Z
  M 306.12 145.36
  L 304.63 148.97
  A 0.50 0.49 -59.2 0 0 304.77 149.54
  Q 307.55 151.96 311.30 151.42
  Q 311.85 151.34 311.94 150.80
  L 312.21 149.08
  Q 312.31 148.47 311.69 148.40
  Q 308.27 147.99 306.34 145.34
  Q 306.21 145.15 306.12 145.36
  Z
  M 214.52 165.91
  C 217.99 169.15 223.63 173.82 228.61 173.84
  Q 235.82 173.86 243.06 173.83
  Q 243.60 173.83 243.39 173.33
  L 242.74 171.75
  Q 242.55 171.28 242.08 171.08
  L 227.74 165.06
  Q 227.32 164.88 227.08 165.27
  L 226.62 166.02
  A 0.59 0.59 0.0 0 1 225.88 166.25
  Q 211.87 160.21 202.61 148.10
  Q 202.06 147.39 202.09 148.29
  Q 202.46 160.92 204.52 173.40
  Q 204.62 174.00 205.22 174.00
  L 216.45 174.00
  Q 216.93 174.00 216.77 173.55
  L 214.14 166.16
  Q 213.82 165.26 214.52 165.91
  Z
  M 287.56 156.32
  Q 288.90 163.98 286.33 170.79
  Q 286.11 171.37 286.73 171.36
  Q 300.91 171.11 314.77 168.01
  Q 315.25 167.91 315.66 168.17
  C 317.82 169.58 319.42 171.16 322.07 171.50
  Q 326.84 172.10 331.57 171.89
  A 1.64 1.46 -27.5 0 0 332.63 169.12
  Q 332.40 168.98 332.24 168.77
  A 0.64 0.63 -37.3 0 1 332.37 167.88
  Q 333.14 167.30 333.69 166.50
  Q 334.00 166.06 333.67 165.63
  Q 333.00 164.77 332.66 163.77
  Q 333.96 163.28 334.20 161.94
  Q 334.29 161.40 333.92 161.00
  Q 333.39 160.43 332.69 160.08
  Q 332.39 159.94 332.24 159.25
  Q 332.17 158.97 332.34 158.62
  A 1.20 1.19 14.6 0 0 331.34 156.93
  Q 325.79 156.52 320.65 157.54
  Q 319.24 156.99 316.64 157.58
  Q 316.18 157.68 316.31 158.14
  Q 316.90 160.10 315.90 161.93
  Q 315.76 162.19 315.46 162.20
  L 315.16 162.21
  C 307.52 154.75 296.72 153.23 286.47 152.93
  Q 285.90 152.91 286.15 153.43
  L 287.56 156.32
  Z
  M 257.27 166.07
  Q 255.11 166.65 256.83 165.23
  Q 261.37 161.48 260.48 155.54
  Q 260.40 155.02 259.96 155.31
  Q 252.59 160.12 248.61 167.98
  C 247.26 170.66 250.88 172.86 252.79 173.65
  Q 253.25 173.84 253.71 173.63
  C 256.11 172.53 259.03 168.58 260.82 166.46
  Q 262.25 164.75 260.10 165.32
  L 257.27 166.07
  Z
  M 270.64 159.66
  L 268.17 168.44
  Q 268.04 168.91 268.53 168.94
  Q 275.08 169.32 281.40 167.66
  A 1.04 1.02 -86.5 0 0 282.11 167.02
  Q 283.62 162.84 283.36 159.00
  L 283.01 156.68
  Q 282.93 156.13 282.38 156.10
  L 271.41 155.50
  Q 270.77 155.47 270.75 156.11
  L 270.64 159.66
  Z
  M 332.56 180.22
  A 2.70 2.70 0.0 0 0 329.86 177.52
  A 2.70 2.70 0.0 0 0 327.16 180.22
  A 2.70 2.70 0.0 0 0 329.86 182.92
  A 2.70 2.70 0.0 0 0 332.56 180.22
  Z
  M 196.08 223.95
  Q 195.69 223.95 195.78 223.58
  L 206.23 181.02
  Q 206.37 180.45 205.78 180.45
  L 182.97 180.45
  Q 182.05 180.45 182.77 181.01
  L 187.42 184.67
  A 1.19 1.18 -64.0 0 1 187.83 185.88
  L 178.12 225.42
  A 0.79 0.78 24.6 0 0 178.43 226.25
  L 188.86 233.62
  A 1.49 1.49 0.0 0 0 189.73 233.90
  Q 198.50 233.98 207.31 233.90
  Q 209.52 233.88 211.47 232.82
  Q 217.49 229.54 223.50 226.15
  Q 223.89 225.93 224.00 225.49
  L 234.97 180.80
  A 0.29 0.29 0.0 0 0 234.69 180.44
  L 211.49 180.46
  Q 210.75 180.46 211.33 180.92
  L 216.22 184.80
  Q 216.68 185.16 216.54 185.73
  L 207.27 223.53
  Q 207.17 223.97 206.71 223.97
  L 196.08 223.95
  Z
  M 268.06 191.10
  L 265.81 200.27
  Q 265.68 200.83 266.26 200.83
  L 282.23 200.81
  Q 282.80 200.81 282.94 200.26
  L 285.73 188.99
  Q 285.86 188.44 285.40 188.11
  L 274.95 180.83
  Q 274.33 180.39 273.58 180.40
  Q 265.80 180.44 257.80 180.44
  Q 255.46 180.44 253.41 181.46
  Q 246.81 184.73 240.34 188.28
  A 1.15 1.13 -7.8 0 0 239.79 188.99
  L 230.79 225.53
  Q 230.69 225.95 231.04 226.21
  L 241.03 233.64
  Q 241.40 233.91 241.85 233.92
  Q 250.81 233.96 259.80 233.90
  Q 262.02 233.89 263.96 232.84
  Q 270.09 229.56 276.17 226.20
  A 1.08 1.06 -7.9 0 0 276.70 225.51
  L 280.18 211.51
  Q 280.31 210.97 279.75 210.97
  L 263.72 210.97
  Q 263.15 210.97 263.01 211.53
  L 260.08 223.53
  A 0.59 0.58 6.9 0 1 259.51 223.97
  L 248.76 223.95
  Q 248.31 223.95 248.41 223.51
  L 255.34 195.56
  A 0.96 0.95 26.0 0 0 255.00 194.59
  L 250.56 191.14
  Q 249.73 190.49 250.78 190.49
  L 267.59 190.50
  Q 268.21 190.50 268.06 191.10
  Z
  M 324.41 185.11
  L 322.91 182.75
  Q 322.85 181.76 322.47 180.90
  Q 322.27 180.44 321.77 180.44
  L 288.23 180.46
  Q 287.44 180.46 288.06 180.95
  L 292.94 184.79
  Q 293.39 185.15 293.25 185.72
  L 281.51 233.55
  A 0.31 0.31 0.0 0 0 281.81 233.93
  L 297.98 233.93
  Q 298.66 233.93 298.82 233.27
  L 304.19 211.21
  Q 304.30 210.75 304.78 210.75
  L 323.49 210.75
  A 0.41 0.41 0.0 0 0 323.89 210.43
  L 326.13 201.01
  Q 326.19 200.78 325.95 200.78
  L 307.27 200.78
  A 0.41 0.41 0.0 0 1 306.87 200.26
  L 308.12 195.48
  A 0.83 0.81 -63.8 0 0 307.84 194.62
  L 303.33 191.07
  Q 302.44 190.37 303.57 190.37
  L 335.78 190.38
  A 0.53 0.53 0.0 0 0 336.29 189.98
  L 338.48 180.72
  Q 338.58 180.33 338.18 180.28
  L 337.83 180.23
  Q 337.33 180.16 337.25 180.66
  C 336.18 187.06 329.08 189.98 324.41 185.11
  Z
  M 280.19 244.67
  L 278.17 252.60
  Q 278.12 252.79 278.31 252.79
  L 281.45 252.81
  A 0.36 0.36 0.0 0 0 281.80 252.52
  L 283.63 244.47
  Q 283.75 243.95 284.27 243.99
  L 288.16 244.25
  Q 288.36 244.26 288.40 244.07
  L 289.01 241.35
  Q 289.05 241.14 288.84 241.14
  L 276.69 241.18
  Q 276.31 241.18 276.23 241.56
  L 275.74 243.93
  Q 275.68 244.22 275.97 244.20
  L 279.68 244.03
  Q 280.36 244.00 280.19 244.67
  Z
  M 180.61 244.99
  L 181.61 241.71
  Q 181.75 241.24 181.26 241.23
  L 178.64 241.18
  Q 178.14 241.17 178.02 241.66
  L 175.38 252.44
  Q 175.29 252.78 175.64 252.78
  L 178.59 252.82
  Q 179.15 252.82 179.14 252.27
  Q 179.07 249.06 182.10 248.00
  Q 182.58 247.83 182.75 248.31
  L 184.22 252.32
  Q 184.40 252.78 184.89 252.78
  L 188.12 252.80
  Q 188.56 252.81 188.39 252.40
  L 185.65 246.00
  Q 185.42 245.46 185.90 245.12
  L 191.21 241.42
  A 0.09 0.08 27.7 0 0 191.16 241.27
  L 186.78 241.14
  A 0.46 0.43 26.7 0 0 186.48 241.23
  L 181.08 245.32
  A 0.30 0.30 0.0 0 1 180.61 244.99
  Z
  M 200.95 245.84
  A 0.29 0.29 0.0 0 1 201.48 245.75
  Q 203.33 248.56 205.30 251.34
  Q 205.44 251.54 205.46 251.78
  Q 205.49 252.05 205.51 252.35
  Q 205.55 252.81 206.01 252.80
  L 208.55 252.79
  Q 208.95 252.79 209.05 252.40
  L 211.87 241.33
  Q 211.89 241.26 211.82 241.26
  L 209.06 241.16
  Q 208.73 241.14 208.66 241.47
  L 207.40 247.09
  Q 207.26 247.71 206.90 247.19
  L 203.74 242.70
  Q 203.49 242.36 203.53 241.94
  Q 203.55 241.80 203.56 241.65
  Q 203.62 241.16 203.12 241.16
  L 199.48 241.20
  Q 199.09 241.20 199.00 241.58
  L 196.26 252.67
  Q 196.23 252.80 196.37 252.80
  L 199.04 252.83
  Q 199.33 252.83 199.39 252.55
  L 200.95 245.84
  Z
  M 224.44 241.62
  A 0.31 0.31 0.0 0 0 224.14 241.23
  L 221.30 241.17
  A 0.31 0.31 0.0 0 0 220.99 241.41
  L 218.27 252.42
  A 0.31 0.31 0.0 0 0 218.58 252.80
  L 221.47 252.80
  A 0.31 0.31 0.0 0 0 221.77 252.56
  L 224.44 241.62
  Z
  M 240.47 248.61
  Q 242.70 249.26 240.51 250.08
  Q 237.59 251.18 235.12 249.61
  Q 234.69 249.34 234.59 248.83
  C 233.59 243.93 239.84 242.46 243.14 244.67
  Q 243.56 244.95 243.87 244.55
  L 245.58 242.35
  Q 245.91 241.92 245.37 241.83
  C 239.73 240.92 235.86 239.87 231.88 244.86
  Q 230.44 246.66 230.89 249.02
  C 232.02 254.97 240.69 253.00 244.22 251.50
  Q 244.75 251.28 244.72 250.71
  Q 244.61 248.73 245.56 247.00
  Q 245.83 246.50 245.26 246.50
  L 238.97 246.46
  Q 238.44 246.46 238.34 246.98
  L 237.99 248.76
  A 0.30 0.30 0.0 0 0 238.42 249.08
  Q 239.80 248.41 240.47 248.61
  Z
  M 257.96 244.71
  L 258.72 241.65
  Q 258.82 241.22 258.38 241.22
  L 255.85 241.21
  Q 255.34 241.21 255.22 241.70
  L 252.53 252.63
  Q 252.48 252.82 252.68 252.82
  L 255.97 252.79
  A 0.27 0.27 0.0 0 0 256.24 252.53
  Q 256.32 250.56 257.05 248.70
  Q 257.24 248.20 257.78 248.20
  L 262.28 248.23
  Q 262.85 248.23 262.78 248.79
  Q 262.56 250.84 261.63 252.64
  Q 261.52 252.85 261.75 252.85
  L 265.07 252.81
  Q 265.37 252.81 265.44 252.51
  L 268.13 241.47
  Q 268.19 241.24 267.95 241.23
  L 264.90 241.17
  Q 264.43 241.17 264.41 241.64
  Q 264.38 243.29 263.78 244.85
  Q 263.59 245.34 263.07 245.34
  L 258.46 245.35
  Q 257.80 245.35 257.96 244.71
  Z
  M 299.76 245.17
  Q 297.52 244.37 299.69 243.63
  Q 303.30 242.39 306.30 244.55
  Q 306.55 244.73 306.71 244.47
  L 308.04 242.29
  Q 308.15 242.10 307.95 242.03
  Q 303.04 240.37 299.51 241.26
  C 297.41 241.79 294.45 243.97 295.63 246.33
  C 296.50 248.09 300.99 248.18 302.73 248.19
  A 0.90 0.89 -83.9 0 1 303.59 249.27
  Q 303.33 250.52 302.00 250.58
  C 299.55 250.71 297.69 250.92 295.67 249.34
  Q 295.26 249.02 294.95 249.44
  L 293.46 251.49
  Q 293.19 251.86 293.63 252.01
  C 297.75 253.45 307.75 254.24 307.00 247.31
  Q 306.95 246.83 306.54 246.57
  C 304.15 245.05 301.86 245.91 299.76 245.17
  Z"
/>
<g>
<path fill="#b49559" d="
  M 275.57 34.38
  Q 274.66 36.87 275.51 39.01
  Q 294.11 85.66 312.66 132.17
  A 0.82 0.81 -12.9 0 0 313.49 132.68
  L 327.06 131.37
  Q 327.49 131.33 327.63 130.92
  Q 327.76 130.55 327.67 130.12
  C 333.24 124.36 335.72 133.67 330.38 133.69
  A 1.19 1.19 0.0 0 1 329.72 133.49
  L 328.69 132.80
  Q 328.22 132.48 327.70 132.69
  L 298.00 144.49
  Q 297.59 144.65 297.49 145.08
  C 296.68 148.60 292.51 149.17 292.00 145.55
  C 291.66 143.13 293.91 142.22 295.97 142.84
  A 0.90 0.88 -57.0 0 0 296.83 142.65
  L 309.21 131.38
  A 0.83 0.83 0.0 0 0 309.42 130.45
  Q 292.21 87.38 275.17 44.55
  C 273.90 41.35 271.65 39.99 268.92 38.39
  Q 268.20 37.97 268.37 37.16
  L 269.68 31.00
  Q 269.85 30.18 270.53 30.68
  L 275.57 34.38
  Z"
/>
<path fill="#ffffff" d="
  M 275.57 34.38
  L 313.82 130.23
  Q 314.01 130.70 314.52 130.68
  L 327.67 130.12
  Q 327.76 130.55 327.63 130.92
  Q 327.49 131.33 327.06 131.37
  L 313.49 132.68
  A 0.82 0.81 -12.9 0 1 312.66 132.17
  Q 294.11 85.66 275.51 39.01
  Q 274.66 36.87 275.57 34.38
  Z"
/>
<path fill="#b49559" d="
  M 265.57 84.71
  Q 269.28 91.55 267.79 100.52
  L 264.79 102.41
  Q 264.32 102.70 263.81 102.47
  L 246.28 94.21
  Q 245.74 93.95 245.47 94.49
  L 243.34 98.65
  Q 243.06 99.20 243.64 99.43
  L 262.63 106.84
  A 3.06 3.03 43.0 0 0 265.01 106.77
  L 271.22 103.89
  Q 271.05 111.29 269.66 115.20
  Q 268.95 117.20 265.28 121.57
  L 261.22 123.57
  Q 260.77 123.79 260.28 123.66
  Q 250.08 120.94 242.71 113.42
  Q 242.32 113.02 242.34 112.46
  C 242.46 107.99 242.62 105.73 247.00 103.64
  A 0.34 0.34 0.0 0 0 246.99 103.03
  L 243.21 101.30
  Q 242.62 101.03 242.51 101.67
  C 242.04 104.43 241.33 106.57 237.96 105.74
  Q 237.28 105.57 237.77 105.08
  Q 241.61 101.22 237.98 96.96
  Q 237.41 96.30 238.27 96.43
  L 239.61 96.63
  Q 240.24 96.73 240.34 96.10
  Q 243.03 79.97 259.57 79.71
  Q 260.11 79.70 260.40 80.15
  C 263.55 85.04 264.35 92.23 264.01 97.77
  A 0.26 0.26 0.0 0 0 264.27 98.05
  L 264.60 98.06
  Q 265.15 98.07 265.16 97.52
  L 265.57 84.71
  Z
  M 253.18 107.53
  A 0.22 0.22 0.0 0 0 252.91 107.63
  L 252.71 107.98
  A 0.22 0.22 0.0 0 0 252.79 108.27
  L 260.89 113.40
  A 0.22 0.22 0.0 0 0 261.22 113.26
  L 261.65 111.20
  A 0.22 0.22 0.0 0 0 261.52 110.95
  L 253.18 107.53
  Z
  M 269.27 108.75
  L 264.84 110.94
  A 1.00 0.99 76.4 0 0 264.28 111.87
  L 264.31 112.69
  Q 264.33 113.25 264.80 112.93
  L 269.73 109.54
  A 0.46 0.46 0.0 0 0 269.27 108.75
  Z
  M 260.40 114.65
  L 252.58 111.40
  Q 252.22 111.25 252.13 111.64
  Q 252.09 111.79 252.15 111.96
  Q 252.22 112.19 252.55 112.40
  Q 256.32 114.85 259.81 117.05
  Q 260.39 117.41 260.55 116.75
  L 260.85 115.53
  Q 261.00 114.90 260.40 114.65
  Z
  M 263.74 116.97
  L 269.65 113.08
  A 0.16 0.16 0.0 0 0 269.69 112.86
  L 269.67 112.81
  A 3.53 1.29 -33.4 0 0 266.01 113.68
  L 265.73 113.87
  A 3.53 1.29 -33.4 0 0 263.49 116.89
  L 263.52 116.93
  A 0.16 0.16 0.0 0 0 263.74 116.97
  Z"
/>
<path fill="#ffffff" d="
  M 267.79 100.52
  Q 269.28 91.55 265.57 84.71
  Q 265.11 84.03 265.06 82.85
  Q 265.04 82.19 265.58 82.57
  Q 273.13 87.84 272.55 97.21
  Q 272.52 97.70 272.10 97.95
  L 267.79 100.52
  Z"
/>
<path fill="#ffffff" d="
  M 253.57 99.78
  C 255.54 100.67 257.51 101.87 259.53 102.84
  Q 259.65 102.89 259.67 102.96
  Q 259.68 103.01 259.67 103.08
  Q 259.66 103.19 259.51 103.15
  L 253.07 101.52
  A 0.40 0.39 -74.9 0 1 252.79 101.03
  L 253.08 100.01
  A 0.36 0.36 0.0 0 1 253.57 99.78
  Z"
/>
<path fill="#ffffff" d="
  M 266.87 103.13
  L 269.24 101.54
  A 0.52 0.51 -30.0 0 1 269.99 101.74
  L 270.25 102.26
  Q 270.45 102.67 270.00 102.77
  L 267.02 103.46
  A 0.19 0.18 21.0 0 1 266.87 103.13
  Z"
/>
<path fill="#ffffff" d="
  M 265.28 121.57
  Q 268.95 117.20 269.66 115.20
  Q 271.05 111.29 271.22 103.89
  Q 272.10 103.05 273.18 102.83
  Q 273.85 102.69 273.73 103.37
  L 271.30 116.78
  A 1.98 1.93 -12.7 0 1 270.47 118.06
  L 265.28 121.57
  Z"
/>
<path fill="#b49559" d="
  M 268.72 123.10
  L 277.49 125.30
  Q 269.03 132.34 258.46 135.53
  Q 257.97 135.68 257.51 135.47
  Q 242.95 128.84 235.52 114.70
  Q 234.42 112.62 236.24 114.11
  C 240.10 117.29 255.83 128.71 260.46 127.15
  Q 265.13 125.59 268.72 123.10
  Z
  M 247.98 126.38
  L 247.82 123.66
  A 0.26 0.26 0.0 0 0 247.54 123.42
  L 247.30 123.43
  A 1.52 1.46 -3.5 0 0 245.87 124.98
  L 245.89 125.30
  A 1.52 1.46 -3.5 0 0 247.50 126.67
  L 247.74 126.65
  A 0.26 0.26 0.0 0 0 247.98 126.38
  Z
  M 269.78 127.86
  L 269.72 125.42
  A 0.40 0.40 0.0 0 0 269.31 125.03
  L 269.15 125.03
  A 1.46 1.46 0.0 0 0 267.73 126.52
  L 267.73 126.84
  A 1.46 1.46 0.0 0 0 269.23 128.27
  L 269.39 128.27
  A 0.40 0.40 0.0 0 0 269.78 127.86
  Z
  M 258.86 132.54
  L 258.84 129.76
  A 0.25 0.25 0.0 0 0 258.58 129.51
  L 258.43 129.51
  A 1.62 1.45 -0.6 0 0 256.83 130.98
  L 256.83 131.36
  A 1.62 1.45 -0.6 0 0 258.47 132.79
  L 258.62 132.79
  A 0.25 0.25 0.0 0 0 258.86 132.54
  Z"
/>
<path fill="#ffffff" d="
  M 228.20 123.37
  C 220.43 120.84 209.95 121.86 203.90 128.47
  Q 203.22 129.22 203.48 128.24
  C 206.33 117.73 221.48 117.96 228.52 122.72
  Q 230.67 124.17 228.20 123.37
  Z"
/>
<path fill="#ffffff" d="
  M 277.49 125.30
  L 268.72 123.10
  L 272.99 119.87
  Q 273.40 119.56 273.84 119.82
  L 279.02 122.87
  Q 279.47 123.14 279.11 123.53
  L 277.49 125.30
  Z"
/>
<path fill="#ffffff" d="
  M 300.44 129.56
  C 296.04 126.79 290.81 125.98 285.39 126.60
  A 0.43 0.42 14.9 0 1 285.00 125.93
  L 285.33 125.49
  A 1.63 1.62 -74.9 0 1 286.45 124.84
  C 291.48 124.29 297.68 124.92 301.15 128.72
  Q 303.89 131.72 300.44 129.56
  Z"
/>
<path fill="#ffffff" d="
  M 237.07 139.60
  C 234.86 136.38 229.96 130.46 226.07 129.88
  Q 219.67 128.92 211.45 129.59
  Q 230.36 119.82 238.72 138.12
  Q 238.95 138.62 238.56 139.00
  Q 238.06 139.49 237.07 139.60
  Z"
/>
<path fill="#b49559" d="
  M 237.07 139.60
  Q 228.84 142.33 223.77 149.01
  Q 223.47 149.39 222.99 149.35
  Q 215.68 148.72 211.00 144.22
  Q 203.98 137.46 211.45 129.59
  Q 219.67 128.92 226.07 129.88
  C 229.96 130.46 234.86 136.38 237.07 139.60
  Z"
/>
<path fill="#b49559" d="
  M 286.41 145.02
  Q 286.81 146.30 285.78 145.44
  Q 282.58 142.74 278.66 141.31
  Q 278.18 141.14 277.69 141.31
  Q 272.75 143.05 267.52 143.37
  Q 266.49 143.43 267.37 142.90
  Q 273.92 138.96 279.20 133.43
  A 0.58 0.58 0.0 0 1 280.07 133.45
  Q 284.43 138.59 286.41 145.02
  Z"
/>
<path fill="#ffffff" d="
  M 325.87 145.30
  C 323.20 143.64 320.82 141.87 317.63 141.54
  Q 315.72 141.34 313.35 141.25
  Q 313.98 139.53 318.76 139.11
  Q 320.86 138.92 322.20 139.41
  A 0.90 0.89 -80.6 0 1 322.79 140.24
  L 322.80 141.26
  A 0.78 0.78 0.0 0 0 323.42 142.01
  Q 326.20 142.56 325.87 145.30
  Z"
/>
<path fill="#b49559" d="
  M 313.35 141.25
  Q 315.72 141.34 317.63 141.54
  C 320.82 141.87 323.20 143.64 325.87 145.30
  Q 326.19 146.33 327.54 147.12
  A 0.58 0.57 -64.9 0 1 327.78 147.81
  Q 327.17 149.54 328.61 150.61
  A 1.74 1.74 0.0 0 1 328.20 153.63
  Q 325.53 154.66 322.74 154.69
  Q 321.51 154.71 321.62 153.14
  Q 321.65 152.66 322.07 152.41
  Q 323.23 151.72 324.38 150.99
  Q 324.41 150.97 324.41 150.93
  L 324.39 150.57
  A 0.10 0.09 -10.4 0 0 324.27 150.49
  Q 321.77 151.11 319.25 151.59
  Q 317.52 151.92 317.60 149.99
  Q 317.61 149.52 318.03 149.31
  L 321.40 147.60
  A 0.15 0.15 0.0 0 0 321.40 147.33
  Q 321.24 147.25 321.08 147.17
  Q 320.98 147.11 320.86 147.14
  L 316.70 148.19
  Q 315.63 148.46 315.17 147.46
  L 314.87 146.82
  Q 314.40 145.82 315.41 145.35
  L 318.77 143.81
  A 0.32 0.32 0.0 0 0 318.73 143.21
  Q 317.50 142.83 316.26 143.12
  Q 314.17 143.59 313.35 141.25
  Z"
/>
<path fill="#ffffff" d="
  M 254.68 154.70
  C 249.55 149.78 243.71 145.54 236.87 144.30
  C 238.31 143.11 239.53 142.29 241.50 142.81
  Q 250.59 145.25 255.88 153.15
  Q 256.18 153.60 255.81 153.99
  Q 255.39 154.42 254.68 154.70
  Z"
/>
<path fill="#b49559" d="
  M 236.87 144.30
  C 243.71 145.54 249.55 149.78 254.68 154.70
  L 247.66 161.13
  Q 247.33 161.43 246.89 161.49
  Q 236.44 162.89 226.96 158.48
  Q 226.45 158.24 226.61 157.71
  Q 229.26 148.95 236.87 144.30
  Z"
/>
<path fill="#b49559" d="
  M 306.34 145.34
  Q 308.27 147.99 311.69 148.40
  Q 312.31 148.47 312.21 149.08
  L 311.94 150.80
  Q 311.85 151.34 311.30 151.42
  Q 307.55 151.96 304.77 149.54
  A 0.50 0.49 -59.2 0 1 304.63 148.97
  L 306.12 145.36
  Q 306.21 145.15 306.34 145.34
  Z"
/>
<path fill="#b49559" d="
  M 214.14 166.16
  L 216.77 173.55
  Q 216.93 174.00 216.45 174.00
  L 205.22 174.00
  Q 204.62 174.00 204.52 173.40
  Q 202.46 160.92 202.09 148.29
  Q 202.06 147.39 202.61 148.10
  Q 211.87 160.21 225.88 166.25
  A 0.59 0.59 0.0 0 0 226.62 166.02
  L 227.08 165.27
  Q 227.32 164.88 227.74 165.06
  L 242.08 171.08
  Q 242.55 171.28 242.74 171.75
  L 243.39 173.33
  Q 243.60 173.83 243.06 173.83
  Q 235.82 173.86 228.61 173.84
  C 223.63 173.82 217.99 169.15 214.52 165.91
  Q 213.82 165.26 214.14 166.16
  Z"
/>
<path fill="#ffffff" d="
  M 315.16 162.21
  Q 315.15 162.40 315.13 162.54
  Q 315.07 162.94 314.73 162.72
  Q 302.10 154.39 287.56 156.32
  L 286.15 153.43
  Q 285.90 152.91 286.47 152.93
  C 296.72 153.23 307.52 154.75 315.16 162.21
  Z"
/>
<path fill="#b49559" d="
  M 257.27 166.07
  L 260.10 165.32
  Q 262.25 164.75 260.82 166.46
  C 259.03 168.58 256.11 172.53 253.71 173.63
  Q 253.25 173.84 252.79 173.65
  C 250.88 172.86 247.26 170.66 248.61 167.98
  Q 252.59 160.12 259.96 155.31
  Q 260.40 155.02 260.48 155.54
  Q 261.37 161.48 256.83 165.23
  Q 255.11 166.65 257.27 166.07
  Z"
/>
<path fill="#ffffff" d="
  M 283.36 159.00
  Q 276.74 157.83 270.64 159.66
  L 270.75 156.11
  Q 270.77 155.47 271.41 155.50
  L 282.38 156.10
  Q 282.93 156.13 283.01 156.68
  L 283.36 159.00
  Z"
/>
<path fill="#b49559" d="
  M 315.16 162.21
  L 315.46 162.20
  Q 315.76 162.19 315.90 161.93
  Q 316.90 160.10 316.31 158.14
  Q 316.18 157.68 316.64 157.58
  Q 319.24 156.99 320.65 157.54
  Q 329.42 158.24 332.66 163.77
  Q 333.00 164.77 333.67 165.63
  Q 334.00 166.06 333.69 166.50
  Q 333.14 167.30 332.37 167.88
  A 0.64 0.63 -37.3 0 0 332.24 168.77
  Q 332.40 168.98 332.63 169.12
  A 1.64 1.46 -27.5 0 1 331.57 171.89
  Q 326.84 172.10 322.07 171.50
  C 319.42 171.16 317.82 169.58 315.66 168.17
  Q 315.25 167.91 314.77 168.01
  Q 300.91 171.11 286.73 171.36
  Q 286.11 171.37 286.33 170.79
  Q 288.90 163.98 287.56 156.32
  Q 302.10 154.39 314.73 162.72
  Q 315.07 162.94 315.13 162.54
  Q 315.15 162.40 315.16 162.21
  Z"
/>
<path fill="#ffffff" d="
  M 332.66 163.77
  Q 329.42 158.24 320.65 157.54
  Q 325.79 156.52 331.34 156.93
  A 1.20 1.19 14.6 0 1 332.34 158.62
  Q 332.17 158.97 332.24 159.25
  Q 332.39 159.94 332.69 160.08
  Q 333.39 160.43 333.92 161.00
  Q 334.29 161.40 334.20 161.94
  Q 333.96 163.28 332.66 163.77
  Z"
/>
<path fill="#b49559" d="
  M 283.36 159.00
  Q 283.62 162.84 282.11 167.02
  A 1.04 1.02 -86.5 0 1 281.40 167.66
  Q 275.08 169.32 268.53 168.94
  Q 268.04 168.91 268.17 168.44
  L 270.64 159.66
  Q 276.74 157.83 283.36 159.00
  Z"
/>
<circle fill="#b49559" cx="329.86" cy="180.22" r="2.70"/>
<path fill="#b49559" d="
  M 196.08 223.95
  L 206.71 223.97
  Q 207.17 223.97 207.27 223.53
  L 216.54 185.73
  Q 216.68 185.16 216.22 184.80
  L 211.33 180.92
  Q 210.75 180.46 211.49 180.46
  L 234.69 180.44
  A 0.29 0.29 0.0 0 1 234.97 180.80
  L 224.00 225.49
  Q 223.89 225.93 223.50 226.15
  Q 217.49 229.54 211.47 232.82
  Q 209.52 233.88 207.31 233.90
  Q 198.50 233.98 189.73 233.90
  A 1.49 1.49 0.0 0 1 188.86 233.62
  L 178.43 226.25
  A 0.79 0.78 24.6 0 1 178.12 225.42
  L 187.83 185.88
  A 1.19 1.18 -64.0 0 0 187.42 184.67
  L 182.77 181.01
  Q 182.05 180.45 182.97 180.45
  L 205.78 180.45
  Q 206.37 180.45 206.23 181.02
  L 195.78 223.58
  Q 195.69 223.95 196.08 223.95
  Z
  M 192.82 185.40
  A 0.31 0.31 0.0 0 1 193.12 185.16
  L 202.58 185.19
  A 0.31 0.31 0.0 0 0 202.88 184.96
  L 203.37 183.14
  A 0.31 0.31 0.0 0 0 203.07 182.75
  L 189.74 182.74
  A 0.31 0.31 0.0 0 0 189.52 183.28
  L 190.51 184.20
  A 0.31 0.31 0.0 0 1 190.60 184.50
  L 180.76 224.69
  A 0.31 0.31 0.0 0 0 180.88 225.01
  L 182.37 226.07
  A 0.31 0.31 0.0 0 0 182.85 225.90
  L 192.82 185.40
  Z
  M 209.05 226.26
  A 0.32 0.32 0.0 0 1 208.74 226.50
  L 195.35 226.45
  A 0.32 0.32 0.0 0 0 195.04 226.69
  L 194.62 228.34
  A 0.32 0.32 0.0 0 0 194.93 228.74
  L 210.59 228.76
  A 0.32 0.32 0.0 0 0 210.90 228.52
  L 221.45 185.43
  A 0.32 0.32 0.0 0 1 221.76 185.19
  L 231.18 185.18
  A 0.32 0.32 0.0 0 0 231.48 184.96
  L 232.07 183.17
  A 0.32 0.32 0.0 0 0 231.77 182.75
  L 218.51 182.74
  A 0.32 0.32 0.0 0 0 218.28 183.28
  L 219.19 184.22
  A 0.32 0.32 0.0 0 1 219.27 184.52
  L 209.05 226.26
  Z"
/>
<path fill="#b49559" d="
  M 267.59 190.50
  L 250.78 190.49
  Q 249.73 190.49 250.56 191.14
  L 255.00 194.59
  A 0.96 0.95 26.0 0 1 255.34 195.56
  L 248.41 223.51
  Q 248.31 223.95 248.76 223.95
  L 259.51 223.97
  A 0.59 0.58 6.9 0 0 260.08 223.53
  L 263.01 211.53
  Q 263.15 210.97 263.72 210.97
  L 279.75 210.97
  Q 280.31 210.97 280.18 211.51
  L 276.70 225.51
  A 1.08 1.06 -7.9 0 1 276.17 226.20
  Q 270.09 229.56 263.96 232.84
  Q 262.02 233.89 259.80 233.90
  Q 250.81 233.96 241.85 233.92
  Q 241.40 233.91 241.03 233.64
  L 231.04 226.21
  Q 230.69 225.95 230.79 225.53
  L 239.79 188.99
  A 1.15 1.13 -7.8 0 1 240.34 188.28
  Q 246.81 184.73 253.41 181.46
  Q 255.46 180.44 257.80 180.44
  Q 265.80 180.44 273.58 180.40
  Q 274.33 180.39 274.95 180.83
  L 285.40 188.11
  Q 285.86 188.44 285.73 188.99
  L 282.94 200.26
  Q 282.80 200.81 282.23 200.81
  L 266.26 200.83
  Q 265.68 200.83 265.81 200.27
  L 268.06 191.10
  Q 268.21 190.50 267.59 190.50
  Z
  M 244.43 191.55
  Q 249.44 188.73 254.64 186.17
  Q 256.70 185.16 259.07 185.17
  Q 267.47 185.21 275.95 185.17
  Q 276.78 185.17 276.19 184.58
  Q 274.54 182.93 271.24 182.91
  Q 264.64 182.86 257.99 182.95
  C 253.56 183.01 246.45 187.77 242.38 189.88
  Q 241.97 190.09 241.86 190.53
  L 233.48 224.47
  A 0.84 0.83 -67.0 0 0 233.84 225.37
  L 234.96 226.08
  Q 235.43 226.39 235.57 225.84
  L 243.90 192.24
  Q 244.02 191.78 244.43 191.55
  Z
  M 269.03 198.14
  L 270.83 198.60
  A 0.24 0.24 0.0 0 0 271.12 198.43
  L 272.80 191.85
  A 1.17 1.03 -75.7 0 0 272.09 190.46
  L 271.82 190.39
  A 1.17 1.03 -75.7 0 0 270.53 191.27
  L 268.85 197.85
  A 0.24 0.24 0.0 0 0 269.03 198.14
  Z
  M 266.78 215.97
  A 0.46 0.46 0.0 0 1 267.23 215.62
  L 276.49 215.67
  A 0.46 0.46 0.0 0 0 276.95 215.23
  L 277.03 213.80
  A 0.46 0.46 0.0 0 0 276.57 213.32
  L 265.36 213.33
  A 0.46 0.46 0.0 0 0 264.91 213.68
  L 261.90 226.14
  A 0.46 0.46 0.0 0 1 261.45 226.49
  L 248.05 226.46
  A 0.46 0.46 0.0 0 0 247.61 226.80
  L 247.26 228.10
  A 0.46 0.46 0.0 0 0 247.70 228.68
  L 263.32 228.69
  A 0.46 0.46 0.0 0 0 263.77 228.34
  L 266.78 215.97
  Z"
/>
<path fill="#b49559" d="
  M 322.91 182.75
  L 295.11 182.77
  Q 294.43 182.77 294.92 183.24
  L 295.60 183.89
  Q 296.02 184.30 295.88 184.86
  L 284.57 231.01
  Q 284.44 231.54 284.99 231.59
  L 286.16 231.67
  Q 286.82 231.72 286.97 231.09
  L 298.19 185.46
  A 0.34 0.34 0.0 0 1 298.52 185.20
  L 324.41 185.11
  C 329.08 189.98 336.18 187.06 337.25 180.66
  Q 337.33 180.16 337.83 180.23
  L 338.18 180.28
  Q 338.58 180.33 338.48 180.72
  L 336.29 189.98
  A 0.53 0.53 0.0 0 1 335.78 190.38
  L 303.57 190.37
  Q 302.44 190.37 303.33 191.07
  L 307.84 194.62
  A 0.83 0.81 -63.8 0 1 308.12 195.48
  L 306.87 200.26
  A 0.41 0.41 0.0 0 0 307.27 200.78
  L 325.95 200.78
  Q 326.19 200.78 326.13 201.01
  L 323.89 210.43
  A 0.41 0.41 0.0 0 1 323.49 210.75
  L 304.78 210.75
  Q 304.30 210.75 304.19 211.21
  L 298.82 233.27
  Q 298.66 233.93 297.98 233.93
  L 281.81 233.93
  A 0.31 0.31 0.0 0 1 281.51 233.55
  L 293.25 185.72
  Q 293.39 185.15 292.94 184.79
  L 288.06 180.95
  Q 287.44 180.46 288.23 180.46
  L 321.77 180.44
  Q 322.27 180.44 322.47 180.90
  Q 322.85 181.76 322.91 182.75
  Z
  M 322.29 205.52
  A 0.44 0.44 0.0 0 0 322.71 205.19
  L 323.08 203.71
  A 0.44 0.44 0.0 0 0 322.65 203.16
  L 306.42 203.21
  A 0.44 0.44 0.0 0 0 305.99 203.57
  L 305.73 205.00
  A 0.44 0.44 0.0 0 0 306.16 205.52
  L 322.29 205.52
  Z"
/>
<path fill="#ffffff" d="
  M 322.91 182.75
  L 324.41 185.11
  L 298.52 185.20
  A 0.34 0.34 0.0 0 0 298.19 185.46
  L 286.97 231.09
  Q 286.82 231.72 286.16 231.67
  L 284.99 231.59
  Q 284.44 231.54 284.57 231.01
  L 295.88 184.86
  Q 296.02 184.30 295.60 183.89
  L 294.92 183.24
  Q 294.43 182.77 295.11 182.77
  L 322.91 182.75
  Z"
/>
<path fill="#ffffff" d="
  M 279.68 244.03
  L 275.97 244.20
  Q 275.68 244.22 275.74 243.93
  L 276.23 241.56
  Q 276.31 241.18 276.69 241.18
  L 288.84 241.14
  Q 289.05 241.14 289.01 241.35
  L 288.40 244.07
  Q 288.36 244.26 288.16 244.25
  L 284.27 243.99
  Q 283.75 243.95 283.63 244.47
  L 281.80 252.52
  A 0.36 0.36 0.0 0 1 281.45 252.81
  L 278.31 252.79
  Q 278.12 252.79 278.17 252.60
  L 280.19 244.67
  Q 280.36 244.00 279.68 244.03
  Z"
/>
<path fill="#ffffff" d="
  M 180.61 244.99
  A 0.30 0.30 0.0 0 0 181.08 245.32
  L 186.48 241.23
  A 0.46 0.43 26.7 0 1 186.78 241.14
  L 191.16 241.27
  A 0.09 0.08 27.7 0 1 191.21 241.42
  L 185.90 245.12
  Q 185.42 245.46 185.65 246.00
  L 188.39 252.40
  Q 188.56 252.81 188.12 252.80
  L 184.89 252.78
  Q 184.40 252.78 184.22 252.32
  L 182.75 248.31
  Q 182.58 247.83 182.10 248.00
  Q 179.07 249.06 179.14 252.27
  Q 179.15 252.82 178.59 252.82
  L 175.64 252.78
  Q 175.29 252.78 175.38 252.44
  L 178.02 241.66
  Q 178.14 241.17 178.64 241.18
  L 181.26 241.23
  Q 181.75 241.24 181.61 241.71
  L 180.61 244.99
  Z"
/>
<path fill="#ffffff" d="
  M 200.95 245.84
  L 199.39 252.55
  Q 199.33 252.83 199.04 252.83
  L 196.37 252.80
  Q 196.23 252.80 196.26 252.67
  L 199.00 241.58
  Q 199.09 241.20 199.48 241.20
  L 203.12 241.16
  Q 203.62 241.16 203.56 241.65
  Q 203.55 241.80 203.53 241.94
  Q 203.49 242.36 203.74 242.70
  L 206.90 247.19
  Q 207.26 247.71 207.40 247.09
  L 208.66 241.47
  Q 208.73 241.14 209.06 241.16
  L 211.82 241.26
  Q 211.89 241.26 211.87 241.33
  L 209.05 252.40
  Q 208.95 252.79 208.55 252.79
  L 206.01 252.80
  Q 205.55 252.81 205.51 252.35
  Q 205.49 252.05 205.46 251.78
  Q 205.44 251.54 205.30 251.34
  Q 203.33 248.56 201.48 245.75
  A 0.29 0.29 0.0 0 0 200.95 245.84
  Z"
/>
<path fill="#ffffff" d="
  M 224.44 241.62
  L 221.77 252.56
  A 0.31 0.31 0.0 0 1 221.47 252.80
  L 218.58 252.80
  A 0.31 0.31 0.0 0 1 218.27 252.42
  L 220.99 241.41
  A 0.31 0.31 0.0 0 1 221.30 241.17
  L 224.14 241.23
  A 0.31 0.31 0.0 0 1 224.44 241.62
  Z"
/>
<path fill="#ffffff" d="
  M 240.47 248.61
  Q 239.80 248.41 238.42 249.08
  A 0.30 0.30 0.0 0 1 237.99 248.76
  L 238.34 246.98
  Q 238.44 246.46 238.97 246.46
  L 245.26 246.50
  Q 245.83 246.50 245.56 247.00
  Q 244.61 248.73 244.72 250.71
  Q 244.75 251.28 244.22 251.50
  C 240.69 253.00 232.02 254.97 230.89 249.02
  Q 230.44 246.66 231.88 244.86
  C 235.86 239.87 239.73 240.92 245.37 241.83
  Q 245.91 241.92 245.58 242.35
  L 243.87 244.55
  Q 243.56 244.95 243.14 244.67
  C 239.84 242.46 233.59 243.93 234.59 248.83
  Q 234.69 249.34 235.12 249.61
  Q 237.59 251.18 240.51 250.08
  Q 242.70 249.26 240.47 248.61
  Z"
/>
<path fill="#ffffff" d="
  M 258.46 245.35
  L 263.07 245.34
  Q 263.59 245.34 263.78 244.85
  Q 264.38 243.29 264.41 241.64
  Q 264.43 241.17 264.90 241.17
  L 267.95 241.23
  Q 268.19 241.24 268.13 241.47
  L 265.44 252.51
  Q 265.37 252.81 265.07 252.81
  L 261.75 252.85
  Q 261.52 252.85 261.63 252.64
  Q 262.56 250.84 262.78 248.79
  Q 262.85 248.23 262.28 248.23
  L 257.78 248.20
  Q 257.24 248.20 257.05 248.70
  Q 256.32 250.56 256.24 252.53
  A 0.27 0.27 0.0 0 1 255.97 252.79
  L 252.68 252.82
  Q 252.48 252.82 252.53 252.63
  L 255.22 241.70
  Q 255.34 241.21 255.85 241.21
  L 258.38 241.22
  Q 258.82 241.22 258.72 241.65
  L 257.96 244.71
  Q 257.80 245.35 258.46 245.35
  Z"
/>
<path fill="#ffffff" d="
  M 299.76 245.17
  C 301.86 245.91 304.15 245.05 306.54 246.57
  Q 306.95 246.83 307.00 247.31
  C 307.75 254.24 297.75 253.45 293.63 252.01
  Q 293.19 251.86 293.46 251.49
  L 294.95 249.44
  Q 295.26 249.02 295.67 249.34
  C 297.69 250.92 299.55 250.71 302.00 250.58
  Q 303.33 250.52 303.59 249.27
  A 0.90 0.89 -83.9 0 0 302.73 248.19
  C 300.99 248.18 296.50 248.09 295.63 246.33
  C 294.45 243.97 297.41 241.79 299.51 241.26
  Q 303.04 240.37 307.95 242.03
  Q 308.15 242.10 308.04 242.29
  L 306.71 244.47
  Q 306.55 244.73 306.30 244.55
  Q 303.30 242.39 299.69 243.63
  Q 297.52 244.37 299.76 245.17
  Z"
/>
</g>
<g>
<path fill="#000000" d="
  M 253.18 107.53
  L 261.52 110.95
  A 0.22 0.22 0.0 0 1 261.65 111.20
  L 261.22 113.26
  A 0.22 0.22 0.0 0 1 260.89 113.40
  L 252.79 108.27
  A 0.22 0.22 0.0 0 1 252.71 107.98
  L 252.91 107.63
  A 0.22 0.22 0.0 0 1 253.18 107.53
  Z"
/>
<path fill="#000000" d="
  M 269.27 108.75
  A 0.46 0.46 0.0 0 1 269.73 109.54
  L 264.80 112.93
  Q 264.33 113.25 264.31 112.69
  L 264.28 111.87
  A 1.00 0.99 76.4 0 1 264.84 110.94
  L 269.27 108.75
  Z"
/>
<path fill="#000000" d="
  M 252.58 111.40
  L 260.40 114.65
  Q 261.00 114.90 260.85 115.53
  L 260.55 116.75
  Q 260.39 117.41 259.81 117.05
  Q 256.32 114.85 252.55 112.40
  Q 252.22 112.19 252.15 111.96
  Q 252.09 111.79 252.13 111.64
  Q 252.22 111.25 252.58 111.40
  Z"
/>
<path fill="#000000" d="
  M 263.74 116.97
  A 0.16 0.16 0.0 0 1 263.52 116.93
  L 263.49 116.89
  A 3.53 1.29 -33.4 0 1 265.73 113.87
  L 266.01 113.68
  A 3.53 1.29 -33.4 0 1 269.67 112.81
  L 269.69 112.86
  A 0.16 0.16 0.0 0 1 269.65 113.08
  L 263.74 116.97
  Z"
/>
<path fill="#000000" d="
  M 247.98 126.38
  A 0.26 0.26 0.0 0 1 247.74 126.65
  L 247.50 126.67
  A 1.52 1.46 -3.5 0 1 245.89 125.30
  L 245.87 124.98
  A 1.52 1.46 -3.5 0 1 247.30 123.43
  L 247.54 123.42
  A 0.26 0.26 0.0 0 1 247.82 123.66
  L 247.98 126.38
  Z"
/>
<path fill="#000000" d="
  M 269.78 127.86
  A 0.40 0.40 0.0 0 1 269.39 128.27
  L 269.23 128.27
  A 1.46 1.46 0.0 0 1 267.73 126.84
  L 267.73 126.52
  A 1.46 1.46 0.0 0 1 269.15 125.03
  L 269.31 125.03
  A 0.40 0.40 0.0 0 1 269.72 125.42
  L 269.78 127.86
  Z"
/>
<path fill="#000000" d="
  M 258.86 132.54
  A 0.25 0.25 0.0 0 1 258.62 132.79
  L 258.47 132.79
  A 1.62 1.45 -0.6 0 1 256.83 131.36
  L 256.83 130.98
  A 1.62 1.45 -0.6 0 1 258.43 129.51
  L 258.58 129.51
  A 0.25 0.25 0.0 0 1 258.84 129.76
  L 258.86 132.54
  Z"
/>
<path fill="#ffffff" d="
  M 192.82 185.40
  L 182.85 225.90
  A 0.31 0.31 0.0 0 1 182.37 226.07
  L 180.88 225.01
  A 0.31 0.31 0.0 0 1 180.76 224.69
  L 190.60 184.50
  A 0.31 0.31 0.0 0 0 190.51 184.20
  L 189.52 183.28
  A 0.31 0.31 0.0 0 1 189.74 182.74
  L 203.07 182.75
  A 0.31 0.31 0.0 0 1 203.37 183.14
  L 202.88 184.96
  A 0.31 0.31 0.0 0 1 202.58 185.19
  L 193.12 185.16
  A 0.31 0.31 0.0 0 0 192.82 185.40
  Z"
/>
<path fill="#ffffff" d="
  M 209.05 226.26
  L 219.27 184.52
  A 0.32 0.32 0.0 0 0 219.19 184.22
  L 218.28 183.28
  A 0.32 0.32 0.0 0 1 218.51 182.74
  L 231.77 182.75
  A 0.32 0.32 0.0 0 1 232.07 183.17
  L 231.48 184.96
  A 0.32 0.32 0.0 0 1 231.18 185.18
  L 221.76 185.19
  A 0.32 0.32 0.0 0 0 221.45 185.43
  L 210.90 228.52
  A 0.32 0.32 0.0 0 1 210.59 228.76
  L 194.93 228.74
  A 0.32 0.32 0.0 0 1 194.62 228.34
  L 195.04 226.69
  A 0.32 0.32 0.0 0 1 195.35 226.45
  L 208.74 226.50
  A 0.32 0.32 0.0 0 0 209.05 226.26
  Z"
/>
<path fill="#ffffff" d="
  M 243.90 192.24
  L 235.57 225.84
  Q 235.43 226.39 234.96 226.08
  L 233.84 225.37
  A 0.84 0.83 -67.0 0 1 233.48 224.47
  L 241.86 190.53
  Q 241.97 190.09 242.38 189.88
  C 246.45 187.77 253.56 183.01 257.99 182.95
  Q 264.64 182.86 271.24 182.91
  Q 274.54 182.93 276.19 184.58
  Q 276.78 185.17 275.95 185.17
  Q 267.47 185.21 259.07 185.17
  Q 256.70 185.16 254.64 186.17
  Q 249.44 188.73 244.43 191.55
  Q 244.02 191.78 243.90 192.24
  Z"
/>
<path fill="#ffffff" d="
  M 269.03 198.14
  A 0.24 0.24 0.0 0 1 268.85 197.85
  L 270.53 191.27
  A 1.17 1.03 -75.7 0 1 271.82 190.39
  L 272.09 190.46
  A 1.17 1.03 -75.7 0 1 272.80 191.85
  L 271.12 198.43
  A 0.24 0.24 0.0 0 1 270.83 198.60
  L 269.03 198.14
  Z"
/>
<path fill="#ffffff" d="
  M 322.29 205.52
  L 306.16 205.52
  A 0.44 0.44 0.0 0 1 305.73 205.00
  L 305.99 203.57
  A 0.44 0.44 0.0 0 1 306.42 203.21
  L 322.65 203.16
  A 0.44 0.44 0.0 0 1 323.08 203.71
  L 322.71 205.19
  A 0.44 0.44 0.0 0 1 322.29 205.52
  Z"
/>
<path fill="#ffffff" d="
  M 266.78 215.97
  L 263.77 228.34
  A 0.46 0.46 0.0 0 1 263.32 228.69
  L 247.70 228.68
  A 0.46 0.46 0.0 0 1 247.26 228.10
  L 247.61 226.80
  A 0.46 0.46 0.0 0 1 248.05 226.46
  L 261.45 226.49
  A 0.46 0.46 0.0 0 0 261.90 226.14
  L 264.91 213.68
  A 0.46 0.46 0.0 0 1 265.36 213.33
  L 276.57 213.32
  A 0.46 0.46 0.0 0 1 277.03 213.80
  L 276.95 215.23
  A 0.46 0.46 0.0 0 1 276.49 215.67
  L 267.23 215.62
  A 0.46 0.46 0.0 0 0 266.78 215.97
  Z"
/>
</g>
</svg>
