<?xml version="1.0" encoding="iso-8859-1"?>
<!-- Generator: Adobe Illustrator 27.0.0, SVG Export Plug-In . SVG Version: 6.00 Build 0)  -->
<svg version="1.1" id="Layer_1" xmlns="http://www.w3.org/2000/svg" xmlns:xlink="http://www.w3.org/1999/xlink" x="0px" y="0px"
	 viewBox="0 0 500 500" style="enable-background:new 0 0 500 500;" xml:space="preserve">
<g id="watermark_1_">
	<g>
		<g id="watermark" style="opacity:0.61;">
			<g>
				<g>
					<g>
						<g>
							<polygon style="fill:#FFFFFF;" points="213.765,461.172 208.204,474.017 205.268,474.017 199.726,461.172 202.938,461.172 
								206.846,470.347 210.81,461.172 							"/>
						</g>
						<g>
							<path style="fill:#FFFFFF;" d="M223.507,469.741h-7.469c0.275,1.23,1.321,1.982,2.826,1.982c1.046,0,1.798-0.312,2.477-0.954
								l1.523,1.651c-0.917,1.046-2.294,1.597-4.074,1.597c-3.413,0-5.634-2.147-5.634-5.083c0-2.954,2.257-5.083,5.267-5.083
								c2.899,0,5.138,1.945,5.138,5.12C223.562,469.191,223.526,469.503,223.507,469.741 M216.002,468.071h4.863
								c-0.202-1.248-1.138-2.055-2.422-2.055C217.139,466.016,216.204,466.805,216.002,468.071"/>
						</g>
						<g>
							<path style="fill:#FFFFFF;" d="M224.735,468.934c0-2.973,2.294-5.083,5.505-5.083c2.074,0,3.707,0.899,4.423,2.514
								l-2.22,1.193c-0.532-0.936-1.321-1.358-2.221-1.358c-1.45,0-2.587,1.009-2.587,2.734c0,1.725,1.138,2.734,2.587,2.734
								c0.899,0,1.688-0.404,2.221-1.358l2.22,1.211c-0.716,1.578-2.349,2.495-4.423,2.495
								C227.029,474.017,224.735,471.907,224.735,468.934"/>
						</g>
						<g>
							<path style="fill:#FFFFFF;" d="M242.828,473.393c-0.587,0.422-1.45,0.624-2.331,0.624c-2.33,0-3.688-1.193-3.688-3.542
								v-4.055h-1.523v-2.202h1.523v-2.404h2.863v2.404h2.459v2.202h-2.459v4.019c0,0.844,0.458,1.303,1.229,1.303
								c0.422,0,0.844-0.128,1.156-0.367L242.828,473.393z"/>
						</g>
					</g>
					<g>
						<path style="fill:#FFFFFF;" d="M262.474,463.997v2.643c-0.238-0.018-0.422-0.037-0.642-0.037
							c-1.578,0-2.624,0.862-2.624,2.753v4.661h-2.863v-9.873h2.734v1.303C259.776,464.493,260.951,463.997,262.474,463.997"/>
					</g>
					<g>
						<path style="fill:#FFFFFF;" d="M263.299,472.53l1.009-2.239c1.083,0.789,2.697,1.339,4.239,1.339
							c1.762,0,2.477-0.587,2.477-1.376c0-2.404-7.469-0.752-7.469-5.524c0-2.184,1.762-4,5.413-4c1.615,0,3.267,0.385,4.459,1.138
							l-0.918,2.257c-1.193-0.679-2.422-1.009-3.56-1.009c-1.761,0-2.44,0.66-2.44,1.468c0,2.367,7.468,0.734,7.468,5.45
							c0,2.147-1.78,3.982-5.45,3.982C266.492,474.017,264.437,473.411,263.299,472.53"/>
					</g>
					<g>
						<path style="fill:#FFFFFF;" d="M285.428,469.741h-7.469c0.275,1.23,1.321,1.982,2.826,1.982c1.046,0,1.798-0.312,2.477-0.954
							l1.523,1.651c-0.918,1.046-2.294,1.597-4.074,1.597c-3.413,0-5.634-2.147-5.634-5.083c0-2.954,2.257-5.083,5.267-5.083
							c2.9,0,5.138,1.945,5.138,5.12C285.484,469.191,285.447,469.503,285.428,469.741 M277.923,468.071h4.863
							c-0.202-1.248-1.138-2.055-2.422-2.055C279.061,466.016,278.125,466.805,277.923,468.071"/>
					</g>
					<g>
						<path style="fill:#FFFFFF;" d="M297.007,469.741h-7.469c0.275,1.23,1.321,1.982,2.826,1.982c1.046,0,1.798-0.312,2.477-0.954
							l1.523,1.651c-0.918,1.046-2.294,1.597-4.074,1.597c-3.413,0-5.634-2.147-5.634-5.083c0-2.954,2.257-5.083,5.267-5.083
							c2.899,0,5.138,1.945,5.138,5.12C297.062,469.191,297.025,469.503,297.007,469.741 M289.501,468.071h4.863
							c-0.202-1.248-1.138-2.055-2.422-2.055C290.639,466.016,289.703,466.805,289.501,468.071"/>
					</g>
					<g>
						<polygon style="fill:#FFFFFF;" points="303.208,470.145 301.831,471.503 301.831,474.017 298.969,474.017 298.969,460.401 
							301.831,460.401 301.831,468.108 306.016,464.144 309.429,464.144 305.318,468.328 309.796,474.017 306.327,474.017 						"/>
					</g>
					<g>
						<path style="fill:#FFFFFF;" d="M256.601,475.359L256.601,475.359l-2.86-2.86c-0.435,0.508-0.953,0.943-1.534,1.284
							c-0.092,0.069-0.186,0.136-0.283,0.199l3.027,3.027c0.456,0.456,1.195,0.456,1.65,0
							C257.057,476.554,257.057,475.815,256.601,475.359"/>
					</g>
					<g>
						<path style="fill:#FFFFFF;" d="M249.984,463.244c0.221-0.173,0.495-0.281,0.797-0.281c0.042,0,0.083,0.002,0.124,0.006
							c-0.214-0.156-0.478-0.249-0.764-0.249c-0.395,0-0.744,0.18-0.981,0.458c-0.051,0-0.1,0.006-0.151,0.008
							c0.039-0.077,0.064-0.162,0.064-0.255c0-0.234-0.143-0.434-0.346-0.519c0.087,0.126,0.138,0.279,0.138,0.445
							c0,0.122-0.031,0.237-0.081,0.341c-2.811,0.201-5.03,2.539-5.03,5.4c0,2.993,2.426,5.42,5.42,5.42
							c2.993,0,5.42-2.426,5.42-5.42C254.595,465.879,252.593,463.635,249.984,463.244 M247.983,464.656
							c0.435,0,0.844,0.112,1.199,0.309c0.374-0.245,0.82-0.387,1.299-0.387c0.711,0,1.348,0.312,1.784,0.806
							c-0.435-0.379-1.004-0.61-1.627-0.61c-0.449,0-0.87,0.12-1.234,0.329c-0.079,0.046-0.156,0.096-0.229,0.15
							c-0.065-0.048-0.133-0.093-0.204-0.134c-0.369-0.219-0.8-0.344-1.26-0.344c-0.3,0-0.588,0.054-0.854,0.152
							C247.196,464.754,247.578,464.656,247.983,464.656 M251.772,469.098c0.115,0.305,0.181,0.634,0.181,0.979
							c0,1.534-1.244,2.777-2.778,2.777c-1.534,0-2.777-1.243-2.777-2.777c0-0.345,0.066-0.674,0.181-0.979
							c-0.62-0.382-1.035-1.064-1.035-1.846c0-1.197,0.971-2.168,2.168-2.168c0.565,0,1.078,0.218,1.463,0.572
							c0.386-0.354,0.899-0.572,1.464-0.572c1.197,0,2.168,0.971,2.168,2.168C252.807,468.034,252.392,468.716,251.772,469.098"/>
					</g>
					<g>
						<path style="fill:#FFFFFF;" d="M251.666,467.061c0,0.497-0.404,0.901-0.901,0.901c-0.497,0-0.901-0.404-0.901-0.901
							s0.404-0.901,0.901-0.901c0.101,0,0.197,0.017,0.287,0.047c-0.03,0.062-0.045,0.132-0.045,0.204
							c0,0.273,0.221,0.494,0.494,0.494c0.05,0,0.099-0.008,0.146-0.022C251.66,466.941,251.666,467,251.666,467.061"/>
					</g>
					<g>
						<path style="fill:#FFFFFF;" d="M248.255,467.061c0,0.376-0.305,0.681-0.681,0.681c-0.376,0-0.681-0.305-0.681-0.681
							s0.305-0.681,0.681-0.681c0.076,0,0.149,0.013,0.217,0.035c-0.023,0.047-0.034,0.1-0.034,0.155
							c0,0.206,0.167,0.374,0.374,0.374c0.038,0,0.075-0.006,0.11-0.017C248.25,466.97,248.255,467.015,248.255,467.061"/>
					</g>
					<g>
						<g>
							<g>
								<rect x="242.908" y="467.83" style="fill:#FFFFFF;" width="0.616" height="0.616"/>
							</g>
							<g>
								<rect x="254.827" y="467.83" style="fill:#FFFFFF;" width="0.616" height="0.616"/>
							</g>
							<g>
								<path style="fill:#FFFFFF;" d="M255.205,468.082h-0.14c0-3.248-2.642-5.89-5.89-5.89c-3.248,0-5.89,2.642-5.89,5.89h-0.14
									c0-1.611,0.627-3.125,1.766-4.264c1.139-1.139,2.653-1.766,4.264-1.766c1.611,0,3.125,0.627,4.264,1.766
									C254.578,464.957,255.205,466.471,255.205,468.082"/>
							</g>
						</g>
						<g>
							<rect x="248.868" y="461.814" style="fill:#FFFFFF;" width="0.616" height="0.616"/>
						</g>
						<g>
							<rect x="244.95" y="462.052" style="fill:#FFFFFF;" width="8.45" height="0.14"/>
						</g>
						<g>
							<path style="fill:#FFFFFF;" d="M245.174,462.15c0,0.108-0.088,0.196-0.196,0.196c-0.108,0-0.196-0.088-0.196-0.196
								c0-0.108,0.088-0.196,0.196-0.196C245.086,461.954,245.174,462.042,245.174,462.15"/>
						</g>
						<g>
							<path style="fill:#FFFFFF;" d="M253.596,462.15c0,0.108-0.088,0.196-0.196,0.196c-0.108,0-0.196-0.088-0.196-0.196
								c0-0.108,0.088-0.196,0.196-0.196C253.509,461.954,253.596,462.042,253.596,462.15"/>
						</g>
					</g>
				</g>
				<g>
					<path style="fill:#FFFFFF;" d="M314.356,473.409c0,1.559-2.364,1.559-2.364,0C311.993,471.851,314.356,471.851,314.356,473.409
						z"/>
				</g>
				<g>
					<g>
						<g>
							<path style="fill:#FFFFFF;" d="M161.739,466.549l1.772,6.088l1.855-6.088h2.215l-2.823,8.14h-2.33l-0.837-2.396l-0.722-2.708
								l-0.722,2.708l-0.837,2.396h-2.33l-2.839-8.14h2.231l1.855,6.088l1.756-6.088H161.739z"/>
						</g>
						<g>
							<path style="fill:#FFFFFF;" d="M176.713,466.549l1.772,6.088l1.855-6.088h2.215l-2.823,8.14h-2.33l-0.837-2.396l-0.722-2.708
								l-0.722,2.708l-0.837,2.396h-2.33l-2.839-8.14h2.231l1.855,6.088l1.756-6.088H176.713z"/>
						</g>
						<g>
							<path style="fill:#FFFFFF;" d="M191.687,466.549l1.772,6.088l1.855-6.088h2.215l-2.823,8.14h-2.33l-0.837-2.396l-0.722-2.708
								l-0.722,2.708l-0.837,2.396h-2.33l-2.839-8.14h2.231l1.855,6.088l1.756-6.088H191.687z"/>
						</g>
					</g>
					<g>
						<path style="fill:#FFFFFF;" d="M200.908,473.52c0,1.559-2.364,1.559-2.364,0C198.545,471.962,200.908,471.962,200.908,473.52z
							"/>
					</g>
					<g>
						<path style="fill:#FFFFFF;" d="M322.71,473.409c-0.935,0.919-1.919,1.28-3.117,1.28c-2.346,0-4.3-1.411-4.3-4.282
							s1.953-4.284,4.3-4.284c1.149,0,2.035,0.329,2.921,1.199l-1.264,1.329c-0.476-0.428-1.066-0.64-1.623-0.64
							c-1.346,0-2.33,0.985-2.33,2.396c0,1.542,1.05,2.362,2.297,2.362c0.64,0,1.28-0.18,1.772-0.672L322.71,473.409z"/>
					</g>
					<g>
						<path style="fill:#FFFFFF;" d="M331.805,470.472c0,2.33-1.591,4.217-4.217,4.217c-2.626,0-4.201-1.887-4.201-4.217
							c0-2.314,1.609-4.217,4.185-4.217C330.149,466.255,331.805,468.158,331.805,470.472z M325.389,470.472
							c0,1.231,0.739,2.38,2.199,2.38c1.46,0,2.199-1.149,2.199-2.38c0-1.215-0.854-2.396-2.199-2.396
							C326.144,468.077,325.389,469.258,325.389,470.472z"/>
					</g>
					<g>
						<path style="fill:#FFFFFF;" d="M338.572,474.689v-4.332c0-1.068-0.559-2.035-1.658-2.035c-1.082,0-1.722,0.967-1.722,2.035
							v4.332h-2.003v-8.107h1.855l0.148,0.985c0.426-0.82,1.362-1.116,2.133-1.116c0.969,0,1.937,0.394,2.396,1.51
							c0.723-1.149,1.658-1.478,2.708-1.478c2.297,0,3.43,1.412,3.43,3.84v4.365h-2.003v-4.365c0-1.066-0.442-1.97-1.526-1.97
							c-1.082,0-1.756,0.935-1.756,2.003v4.332H338.572z"/>
					</g>
				</g>
			</g>
		</g>
		<g style="opacity:0.61;">
			<g>
				<g>
					<path style="fill:#FFFFFF;" d="M345.988,431.299c-0.006-1.224-0.959-2.121-2.189-2.14c-0.924-0.014-0.832,0.12-0.834-0.867
						c-0.003-1.097-0.007-2.194,0.003-3.292c0.003-0.379-0.112-0.691-0.362-0.976c-2.342-2.668-4.678-5.342-7.019-8.011
						c-0.12-0.137-0.275-0.244-0.414-0.366c-6.214,0-12.427,0-18.641,0c-0.794,0.293-1.14,0.868-1.138,1.709
						c0.01,3.748,0.004,7.496,0.004,11.243c0,0.556-0.003,0.589-0.55,0.551c-1.497-0.102-2.516,0.986-2.497,2.492
						c0.044,3.476,0.013,6.953,0.014,10.429c0.001,1.58,0.867,2.443,2.45,2.449c0.582,0.002,0.582,0.002,0.582,0.6
						c0,2.219-0.001,4.438,0.001,6.657c0.001,1.192,0.58,1.771,1.768,1.771c8.013,0.001,16.027,0.001,24.04,0
						c1.168,0,1.755-0.583,1.757-1.745c0.002-2.256,0-4.512,0.001-6.768c0-0.512,0.002-0.511,0.52-0.515
						c0.271-0.002,0.541,0.008,0.809-0.058c0.996-0.246,1.69-1.044,1.694-2.069C346.003,438.696,346.005,434.997,345.988,431.299z
						 M317.537,417.162c5.337,0,10.674,0,16.01,0c0.548,0,0.554,0.007,0.554,0.561c0.001,2.243-0.001,4.486,0.001,6.73
						c0.001,0.811,0.249,1.059,1.06,1.059c1.91,0.001,3.821,0,5.731,0.001c0.458,0,0.479,0.021,0.481,0.483
						c0.003,0.887,0.002,1.775,0,2.662c-0.001,0.477-0.024,0.498-0.504,0.499c-3.895,0.001-7.79,0-11.684,0
						c-3.882,0-7.765,0-11.647,0c-0.55,0-0.552-0.001-0.552-0.561c-0.001-3.624-0.001-7.247,0-10.871
						C316.987,417.166,316.991,417.162,317.537,417.162z M340.822,451.579c-3.883,0.001-7.766,0-11.65,0c-3.871,0-7.742,0-11.613,0
						c-0.572,0-0.574-0.002-0.574-0.579c-0.001-1.997-0.001-3.994,0.001-5.991c0-0.464,0.023-0.486,0.478-0.487
						c7.803-0.001,15.607-0.001,23.41,0c0.478,0,0.499,0.02,0.499,0.503c0.002,1.997,0.001,3.994,0,5.991
						C341.375,451.574,341.37,451.579,340.822,451.579z"/>
				</g>
				<g>
					<g>
						<rect x="327.418" y="417.053" style="fill:#FFFFFF;" width="1.757" height="1.054"/>
					</g>
					<g>
						<rect x="325.662" y="418.107" style="fill:#FFFFFF;" width="1.757" height="1.054"/>
					</g>
					<g>
						<rect x="327.418" y="419.161" style="fill:#FFFFFF;" width="1.757" height="1.054"/>
					</g>
					<g>
						<rect x="325.662" y="420.215" style="fill:#FFFFFF;" width="1.757" height="1.054"/>
					</g>
					<g>
						<rect x="327.418" y="421.269" style="fill:#FFFFFF;" width="1.757" height="1.054"/>
					</g>
					<g>
						<rect x="325.662" y="422.323" style="fill:#FFFFFF;" width="1.757" height="1.054"/>
					</g>
					<g>
						<rect x="327.418" y="423.378" style="fill:#FFFFFF;" width="1.757" height="1.054"/>
					</g>
					<g>
						<rect x="325.662" y="424.432" style="fill:#FFFFFF;" width="1.757" height="1.054"/>
					</g>
					<g>
						<rect x="327.418" y="425.486" style="fill:#FFFFFF;" width="1.757" height="1.054"/>
					</g>
					<g>
						<rect x="325.662" y="426.54" style="fill:#FFFFFF;" width="1.757" height="1.054"/>
					</g>
					<g>
						<rect x="327.418" y="427.594" style="fill:#FFFFFF;" width="1.757" height="1.054"/>
					</g>
					<g>
						<rect x="325.662" y="428.648" style="fill:#FFFFFF;" width="1.757" height="1.054"/>
					</g>
				</g>
			</g>
			<g>
				<path style="fill:#FFFFFF;" d="M187.637,431.299c-0.006-1.224-0.959-2.121-2.189-2.14c-0.924-0.014-0.832,0.12-0.834-0.867
					c-0.003-1.097-0.007-2.194,0.003-3.292c0.003-0.379-0.112-0.691-0.362-0.976c-2.342-2.668-4.678-5.342-7.019-8.011
					c-0.12-0.137-0.275-0.244-0.414-0.366c-6.214,0-12.427,0-18.641,0c-0.794,0.293-1.14,0.868-1.138,1.709
					c0.01,3.748,0.004,7.496,0.004,11.243c0,0.556-0.003,0.589-0.55,0.551c-1.497-0.102-2.516,0.986-2.497,2.492
					c0.044,3.476,0.013,6.953,0.014,10.429c0.001,1.58,0.867,2.443,2.45,2.449c0.582,0.002,0.582,0.002,0.582,0.6
					c0,2.219-0.001,4.438,0.001,6.657c0.001,1.192,0.58,1.771,1.768,1.771c8.013,0.001,16.027,0.001,24.04,0
					c1.168,0,1.755-0.583,1.757-1.745c0.002-2.256,0-4.512,0.001-6.768c0-0.512,0.002-0.511,0.52-0.515
					c0.271-0.002,0.541,0.008,0.809-0.058c0.996-0.246,1.69-1.044,1.694-2.069C187.652,438.696,187.655,434.997,187.637,431.299z
					 M159.187,417.162c5.337,0,10.674,0,16.01,0c0.548,0,0.554,0.007,0.554,0.561c0.001,2.243-0.001,4.486,0.001,6.73
					c0.001,0.811,0.249,1.059,1.06,1.059c1.91,0.001,3.821,0,5.731,0.001c0.458,0,0.479,0.021,0.481,0.483
					c0.003,0.887,0.002,1.775,0,2.662c-0.001,0.477-0.024,0.498-0.504,0.499c-3.895,0.001-7.79,0-11.684,0
					c-3.882,0-7.765,0-11.647,0c-0.55,0-0.552-0.001-0.552-0.561c-0.001-3.624-0.001-7.247,0-10.871
					C158.636,417.166,158.64,417.162,159.187,417.162z M182.472,451.579c-3.883,0.001-7.766,0-11.65,0c-3.871,0-7.742,0-11.613,0
					c-0.572,0-0.574-0.002-0.574-0.579c-0.001-1.997-0.001-3.994,0.001-5.991c0-0.464,0.023-0.486,0.478-0.487
					c7.803-0.001,15.607-0.001,23.41,0c0.478,0,0.499,0.02,0.499,0.503c0.002,1.997,0.001,3.994,0,5.991
					C183.024,451.574,183.019,451.579,182.472,451.579z"/>
			</g>
			<g>
				<path style="fill:#FFFFFF;" d="M159.779,440.669v-7.897h2.779c0.375,0,0.726,0.061,1.053,0.182
					c0.327,0.121,0.612,0.292,0.855,0.513c0.242,0.221,0.434,0.483,0.573,0.789c0.14,0.305,0.21,0.642,0.21,1.009
					c0,0.375-0.07,0.715-0.21,1.02c-0.14,0.305-0.331,0.568-0.573,0.789c-0.243,0.221-0.528,0.392-0.855,0.513
					c-0.327,0.121-0.678,0.182-1.053,0.182h-1.29v2.901H159.779z M162.58,436.356c0.39,0,0.684-0.111,0.882-0.331
					c0.199-0.22,0.298-0.474,0.298-0.761c0-0.14-0.024-0.276-0.072-0.408c-0.048-0.132-0.121-0.248-0.221-0.347
					c-0.099-0.099-0.223-0.178-0.37-0.237c-0.147-0.059-0.32-0.089-0.518-0.089h-1.312v2.173H162.58z"/>
				<path style="fill:#FFFFFF;" d="M166.308,432.771h1.731l3.177,5.294h0.088l-0.088-1.522v-3.772h1.478v7.897h-1.566l-3.353-5.592
					h-0.088l0.088,1.522v4.07h-1.467V432.771z"/>
				<path style="fill:#FFFFFF;" d="M177.922,436.334h3.872c0.022,0.089,0.04,0.195,0.055,0.32c0.014,0.125,0.022,0.25,0.022,0.375
					c0,0.507-0.077,0.985-0.231,1.434c-0.154,0.449-0.397,0.849-0.728,1.202c-0.353,0.375-0.776,0.666-1.268,0.871
					c-0.493,0.206-1.055,0.309-1.688,0.309c-0.574,0-1.114-0.103-1.622-0.309c-0.507-0.206-0.948-0.492-1.323-0.86
					c-0.375-0.367-0.673-0.803-0.894-1.307c-0.221-0.504-0.331-1.053-0.331-1.649c0-0.595,0.11-1.145,0.331-1.649
					c0.221-0.504,0.518-0.939,0.894-1.307c0.375-0.367,0.816-0.654,1.323-0.86c0.507-0.206,1.048-0.309,1.622-0.309
					c0.64,0,1.211,0.11,1.715,0.331c0.504,0.221,0.935,0.526,1.296,0.915l-1.025,1.004c-0.258-0.272-0.544-0.48-0.861-0.623
					c-0.316-0.143-0.695-0.215-1.136-0.215c-0.361,0-0.703,0.065-1.026,0.193c-0.324,0.129-0.607,0.311-0.85,0.546
					c-0.242,0.235-0.436,0.52-0.579,0.855c-0.143,0.335-0.215,0.708-0.215,1.119c0,0.412,0.072,0.785,0.215,1.12
					c0.143,0.335,0.338,0.62,0.584,0.855c0.246,0.235,0.531,0.418,0.855,0.546c0.323,0.129,0.669,0.193,1.037,0.193
					c0.419,0,0.773-0.061,1.064-0.182c0.29-0.121,0.538-0.278,0.744-0.469c0.148-0.132,0.275-0.3,0.381-0.502
					c0.106-0.202,0.189-0.428,0.248-0.678h-2.482V436.334z"/>
			</g>
			<g>
				<path style="fill:#FFFFFF;" d="M224.019,431.299c-0.006-1.224-0.959-2.121-2.189-2.14c-0.924-0.014-0.832,0.12-0.834-0.867
					c-0.003-1.097-0.007-2.194,0.003-3.292c0.003-0.379-0.112-0.691-0.362-0.976c-2.342-2.668-4.678-5.342-7.019-8.011
					c-0.12-0.137-0.275-0.244-0.414-0.366c-6.214,0-12.427,0-18.641,0c-0.794,0.293-1.14,0.868-1.138,1.709
					c0.01,3.748,0.004,7.496,0.004,11.243c0,0.556-0.003,0.589-0.55,0.551c-1.497-0.102-2.516,0.986-2.497,2.492
					c0.044,3.476,0.013,6.953,0.014,10.429c0.001,1.58,0.867,2.443,2.45,2.449c0.582,0.002,0.582,0.002,0.582,0.6
					c0,2.219-0.001,4.438,0.001,6.657c0.001,1.192,0.58,1.771,1.768,1.771c8.013,0.001,16.027,0.001,24.04,0
					c1.168,0,1.755-0.583,1.757-1.745c0.002-2.256,0-4.512,0.001-6.768c0-0.512,0.002-0.511,0.52-0.515
					c0.271-0.002,0.541,0.008,0.809-0.058c0.997-0.246,1.69-1.044,1.694-2.069C224.034,438.696,224.036,434.997,224.019,431.299z
					 M195.568,417.162c5.337,0,10.674,0,16.01,0c0.548,0,0.554,0.007,0.554,0.561c0.001,2.243-0.001,4.486,0.001,6.73
					c0.001,0.811,0.249,1.059,1.06,1.059c1.91,0.001,3.821,0,5.731,0.001c0.458,0,0.479,0.021,0.481,0.483
					c0.003,0.887,0.002,1.775,0,2.662c-0.001,0.477-0.024,0.498-0.504,0.499c-3.895,0.001-7.79,0-11.684,0
					c-3.882,0-7.765,0-11.647,0c-0.55,0-0.552-0.001-0.552-0.561c-0.001-3.624-0.001-7.247,0-10.871
					C195.018,417.166,195.022,417.162,195.568,417.162z M218.854,451.579c-3.883,0.001-7.766,0-11.65,0c-3.871,0-7.742,0-11.613,0
					c-0.572,0-0.574-0.002-0.574-0.579c-0.001-1.997-0.001-3.994,0.001-5.991c0-0.464,0.023-0.486,0.478-0.487
					c7.803-0.001,15.607-0.001,23.41,0c0.478,0,0.499,0.02,0.499,0.503c0.002,1.997,0.001,3.994,0,5.991
					C219.406,451.574,219.401,451.579,218.854,451.579z"/>
			</g>
			<g>
				<path style="fill:#FFFFFF;" d="M205.111,432.771h1.699l2.967,7.897h-1.644l-0.651-1.886h-3.044l-0.651,1.886h-1.643
					L205.111,432.771z M206.997,437.415l-0.706-1.974l-0.287-0.96h-0.088l-0.287,0.96l-0.706,1.974H206.997z"/>
				<path style="fill:#FFFFFF;" d="M211.331,434.536c-0.125,0-0.245-0.024-0.359-0.072c-0.114-0.048-0.213-0.114-0.298-0.199
					c-0.084-0.084-0.151-0.182-0.198-0.292c-0.048-0.11-0.072-0.232-0.072-0.364s0.024-0.254,0.072-0.364
					c0.048-0.11,0.114-0.208,0.198-0.292c0.084-0.084,0.184-0.151,0.298-0.198c0.114-0.048,0.233-0.072,0.359-0.072
					c0.257,0,0.478,0.09,0.662,0.27c0.184,0.181,0.276,0.399,0.276,0.656s-0.092,0.476-0.276,0.656
					C211.809,434.446,211.589,434.536,211.331,434.536z M210.615,440.669v-5.404h1.445v5.404H210.615z"/>
			</g>
			<g>
				<path style="fill:#FFFFFF;" d="M261.044,431.299c-0.006-1.224-0.959-2.121-2.189-2.14c-0.924-0.014-0.832,0.12-0.834-0.867
					c-0.003-1.097-0.007-2.194,0.003-3.292c0.003-0.379-0.112-0.691-0.362-0.976c-2.342-2.668-4.678-5.342-7.019-8.011
					c-0.12-0.137-0.275-0.244-0.414-0.366c-6.214,0-12.427,0-18.641,0c-0.794,0.293-1.14,0.868-1.138,1.709
					c0.01,3.748,0.004,7.496,0.004,11.243c0,0.556-0.003,0.589-0.55,0.551c-1.497-0.102-2.516,0.986-2.497,2.492
					c0.044,3.476,0.013,6.953,0.014,10.429c0.001,1.58,0.867,2.443,2.45,2.449c0.582,0.002,0.582,0.002,0.582,0.6
					c0,2.219-0.001,4.438,0.001,6.657c0.001,1.192,0.58,1.771,1.768,1.771c8.013,0.001,16.027,0.001,24.04,0
					c1.168,0,1.755-0.583,1.757-1.745c0.002-2.256,0-4.512,0.001-6.768c0-0.512,0.002-0.511,0.52-0.515
					c0.271-0.002,0.541,0.008,0.809-0.058c0.996-0.246,1.69-1.044,1.694-2.069C261.059,438.696,261.061,434.997,261.044,431.299z
					 M232.593,417.162c5.337,0,10.674,0,16.01,0c0.548,0,0.554,0.007,0.554,0.561c0.001,2.243-0.001,4.486,0.001,6.73
					c0.001,0.811,0.249,1.059,1.06,1.059c1.91,0.001,3.821,0,5.731,0.001c0.458,0,0.479,0.021,0.481,0.483
					c0.003,0.887,0.002,1.775,0,2.662c-0.001,0.477-0.024,0.498-0.504,0.499c-3.895,0.001-7.79,0-11.684,0
					c-3.882,0-7.765,0-11.647,0c-0.55,0-0.552-0.001-0.552-0.561c-0.001-3.624-0.001-7.247,0-10.871
					C232.042,417.166,232.047,417.162,232.593,417.162z M255.878,451.579c-3.883,0.001-7.766,0-11.65,0c-3.871,0-7.742,0-11.613,0
					c-0.572,0-0.574-0.002-0.574-0.579c-0.001-1.997-0.001-3.994,0.001-5.991c0-0.464,0.023-0.486,0.478-0.487
					c7.803-0.001,15.607-0.001,23.41,0c0.478,0,0.499,0.02,0.499,0.503c0.002,1.997,0.001,3.994,0,5.991
					C256.431,451.574,256.426,451.579,255.878,451.579z"/>
			</g>
			<g>
				<path style="fill:#FFFFFF;" d="M236.361,440.845c-0.338,0-0.662-0.048-0.971-0.143c-0.309-0.095-0.592-0.239-0.849-0.43
					c-0.257-0.191-0.481-0.425-0.673-0.7c-0.191-0.276-0.342-0.597-0.452-0.965l1.401-0.551c0.103,0.397,0.283,0.726,0.54,0.987
					c0.257,0.261,0.596,0.392,1.015,0.392c0.154,0,0.303-0.02,0.447-0.061c0.143-0.04,0.272-0.099,0.386-0.176
					s0.204-0.175,0.27-0.292c0.066-0.118,0.099-0.254,0.099-0.408c0-0.147-0.026-0.279-0.077-0.397
					c-0.051-0.117-0.138-0.227-0.259-0.331c-0.121-0.103-0.28-0.202-0.475-0.298c-0.195-0.095-0.435-0.195-0.722-0.298l-0.485-0.176
					c-0.213-0.073-0.429-0.173-0.645-0.298c-0.217-0.125-0.413-0.276-0.59-0.452c-0.177-0.176-0.322-0.384-0.436-0.623
					c-0.114-0.239-0.171-0.509-0.171-0.81c0-0.309,0.06-0.597,0.182-0.866c0.121-0.268,0.294-0.503,0.518-0.706
					c0.224-0.202,0.492-0.36,0.805-0.474s0.66-0.171,1.042-0.171c0.397,0,0.74,0.053,1.031,0.16
					c0.291,0.107,0.537,0.243,0.739,0.408c0.202,0.165,0.366,0.348,0.491,0.546c0.125,0.199,0.217,0.386,0.276,0.563l-1.312,0.551
					c-0.074-0.221-0.208-0.419-0.402-0.596c-0.195-0.176-0.462-0.265-0.8-0.265c-0.324,0-0.592,0.075-0.805,0.226
					c-0.213,0.151-0.32,0.348-0.32,0.59c0,0.235,0.103,0.436,0.309,0.601c0.206,0.165,0.533,0.325,0.982,0.48l0.497,0.165
					c0.316,0.111,0.605,0.237,0.866,0.381c0.261,0.143,0.485,0.314,0.673,0.513c0.187,0.199,0.331,0.425,0.43,0.678
					c0.1,0.254,0.149,0.546,0.149,0.877c0,0.412-0.083,0.767-0.248,1.064c-0.165,0.298-0.377,0.542-0.634,0.734
					c-0.258,0.191-0.548,0.335-0.872,0.43C236.986,440.797,236.67,440.845,236.361,440.845z"/>
				<path style="fill:#FFFFFF;" d="M239.516,432.771h1.61l1.633,4.754l0.287,1.015h0.088l0.309-1.015l1.699-4.754h1.61l-2.879,7.897
					h-1.566L239.516,432.771z"/>
				<path style="fill:#FFFFFF;" d="M251.097,436.334h3.871c0.022,0.089,0.04,0.195,0.055,0.32c0.015,0.125,0.023,0.25,0.023,0.375
					c0,0.507-0.078,0.985-0.232,1.434c-0.154,0.449-0.397,0.849-0.728,1.202c-0.353,0.375-0.775,0.666-1.268,0.871
					c-0.493,0.206-1.055,0.309-1.688,0.309c-0.574,0-1.114-0.103-1.621-0.309c-0.507-0.206-0.949-0.492-1.324-0.86
					c-0.375-0.367-0.673-0.803-0.894-1.307c-0.22-0.504-0.331-1.053-0.331-1.649c0-0.595,0.11-1.145,0.331-1.649
					c0.221-0.504,0.518-0.939,0.894-1.307c0.375-0.367,0.816-0.654,1.324-0.86c0.507-0.206,1.047-0.309,1.621-0.309
					c0.64,0,1.211,0.11,1.715,0.331c0.504,0.221,0.936,0.526,1.296,0.915l-1.026,1.004c-0.257-0.272-0.544-0.48-0.861-0.623
					c-0.316-0.143-0.694-0.215-1.136-0.215c-0.36,0-0.702,0.065-1.026,0.193c-0.323,0.129-0.607,0.311-0.849,0.546
					c-0.243,0.235-0.436,0.52-0.579,0.855c-0.143,0.335-0.215,0.708-0.215,1.119c0,0.412,0.072,0.785,0.215,1.12
					c0.143,0.335,0.338,0.62,0.585,0.855c0.246,0.235,0.531,0.418,0.854,0.546c0.324,0.129,0.669,0.193,1.037,0.193
					c0.419,0,0.774-0.061,1.064-0.182c0.29-0.121,0.539-0.278,0.745-0.469c0.147-0.132,0.274-0.3,0.38-0.502
					c0.107-0.202,0.189-0.428,0.248-0.678h-2.482V436.334z"/>
			</g>
			<g>
				<path style="fill:#FFFFFF;" d="M297.3,431.299c-0.006-1.224-0.959-2.121-2.189-2.14c-0.924-0.014-0.832,0.12-0.834-0.867
					c-0.003-1.097-0.007-2.194,0.003-3.292c0.003-0.379-0.112-0.691-0.362-0.976c-2.342-2.668-4.678-5.342-7.019-8.011
					c-0.12-0.137-0.275-0.244-0.414-0.366c-6.214,0-12.427,0-18.641,0c-0.794,0.293-1.14,0.868-1.138,1.709
					c0.01,3.748,0.004,7.496,0.004,11.243c0,0.556-0.003,0.589-0.55,0.551c-1.497-0.102-2.516,0.986-2.497,2.492
					c0.044,3.476,0.013,6.953,0.014,10.429c0.001,1.58,0.867,2.443,2.45,2.449c0.582,0.002,0.582,0.002,0.582,0.6
					c0,2.219-0.001,4.438,0.001,6.657c0.001,1.192,0.58,1.771,1.768,1.771c8.013,0.001,16.027,0.001,24.04,0
					c1.168,0,1.755-0.583,1.757-1.745c0.002-2.256,0-4.512,0.001-6.768c0-0.512,0.002-0.511,0.52-0.515
					c0.271-0.002,0.541,0.008,0.809-0.058c0.996-0.246,1.69-1.044,1.694-2.069C297.315,438.696,297.318,434.997,297.3,431.299z
					 M268.85,417.162c5.337,0,10.674,0,16.01,0c0.548,0,0.554,0.007,0.554,0.561c0.001,2.243-0.001,4.486,0.001,6.73
					c0.001,0.811,0.249,1.059,1.06,1.059c1.91,0.001,3.821,0,5.731,0.001c0.458,0,0.479,0.021,0.481,0.483
					c0.003,0.887,0.002,1.775,0,2.662c-0.001,0.477-0.024,0.498-0.504,0.499c-3.895,0.001-7.79,0-11.684,0
					c-3.882,0-7.765,0-11.647,0c-0.55,0-0.552-0.001-0.552-0.561c-0.001-3.624-0.001-7.247,0-10.871
					C268.299,417.166,268.303,417.162,268.85,417.162z M292.135,451.579c-3.883,0.001-7.766,0-11.65,0c-3.871,0-7.742,0-11.613,0
					c-0.572,0-0.574-0.002-0.574-0.579c-0.001-1.997-0.001-3.994,0.001-5.991c0-0.464,0.023-0.486,0.478-0.487
					c7.803-0.001,15.607-0.001,23.41,0c0.478,0,0.499,0.02,0.499,0.503c0.001,1.997,0.001,3.994,0,5.991
					C292.687,451.574,292.682,451.579,292.135,451.579z"/>
			</g>
			<g>
				<path style="fill:#FFFFFF;" d="M272.966,434.183v1.831h3.165v1.412h-3.165v1.831h3.518v1.412h-5.007v-7.897h5.007v1.412H272.966
					z"/>
				<path style="fill:#FFFFFF;" d="M277.852,440.669v-7.897h2.779c0.375,0,0.726,0.061,1.053,0.182
					c0.327,0.121,0.612,0.292,0.855,0.513c0.243,0.221,0.434,0.483,0.574,0.789c0.14,0.305,0.209,0.642,0.209,1.009
					c0,0.375-0.07,0.715-0.209,1.02c-0.14,0.305-0.331,0.568-0.574,0.789c-0.243,0.221-0.528,0.392-0.855,0.513
					c-0.327,0.121-0.678,0.182-1.053,0.182h-1.29v2.901H277.852z M280.653,436.356c0.389,0,0.684-0.111,0.882-0.331
					c0.199-0.22,0.298-0.474,0.298-0.761c0-0.14-0.024-0.276-0.072-0.408c-0.048-0.132-0.121-0.248-0.221-0.347
					c-0.099-0.099-0.222-0.178-0.37-0.237c-0.147-0.059-0.32-0.089-0.518-0.089h-1.312v2.173H280.653z"/>
				<path style="fill:#FFFFFF;" d="M286.797,440.845c-0.338,0-0.662-0.048-0.971-0.143c-0.309-0.095-0.592-0.239-0.849-0.43
					c-0.257-0.191-0.482-0.425-0.673-0.7c-0.191-0.276-0.342-0.597-0.452-0.965l1.401-0.551c0.103,0.397,0.283,0.726,0.541,0.987
					c0.257,0.261,0.595,0.392,1.015,0.392c0.154,0,0.303-0.02,0.447-0.061c0.143-0.04,0.272-0.099,0.386-0.176
					c0.114-0.077,0.204-0.175,0.27-0.292c0.066-0.118,0.1-0.254,0.1-0.408c0-0.147-0.026-0.279-0.077-0.397
					c-0.051-0.117-0.138-0.227-0.259-0.331c-0.121-0.103-0.279-0.202-0.474-0.298c-0.195-0.095-0.436-0.195-0.723-0.298
					l-0.485-0.176c-0.213-0.073-0.428-0.173-0.645-0.298c-0.217-0.125-0.414-0.276-0.59-0.452c-0.176-0.176-0.322-0.384-0.436-0.623
					c-0.114-0.239-0.171-0.509-0.171-0.81c0-0.309,0.061-0.597,0.182-0.866c0.121-0.268,0.294-0.503,0.518-0.706
					c0.224-0.202,0.493-0.36,0.805-0.474c0.312-0.114,0.66-0.171,1.042-0.171c0.397,0,0.741,0.053,1.031,0.16
					c0.29,0.107,0.537,0.243,0.739,0.408c0.202,0.165,0.365,0.348,0.491,0.546c0.125,0.199,0.217,0.386,0.276,0.563l-1.312,0.551
					c-0.074-0.221-0.208-0.419-0.403-0.596c-0.195-0.176-0.462-0.265-0.799-0.265c-0.324,0-0.592,0.075-0.805,0.226
					c-0.213,0.151-0.32,0.348-0.32,0.59c0,0.235,0.103,0.436,0.309,0.601c0.206,0.165,0.533,0.325,0.982,0.48l0.496,0.165
					c0.316,0.111,0.605,0.237,0.866,0.381c0.261,0.143,0.485,0.314,0.673,0.513c0.187,0.199,0.331,0.425,0.43,0.678
					c0.099,0.254,0.149,0.546,0.149,0.877c0,0.412-0.083,0.767-0.248,1.064c-0.165,0.298-0.377,0.542-0.634,0.734
					c-0.258,0.191-0.548,0.335-0.872,0.43C287.422,440.797,287.105,440.845,286.797,440.845z"/>
			</g>
			<g>
				<path style="fill:#FFFFFF;" d="M321.394,439.168l4.004-4.985h-3.827v-1.412h5.559v1.5l-3.96,4.985h4.004v1.412h-5.779V439.168z"
					/>
				<path style="fill:#FFFFFF;" d="M328.409,432.771h1.489v7.897h-1.489V432.771z"/>
				<path style="fill:#FFFFFF;" d="M331.486,440.669v-7.897h2.779c0.375,0,0.726,0.061,1.053,0.182
					c0.327,0.121,0.612,0.292,0.855,0.513s0.434,0.483,0.574,0.789c0.14,0.305,0.209,0.642,0.209,1.009
					c0,0.375-0.07,0.715-0.209,1.02c-0.14,0.305-0.331,0.568-0.574,0.789c-0.243,0.221-0.528,0.392-0.855,0.513
					c-0.327,0.121-0.678,0.182-1.053,0.182h-1.29v2.901H331.486z M334.288,436.356c0.389,0,0.684-0.111,0.882-0.331
					c0.199-0.22,0.298-0.474,0.298-0.761c0-0.14-0.024-0.276-0.072-0.408c-0.048-0.132-0.121-0.248-0.221-0.347
					c-0.099-0.099-0.222-0.178-0.37-0.237c-0.147-0.059-0.32-0.089-0.518-0.089h-1.312v2.173H334.288z"/>
			</g>
		</g>
		<g style="opacity:0.61;">
			<path style="fill:#FFFFFF;" d="M300.133,433.27h9.067v2.242h-9.067V433.27z M300.133,437.136h9.067v2.243h-9.067V437.136z"/>
		</g>
	</g>
	<g style="opacity:0.61;">
		<path style="fill:#FFFFFF;" d="M156.756,478.878h1.607c1.263,0,2.114,0.812,2.114,1.974c0,1.161-0.851,1.973-2.114,1.973h-1.607
			V478.878z M158.34,482.464c1.049,0,1.725-0.665,1.725-1.612c0-0.947-0.677-1.613-1.725-1.613h-1.167v3.225H158.34z"/>
		<path style="fill:#FFFFFF;" d="M165.139,480.851c0-1.15,0.879-2.007,2.075-2.007c1.184,0,2.069,0.851,2.069,2.007
			c0,1.156-0.885,2.007-2.069,2.007C166.019,482.858,165.139,482.002,165.139,480.851z M168.866,480.851
			c0-0.942-0.705-1.635-1.652-1.635c-0.953,0-1.663,0.693-1.663,1.635c0,0.941,0.71,1.635,1.663,1.635
			C168.162,482.486,168.866,481.793,168.866,480.851z"/>
		<path style="fill:#FFFFFF;" d="M179.596,478.878l-1.331,3.947h-0.44l-1.156-3.366l-1.161,3.366h-0.434l-1.331-3.947h0.429
			l1.139,3.394l1.178-3.394h0.389l1.161,3.411l1.156-3.411H179.596z"/>
		<path style="fill:#FFFFFF;" d="M187.731,478.878v3.947h-0.344l-2.537-3.202v3.202h-0.417v-3.947h0.344l2.543,3.203v-3.203H187.731
			z"/>
		<path style="fill:#FFFFFF;" d="M193.093,478.878h0.417v3.586h2.21v0.361h-2.627V478.878z"/>
		<path style="fill:#FFFFFF;" d="M200.061,480.851c0-1.15,0.879-2.007,2.075-2.007c1.184,0,2.069,0.851,2.069,2.007
			c0,1.156-0.885,2.007-2.069,2.007C200.941,482.858,200.061,482.002,200.061,480.851z M203.788,480.851
			c0-0.942-0.705-1.635-1.652-1.635c-0.953,0-1.663,0.693-1.663,1.635c0,0.941,0.71,1.635,1.663,1.635
			C203.083,482.486,203.788,481.793,203.788,480.851z"/>
		<path style="fill:#FFFFFF;" d="M211.636,481.77h-2.199l-0.474,1.054h-0.434l1.804-3.947h0.412l1.804,3.947h-0.44L211.636,481.77z
			 M211.484,481.432l-0.947-2.12l-0.947,2.12H211.484z"/>
		<path style="fill:#FFFFFF;" d="M217.28,478.878h1.607c1.263,0,2.114,0.812,2.114,1.974c0,1.161-0.851,1.973-2.114,1.973h-1.607
			V478.878z M218.864,482.464c1.049,0,1.725-0.665,1.725-1.612c0-0.947-0.677-1.613-1.725-1.613h-1.167v3.225H218.864z"/>
		<path style="fill:#FFFFFF;" d="M234.041,481.77h-2.199l-0.474,1.054h-0.434l1.804-3.947h0.412l1.804,3.947h-0.44L234.041,481.77z
			 M233.889,481.432l-0.947-2.12l-0.947,2.12H233.889z"/>
		<path style="fill:#FFFFFF;" d="M239.685,478.878h0.417v3.586h2.21v0.361h-2.627V478.878z"/>
		<path style="fill:#FFFFFF;" d="M247.082,478.878h0.417v3.586h2.21v0.361h-2.627V478.878z"/>
		<path style="fill:#FFFFFF;" d="M260.449,479.239v1.551h2.041v0.361h-2.041v1.675h-0.417v-3.947h2.706v0.361H260.449z"/>
		<path style="fill:#FFFFFF;" d="M267.678,478.878h0.417v3.947h-0.417V478.878z"/>
		<path style="fill:#FFFFFF;" d="M273.456,478.878h0.417v3.586h2.21v0.361h-2.627V478.878z"/>
		<path style="fill:#FFFFFF;" d="M283.644,482.464v0.361h-2.791v-3.947h2.706v0.361h-2.289v1.404h2.041v0.355h-2.041v1.466H283.644z
			"/>
		<path style="fill:#FFFFFF;" d="M294.672,479.239v1.551h2.041v0.361h-2.041v1.675h-0.417v-3.947h2.706v0.361H294.672z"/>
		<path style="fill:#FFFFFF;" d="M301.5,480.851c0-1.15,0.879-2.007,2.075-2.007c1.184,0,2.069,0.851,2.069,2.007
			c0,1.156-0.885,2.007-2.069,2.007C302.379,482.858,301.5,482.002,301.5,480.851z M305.226,480.851
			c0-0.942-0.705-1.635-1.652-1.635c-0.953,0-1.663,0.693-1.663,1.635c0,0.941,0.71,1.635,1.663,1.635
			C304.522,482.486,305.226,481.793,305.226,480.851z"/>
		<path style="fill:#FFFFFF;" d="M313.351,482.825l-0.902-1.269c-0.102,0.011-0.203,0.017-0.316,0.017h-1.06v1.252h-0.417v-3.947
			h1.477c1.004,0,1.613,0.507,1.613,1.353c0,0.62-0.327,1.054-0.902,1.24l0.964,1.353H313.351z M313.328,480.231
			c0-0.632-0.417-0.992-1.207-0.992h-1.048v1.979h1.048C312.911,481.218,313.328,480.851,313.328,480.231z"/>
		<path style="fill:#FFFFFF;" d="M322.907,478.878v3.947h-0.4v-3.158l-1.551,2.656h-0.197l-1.551-2.639v3.14h-0.4v-3.947h0.344
			l1.714,2.926l1.697-2.926H322.907z"/>
		<path style="fill:#FFFFFF;" d="M330.744,481.77h-2.199l-0.473,1.054h-0.434l1.804-3.947h0.411l1.804,3.947h-0.44L330.744,481.77z
			 M330.592,481.432l-0.947-2.12l-0.947,2.12H330.592z"/>
		<path style="fill:#FFFFFF;" d="M336.957,479.239h-1.387v-0.361h3.192v0.361h-1.387v3.586h-0.417V479.239z"/>
		<path style="fill:#FFFFFF;" d="M343.063,482.346l0.164-0.321c0.282,0.276,0.784,0.479,1.302,0.479c0.739,0,1.06-0.31,1.06-0.699
			c0-1.083-2.43-0.417-2.43-1.877c0-0.581,0.451-1.083,1.455-1.083c0.446,0,0.908,0.13,1.224,0.35l-0.141,0.333
			c-0.338-0.22-0.733-0.327-1.083-0.327c-0.722,0-1.043,0.321-1.043,0.716c0,1.083,2.43,0.429,2.43,1.866
			c0,0.581-0.462,1.077-1.472,1.077C343.937,482.858,343.356,482.65,343.063,482.346z"/>
	</g>
</g>
<g>
</g>
<g>
	<polygon style="fill-rule:evenodd;clip-rule:evenodd;fill:#FFFFFF;" points="250.85,189.758 252.943,186.657 266.022,193.607 
		250.85,189.758 	"/>
	<polygon style="fill-rule:evenodd;clip-rule:evenodd;fill:#FFFFFF;" points="279.194,193.588 285.21,189.851 286.331,193.14 
		279.194,193.588 	"/>
	<path style="fill-rule:evenodd;clip-rule:evenodd;fill:#CB9766;" d="M406.72,243.381c3.013,0,5.456,2.442,5.456,5.455
		c0,3.013-2.443,5.456-5.456,5.456c-3.013,0-5.456-2.443-5.456-5.456C401.265,245.824,403.707,243.381,406.72,243.381
		L406.72,243.381z"/>
	<path style="fill-rule:evenodd;clip-rule:evenodd;fill:#CB9766;" d="M334.937,271.968c3.013,0,5.456,2.442,5.456,5.455
		c0,3.013-2.443,5.456-5.456,5.456c-3.013,0-5.456-2.442-5.456-5.456C329.481,274.411,331.924,271.968,334.937,271.968
		L334.937,271.968z"/>
	<polygon style="fill-rule:evenodd;clip-rule:evenodd;fill:#FFFFFF;" points="239.712,444.154 240.988,438.988 269.093,438.988 
		275.468,413.16 300.217,413.16 299.013,418.038 279.305,418.038 272.86,444.154 239.712,444.154 	"/>
	<polygon style="fill-rule:evenodd;clip-rule:evenodd;fill:#FFFFFF;" points="216.992,438.988 212.543,436.086 229.463,367.529 
		257.875,352.032 292.403,352.032 299.278,357.198 259.071,357.198 233.944,370.306 216.992,438.988 	"/>
	<polygon style="fill-rule:evenodd;clip-rule:evenodd;fill:#FFFFFF;" points="286.731,367.529 291.772,367.529 287.805,383.6 
		282.764,383.6 286.731,367.529 	"/>
	<polygon style="fill-rule:evenodd;clip-rule:evenodd;fill:#FFFFFF;" points="333.762,352.032 337.28,355.167 313.991,449.528 
		319.094,449.57 341.892,357.198 400.551,357.198 415.23,357.198 416.277,352.032 367.822,352.032 333.762,352.032 	"/>
	<path style="fill-rule:evenodd;clip-rule:evenodd;fill:#1D1D1B;" d="M235.926,158.243c9.791-11.957,29.5-11.336,29.5-11.336
		c10.106,11.794,8.204,36.41,8.204,36.41l1.793,0.075c3.139-12.63,0.673-27.577,0.673-27.577l-0.49-3.786
		c0,0,17.451,8.632,14.984,30.604l-9.972,6.328l-6.577,3.438l-36.77-17.189l-5.707,10.27l40.011,15.813
		c0.972,0.316,1.943,0.406,2.915,0.074l13.508-6.558l4.97-2.344c0,0-2.102,20.061-5.231,29.894c0,0-5.428,5.016-12.425,8.23
		c0,0-4.858,2.653-6.54,3.4c-1.682,0.747-3.12,0.355-3.12,0.355c-18.385-3.512-35.593-21.916-35.593-21.916l1.644-11.136
		c0.523-2.84,8.968-7.623,8.968-7.623l-10.048-4.381c0,0,1.528,3.559-1.92,7.778c-3.448,4.22-8.51,0.788-8.51,0.788
		c3.289-2.242,3.775-2.531,5.043-7.67c1.268-5.139-3.997-9.893-3.997-9.893c1.636-0.755,4.892,0.522,5.454,0.839
		C226.668,180.263,226.547,169.699,235.926,158.243L235.926,158.243z M419.397,347.441c0,8.007-6.491,14.498-14.499,14.498
		s-14.499-6.491-14.499-14.498h-69.491l11.579,9.757l-24.012,97.287h34.06l11.404-46.204h38.665l5.119-20.089h-38.826l2.882-11.677
		l-11.662-8.986h67.05l4.958-20.089H419.397L419.397,347.441z M282.263,233.803c3.206-2.119,6.674-4.766,10.196-8.041
		c0,0,10.743,7.492,12.238,7.791c0.262,0.167-1.486,2.053-4.488,4.639c-2.453,2.114-5.744,4.695-9.459,7.185
		c-8.394,5.627-19.061,9.684-25.709,12.122c-4.223,1.548-4.151,0.738-8.227-1.378c-22.788-11.834-34.508-26.092-40.585-42.129
		c0,0,29.788,23.289,44.763,27.259c3.59,0.951,4.016,0.698,7.274-0.382C271.02,239.955,276.166,237.833,282.263,233.803
		L282.263,233.803z M279.194,193.588l6.016-3.737l1.121,3.288L279.194,193.588L279.194,193.588z M273.789,140.055
		c-7.847-23.616-18.049-20.066-22.309-20.664c-4.26-0.598-14.947,3.662-20.029,7.847c-5.082,4.185-11.061,3.812-11.061,3.812
		c-11.808,0.972-17.264-10.911-17.264-10.911c-2.989,14.349,11.061,23.43,11.061,23.43c-3.139,0.187-8.202-3.98-8.202-3.98
		c1.644,11.659,11.21,15.694,11.21,15.694c16.116-21.158,31.688-15.097,31.688-15.097c-35.723,7.025-32.061,38.788-32.061,38.788
		c-8.52,6.726-2.989,16.292-2.989,16.292c-3.587,13.153-33.481,21.075-33.481,21.075c-27.951-1.943-37.218,12.257-37.218,12.257
		c-18.534,21.673-9.715,44.767-9.715,44.767c2.84-0.822,8.893-5.605,8.893-5.605c0.673,2.691,2.541,4.858,2.541,4.858
		l-29.483,61.623H71.574l35.65,27.91l-20.24,82.005l33.729,23.819h47.233l32.361-18.01l24.065,18.01h48.204l21.557-12.041
		l-2.972,12.041h61.905l11.453-46.578l38.785-0.019l10.074-40.819l14.44-0.023l11.426-46.295h-24.28l1.943-1.106
		c0,0,4.783-19.73,2.84-26.456c-1.943-6.726-7.25-8.744-7.847-9.94c-0.598-1.196-6.726-1.046-6.726-1.046l2.391-0.897
		c0,0,2.84-9.118,1.794-13.602c-1.046-4.484-12.555-17.189-12.555-17.189l4.035-1.943c0,0,8.819,6.128,16.89-3.438
		c8.071-9.566,0.598-18.235,0.598-18.235c-10.762-13.004-22.545-1.638-22.545-1.638l-18.858-0.006L302.338,51.83l-21.767-15.489
		l-5.232,26.195c0,0,72.935,174.027,67.523,169.985c-5.411-4.042-23.131-3.4-23.131-3.4l0.822-1.271l-24.572-11.683
		c2.408-8.581,4.15-32.43,4.15-32.43l-2.952-2.205C300.32,151.938,273.789,140.055,273.789,140.055L273.789,140.055z
		 M364.695,249.009L293.921,71.513l-11.575-8.211l3.139-14.648l11.434,7.922l76.432,191.775l28.028-0.631
		c0.515-2.477,2.711-4.339,5.341-4.339c3.013,0,5.456,2.442,5.456,5.455c0,3.013-2.443,5.456-5.456,5.456
		c-2.035,0-3.81-1.115-4.748-2.767l-0.05,0.034l-61.65,24.72c0.079,0.369,0.12,0.752,0.12,1.144c0,3.013-2.443,5.456-5.456,5.456
		c-3.013,0-5.456-2.442-5.456-5.456c0-3.013,2.443-5.455,5.456-5.455c1.303,0,2.5,0.457,3.438,1.219L364.695,249.009
		L364.695,249.009z M191.628,239.621c25.559-0.747,31.837,25.709,31.837,25.709c-1.375,0.299-2.696,0.638-3.965,1.011
		c-19.685,5.799-26.676,19.914-26.676,19.914c-11.27-2.076-34.175-10.337-31.688-25.261c0.602-3.613,1.849-8.818,6.201-13.19
		C171.629,243.494,178.939,239.992,191.628,239.621L191.628,239.621z M250.85,189.758l2.093-3.101l13.079,6.95L250.85,189.758
		L250.85,189.758z M304.786,253.456c0,0,11.883,12.182,13.975,25.186c0,0-13.602-9.79-17.563-9.267
		c-4.076,2.167-20.208,5.521-21.823,4.036C279.376,273.411,291.325,267.076,304.786,253.456L304.786,253.456z M150.274,282.288
		c0,0,20.862,27.925,48.813,37.341l2.167-3.288c0,0,23.691,11.958,29.595,11.958c0,0,0.374,4.257,2.691,5.94h-34.528
		c0,0-13.826-6.089-25.111-17.449l6.203,17.449H155.89C152.546,317.249,151.682,299.708,150.274,282.288L150.274,282.288z
		 M167.819,347.441h48.113l-22.595,91.548l-28.167,15.497h-40.772l-22.089-15.497l20.187-81.79l-11.642-9.757h48.02l-21.462,86.956
		h22.959l19.054-77.198L167.819,347.441L167.819,347.441z M225.688,271.776c12.81,2.944,21.379,5.86,32.286,22.72
		c-1.161,0.605-2.275,1.26-3.339,1.947c-8.664,5.593-13.999,13.299-13.999,13.299c-26.158,3.438-41.702-6.427-41.702-6.427
		c3.474-13.801,13.138-22.707,19.847-27.423C222.752,273.099,225.688,271.776,225.688,271.776L225.688,271.776z M225.93,363.65
		l30.712-16.21h37.48l22.819,16.076l-6.09,24.676h-33.796l5.1-20.663H245.17l11.27,8.85l-14.319,58.017h23.529l6.446-26.116h33.796
		l-7.579,30.707l-28.003,15.497h-41.301l-21.674-15.497L225.93,363.65L225.93,363.65z M317.052,292.851c0,0,8.389-0.803,27.82,2.709
		c19.431,3.513,31.314,16.292,31.314,16.292c3.774-2.877,1.869-10.015,1.869-10.015c0.042-0.006,0.085-0.012,0.129-0.018
		c6.064-0.849,26.018-1.383,27.205-1.42c1.196-0.037,4.26,1.345,4.783,2.429c0.523,1.084-1.569,3.288-0.673,3.475
		c0.897,0.187,4.447,2.429,4.409,4.11c-0.037,1.681-3.494,4.839-3.494,4.839s2.504,2.915,2.242,4.073
		c-0.262,1.158-2.391,2.915-2.653,3.139c-0.262,0.224-1.077,0.796-1.077,0.796s0.591,0.512,1.526,1.782
		c0.934,1.271,0.822,2.308,0.822,2.84c0,0.531-1.925,2.56-1.925,2.56s-16.218,0.448-16.965,0c-0.747-0.449-6.689-1.009-6.689-1.009
		l-9.715-6.726c-24.513,6.577-58.256,6.764-58.256,6.764c5.104-12.485,4.66-21.959,3.088-28.14
		C319.392,295.747,317.052,292.851,317.052,292.851L317.052,292.851z M372.281,267.161l12.182-2.093c0,0,0.897-0.299,2.317,0.075
		c1.42,0.374,3.438,0.972,3.438,0.972s1.271,0.299,0.523,3.288c0,0-0.299,0.822,2.242,1.644c2.541,0.822,4.41,1.42,3.886,4.036
		c-0.172,0.86-0.255,1.615-0.249,2.247c0.012,1.289,0.394,2.062,1.146,2.163c1.121,0.15,2.102,1.336,2.102,1.336
		s1.121,0.729,0.859,2.261c-0.262,1.532-0.355,3.625-0.355,3.625s4.606,1.542,2.494,5.689c0,0-1.084,1.812-5.157,2.84
		c-4.073,1.028-7.586,1.009-7.586,1.009s-1.593-1.275-1.733-3.499l5.942-3.933l-0.598-1.159l-10.22,2.747
		c0,0-2.635-1.009-3.288-3.588c0,0,0.561-1.364,8.445-4.876l-0.486-1.046l-11.173,2.69c0,0-1.906-2.242-2.317-4.596l9.379-4.746
		l-0.187-1.009l-9.813-0.173c0,0-0.972-0.95-1.498-2.763C372.328,269.445,372.18,268.394,372.281,267.161L372.281,267.161z
		 M314.964,240.298l2.018-3.214c0,0,20.178-4.185,31.538,8.146c0,0,0.252,1.168,0.533,1.542c0.28,0.374,0.523,2.074-0.616,1.158
		c-1.14-0.916-8.725-7.137-20.16-7.885C316.842,239.299,314.964,240.298,314.964,240.298L314.964,240.298z M152.616,245.002
		c0,0,0.336-13.329,18.684-17.787c18.348-4.458,32.883,5.53,33.93,7.324c0,0-18.967-6.425-34.08-0.897
		C156.037,239.17,152.616,245.002,152.616,245.002L152.616,245.002z M242.13,324.838c7.474-17.488,24.065-27.503,24.065-27.503
		c1.081,0.315,1.18,8.988-0.878,12.537c-2.058,3.549-4.5,6.521-7.156,9.174c5.605,0.411,11.136-3.289,11.136-3.289
		c-1.121,5.12-11.983,14.91-13.695,16.535c-1.713,1.625-3.575,1.947-5.306,1.121C241.55,329.191,242.13,324.838,242.13,324.838
		L242.13,324.838z M354.78,285.831c-0.448-3.737,4.036-9.118,4.036-9.118l0.598,3.288l10.687,4.708l-1.196,5.381
		C358.815,291.885,354.78,285.831,354.78,285.831L354.78,285.831z M311.792,299.811l-1.669-1.685L311.792,299.811L311.792,299.811
		L311.792,299.811L311.792,299.811z M286.905,298.092c0,0,23.218,0.034,24.887,1.719c0.288,1.968,0.443,3.815,0.498,5.536
		c0.327,10.338-2.983,16.119-2.983,16.119c-13.378,5.157-27.484,2.933-27.484,2.933c2.832-7.115,4.112-13.526,4.679-18.237
		C287.103,301.175,286.905,298.092,286.905,298.092L286.905,298.092z"/>
	<polygon style="fill-rule:evenodd;clip-rule:evenodd;fill:#FFFFFF;" points="357.835,392.497 391.839,392.497 390.564,397.662 
		356.56,397.662 357.835,392.497 	"/>
	<polygon style="fill-rule:evenodd;clip-rule:evenodd;fill:#FFFFFF;" points="180.7,352.032 210.306,352.032 208.961,357.198 
		189.182,357.198 167.72,444.154 135.004,444.154 136.279,438.988 163.829,438.988 184.534,355.1 180.7,352.032 	"/>
	<polygon style="fill-rule:evenodd;clip-rule:evenodd;fill:#FFFFFF;" points="123.771,352.032 127.327,355.494 107.43,436.111 
		111.598,438.988 131.785,357.198 151.658,357.198 152.779,352.032 123.771,352.032 	"/>
	<path style="fill-rule:evenodd;clip-rule:evenodd;fill:#CB9766;" d="M404.898,341.927c3.045,0,5.513,2.468,5.513,5.513
		c0,3.045-2.468,5.513-5.513,5.513c-3.045,0-5.513-2.468-5.513-5.513C399.385,344.396,401.853,341.927,404.898,341.927
		L404.898,341.927z"/>
	<path style="fill-rule:evenodd;clip-rule:evenodd;fill:#1D1D1B;" d="M242.031,234.928c0,0-2.205,2.578,0,4.858
		c-1.345,0.699-2.629,0.349-3.347-0.688C237.319,237.125,238.172,233.67,242.031,234.928L242.031,234.928z"/>
	<path style="fill-rule:evenodd;clip-rule:evenodd;fill:#1D1D1B;" d="M263.617,247.006c0,0-2.205,2.578,0,4.858
		c-1.345,0.699-2.629,0.349-3.347-0.688C258.905,249.203,259.759,245.749,263.617,247.006L263.617,247.006z"/>
	<path style="fill-rule:evenodd;clip-rule:evenodd;fill:#1D1D1B;" d="M285.384,238.015c0,0-2.167,2.586,0.037,5.087
		c-1.44,0.658-2.725-0.176-3.347-1.203C280.749,239.711,281.974,236.113,285.384,238.015L285.384,238.015z"/>
	<path style="fill-rule:evenodd;clip-rule:evenodd;fill:#CB9766;" d="M226.695,181.13c0.105,0.06,0.116,0.085,0.002,0.057
		C226.697,181.187,226.696,181.167,226.695,181.13L226.695,181.13z M273.631,183.317c0,0,1.902-24.616-8.204-36.41
		c0,0-19.71-0.621-29.5,11.336c-9.379,11.456-9.258,22.02-9.232,22.886c-0.561-0.317-3.818-1.595-5.454-0.839
		c0,0,5.265,4.754,3.997,9.893c-1.268,5.139-1.754,5.428-5.043,7.67c0,0,5.063,3.432,8.51-0.788c3.448-4.219,1.92-7.778,1.92-7.778
		l10.048,4.381c0,0-8.445,4.783-8.968,7.623l-1.644,11.136c0,0,17.208,18.404,35.593,21.916c0,0,1.439,0.392,3.12-0.355
		c1.682-0.748,6.54-3.4,6.54-3.4l7.212-8.707c0,0,2.317-2.616,3.139-6.951c0.822-4.335,2.335-20.122,2.335-20.122l-13.508,6.558
		c-0.972,0.332-1.943,0.241-2.915-0.074l-40.011-15.813l5.707-10.27l36.77,17.189l6.577-3.438c0,0,4.521-21.86-4.522-33.145
		c0,0,2.466,14.947-0.673,27.577L273.631,183.317L273.631,183.317z M251.434,202.019c0.367,0.091,17.126,7.103,17.126,7.103
		s0.084,3.516-0.759,5.004l-16.456-10.167L251.434,202.019L251.434,202.019z M249.934,209.678l17.269,7.288l-0.897,4.858
		l-16.353-10.57L249.934,209.678L249.934,209.678z M272.907,221.324l0.822-4.148l10.911-5.68l0.037,1.42L272.907,221.324
		L272.907,221.324z M275.037,209.255l11.098-5.493l-0.037,1.869l-11.659,7.885L275.037,209.255L275.037,209.255z"/>
	<path style="fill-rule:evenodd;clip-rule:evenodd;fill:#CB9766;" d="M293.921,71.513l70.774,177.496l-26.32,24.178
		c0.948,0.771,1.633,1.854,1.898,3.092l61.65-24.72l0.05-0.034c-0.281-0.495-0.487-1.038-0.602-1.614l-0.046,0.004l-30.342,2.84
		L295.798,64.497l1.121-7.922l-11.434-7.922l-3.139,14.648L293.921,71.513L293.921,71.513z"/>
	<path style="fill-rule:evenodd;clip-rule:evenodd;fill:#CB9766;" d="M219.5,266.341c-16.352-31.592-52.163-18.536-52.163-18.536
		c-4.353,4.373-5.599,9.578-6.201,13.19c-2.487,14.923,20.418,23.185,31.688,25.261C192.823,286.256,199.815,272.14,219.5,266.341
		L219.5,266.341z"/>
	<path style="fill-rule:evenodd;clip-rule:evenodd;fill:#CB9766;" d="M218.78,275.891c-6.709,4.716-16.373,13.622-19.847,27.423
		c0,0,15.545,9.865,41.702,6.427c0,0,5.335-7.706,13.999-13.299C236.647,277.313,218.78,275.891,218.78,275.891L218.78,275.891z"/>
	<path style="fill-rule:evenodd;clip-rule:evenodd;fill:#CB9766;" d="M266.194,297.335c0,0-16.591,10.015-24.065,27.503
		c0,0-0.579,4.353,8.165,8.576c1.731,0.825,3.594,0.504,5.306-1.121c1.713-1.625,12.574-11.416,13.695-16.535
		c0,0-5.531,3.7-11.136,3.289c2.656-2.652,5.098-5.625,7.156-9.174C267.374,306.323,267.276,297.651,266.194,297.335
		L266.194,297.335z"/>
	<path style="fill-rule:evenodd;clip-rule:evenodd;fill:#CB9766;" d="M286.502,306.162c-0.567,4.711-1.847,11.121-4.679,18.237
		c0,0,14.106,2.224,27.484-2.933c0,0,3.309-5.781,2.983-16.119C295.608,302.783,286.502,306.162,286.502,306.162L286.502,306.162z"
		/>
	<path style="fill-rule:evenodd;clip-rule:evenodd;fill:#CB9766;" d="M320.812,301.331c1.572,6.181,2.016,15.655-3.088,28.14
		c0,0,33.743-0.187,58.256-6.764l9.715,6.726c0,0,5.942,0.56,6.689,1.009c0.747,0.448,16.965,0,16.965,0s1.925-2.028,1.925-2.56
		c0-0.532,0.112-1.57-0.822-2.84c-0.934-1.27-1.526-1.782-1.526-1.782s0.815-0.572,1.077-0.796c0.261-0.224,2.391-1.981,2.653-3.139
		c0.262-1.158-2.242-4.073-2.242-4.073c-2.55-12.845-32.232-13.434-32.232-13.434l-0.129,0.018c0,0,1.906,7.137-1.869,10.015
		c1.355,2.195-0.523,1.345-0.523,1.345C343.751,293.692,320.812,301.331,320.812,301.331L320.812,301.331z"/>
	<path style="fill-rule:evenodd;clip-rule:evenodd;fill:#CB9766;" d="M380.226,286.821c0.654,2.579,3.288,3.588,3.288,3.588
		l10.22-2.747l0.598,1.159l-5.942,3.933c0.14,2.223,1.733,3.499,1.733,3.499s3.512,0.019,7.586-1.009
		c4.073-1.028,5.157-2.84,5.157-2.84c2.111-4.148-2.494-5.689-2.494-5.689s0.093-2.093,0.355-3.625
		c0.261-1.532-0.859-2.261-0.859-2.261s-0.981-1.186-2.102-1.336c-0.752-0.1-1.134-0.874-1.146-2.163c0,0-8.714-5.456-9.873-6.128
		c-1.158-0.673-1.906-0.785-1.906-0.785l-12.265-0.115c0.526,1.813,1.498,2.763,1.498,2.763l9.813,0.173l0.187,1.009l-9.379,4.746
		c0.411,2.354,2.317,4.596,2.317,4.596l11.173-2.69l0.486,1.046C380.787,285.457,380.226,286.821,380.226,286.821L380.226,286.821z"
		/>
	<path style="fill-rule:evenodd;clip-rule:evenodd;fill:#CB9766;" d="M394.174,357.198h-52.282l-22.799,92.372l-5.103-0.042
		l23.29-94.361l-3.518-3.135h34.061h23.319c-0.481-1.443-0.742-2.987-0.742-4.592h-69.491l11.579,9.757l-24.012,97.287h34.06
		l11.404-46.204h38.665l5.119-20.089h-38.826l2.882-11.677l-11.662-8.986h67.05l4.958-20.089h-2.729
		c0,8.007-6.491,14.498-14.499,14.498C400.648,361.939,396.826,360.111,394.174,357.198L394.174,357.198z M357.835,392.497h34.004
		l-1.275,5.166H356.56L357.835,392.497L357.835,392.497z"/>
	<path style="fill-rule:evenodd;clip-rule:evenodd;fill:#CB9766;" d="M316.941,363.516l-22.819-16.076h-37.48l-30.712,16.21
		l-18.594,75.338l21.674,15.497h41.301l28.003-15.497l7.579-30.707h-33.796l-6.446,26.116h-23.529l14.319-58.017l-11.27-8.85h36.984
		l-5.1,20.663h33.796L316.941,363.516L316.941,363.516z M299.278,357.198h-40.208l-25.127,13.108l-16.952,68.682l-4.449-2.902
		l16.921-68.556l28.412-15.497h34.528L299.278,357.198L299.278,357.198z M286.731,367.529h5.041l-3.966,16.071h-5.041
		L286.731,367.529L286.731,367.529z M240.988,438.988h28.106l6.375-25.828h24.749l-1.204,4.879h-19.707l-6.446,26.116h-33.147
		L240.988,438.988L240.988,438.988z"/>
	<path style="fill-rule:evenodd;clip-rule:evenodd;fill:#CB9766;" d="M216.229,213.991c6.077,16.037,17.796,30.295,40.585,42.129
		c4.076,2.117,4.004,2.926,8.227,1.378c6.649-2.438,17.316-6.495,25.709-12.122c3.715-2.491,7.006-5.071,9.459-7.185
		c-4.567-2.55-17.946-4.388-17.946-4.388c-6.097,4.03-11.244,6.152-13.997,7.065c-3.258,1.08-3.684,1.334-7.274,0.382
		C246.018,237.28,216.229,213.991,216.229,213.991L216.229,213.991z M260.27,251.176c-1.365-1.973-0.512-5.427,3.347-4.17
		c0,0-2.205,2.578,0,4.858C262.272,252.563,260.988,252.212,260.27,251.176L260.27,251.176z M285.421,243.103
		c-1.44,0.658-2.725-0.176-3.347-1.203c-1.325-2.189-0.101-5.787,3.309-3.884C285.384,238.015,283.216,240.602,285.421,243.103
		L285.421,243.103z M242.031,234.928c0,0-2.205,2.578,0,4.858c-1.345,0.699-2.629,0.349-3.347-0.688
		C237.319,237.125,238.172,233.67,242.031,234.928L242.031,234.928z"/>
	<path style="fill-rule:evenodd;clip-rule:evenodd;fill:#CB9766;" d="M304.786,253.456c-13.461,13.619-25.41,19.954-25.41,19.954
		c1.615,1.485,17.747-1.869,21.823-4.036c3.961-0.523,17.563,9.267,17.563,9.267C316.669,265.638,304.786,253.456,304.786,253.456
		L304.786,253.456z"/>
	<path style="fill-rule:evenodd;clip-rule:evenodd;fill:#CB9766;" d="M358.815,276.713c0,0-4.484,5.381-4.036,9.118
		c0,0,4.036,6.054,14.125,4.26l1.196-5.381l-10.687-4.708L358.815,276.713L358.815,276.713z"/>
	<path style="fill-rule:evenodd;clip-rule:evenodd;fill:#CB9766;" d="M199.087,319.63c-27.951-9.417-48.813-37.341-48.813-37.341
		c1.408,17.42,2.272,34.961,5.616,51.951h24.214l-6.203-17.449c11.285,11.36,25.111,17.449,25.111,17.449h34.528
		c-2.317-1.683-2.691-5.94-2.691-5.94c-5.904,0-29.595-11.958-29.595-11.958L199.087,319.63L199.087,319.63z"/>
	<path style="fill-rule:evenodd;clip-rule:evenodd;fill:#CB9766;" d="M208.961,357.198h-19.78l-21.462,86.956h-32.716l1.275-5.166
		h27.55l20.705-83.888l-3.835-3.068h29.607L208.961,357.198L208.961,357.198z M215.932,347.441h-48.113l11.605,9.757l-19.054,77.198
		h-22.959l21.462-86.956h-48.02l11.642,9.757l-20.187,81.79l22.089,15.497h40.772l28.167-15.497L215.932,347.441L215.932,347.441z
		 M151.658,357.198h-19.873l-20.187,81.79l-4.169-2.877l19.898-80.617l-3.556-3.461h29.008L151.658,357.198L151.658,357.198z"/>
	<path style="fill-rule:evenodd;clip-rule:evenodd;fill:#C5C5C5;" d="M199.079,135.674c0.598,17.787,14.872,25.335,14.872,25.335
		c-3.288,5.082-3.438,16.89-3.438,16.89c-5.829,5.082-2.989,15.993-2.989,15.993c-3.886,9.417-28.922,16.517-28.922,16.517
		c-31.389-2.691-42.749,16.741-42.749,16.741c-20.328,25.709-6.876,55.005-6.876,55.005l6.278-1.794l-22.72,46.99H52.448
		l47.031,37.106L79.23,446.5l38.257,27.5h52.763l29.52-15.974L221.892,474h52.464l9.828-4.951L283.437,474h74.754l9.267-37.442
		l2.093-8.482h16.703h22.296l9.093-39.884h14.893l15.016-60.841h-23.183c8.37-29.846-9.566-35.743-9.566-35.743
		c4.783-12.854-4.858-21.739-4.858-21.739c10.385-3.087,16.5-7.644,17.226-20.09c0.871-14.922-15.564-30.041-33.294-17.062h-12.855
		L307.034,46.926L275.944,26l-8.071,37.368l64.272,160.083l-9.785-0.279l-19.885-10.408c2.989-3.438,3.886-31.987,3.886-31.987
		l-2.69-1.943c1.345-29.147-24.737-43.72-24.737-43.72c-4.457-16.028-15.798-22.533-26.711-22.452
		c-13.08,0.098-21.205,9.451-30.045,11.833c-1.779,0.479-4.418-0.087-8.009-1.088c-10.358-2.888-12.96-26.558-12.96-26.558
		C189.999,120.764,199.079,135.674,199.079,135.674L199.079,135.674z M180.351,216.341c0,0,29.894-7.922,33.481-21.075
		c0,0-5.53-9.566,2.989-16.292c0,0-3.662-31.763,32.061-38.788c0,0-15.572-6.061-31.688,15.097c0,0-9.566-4.036-11.21-15.694
		c0,0,5.063,4.167,8.202,3.98c0,0-14.05-9.08-11.061-23.43c0,0,5.456,11.883,17.264,10.911c0,0,5.979,0.374,11.061-3.812
		c5.082-4.185,15.769-8.445,20.029-7.847c4.26,0.598,14.461-2.952,22.309,20.664c0,0,26.531,11.883,23.392,41.478l2.952,2.205
		c0,0-1.742,23.848-4.15,32.43l24.572,11.683l-0.822,1.271c0,0,17.719-0.642,23.131,3.4c5.411,4.042-67.523-169.985-67.523-169.985
		l5.232-26.195l21.767,15.489l74.586,186.913l18.858,0.006c0,0,11.783-11.366,22.545,1.638c0,0,7.474,8.669-0.598,18.235
		c-8.072,9.566-16.89,3.438-16.89,3.438l-4.035,1.943c0,0,11.509,12.705,12.555,17.189c1.046,4.484-1.794,13.602-1.794,13.602
		l-2.391,0.897c0,0,6.128-0.149,6.726,1.046c0.598,1.196,5.904,3.213,7.847,9.94c1.943,6.726-2.84,26.456-2.84,26.456l-1.943,1.106
		h24.28l-11.426,46.295l-14.44,0.023l-10.074,40.819l-38.785,0.019l-11.453,46.578h-61.905l2.972-12.041l-21.557,12.041H224.37
		l-24.065-18.01l-32.361,18.01h-47.233l-33.729-23.819l20.24-82.005l-35.65-27.91h43.795l29.483-61.623c0,0-1.869-2.167-2.541-4.858
		c0,0-6.053,4.783-8.893,5.605c0,0-8.819-23.093,9.715-44.767C143.133,228.597,152.4,214.398,180.351,216.341L180.351,216.341z"/>
	<path style="fill-rule:evenodd;clip-rule:evenodd;fill:#FFFFFF;" d="M276.097,155.814c9.043,11.285,4.522,33.145,4.522,33.145
		l9.972-6.328c2.466-21.972-14.984-30.604-14.984-30.604L276.097,155.814L276.097,155.814z"/>
	<path style="fill-rule:evenodd;clip-rule:evenodd;fill:#FFFFFF;" d="M287.998,194.807c0,0-1.513,15.788-2.335,20.122
		c-0.822,4.335-3.139,6.951-3.139,6.951l-7.212,8.707c6.997-3.214,12.425-8.23,12.425-8.23c3.13-9.833,5.231-29.894,5.231-29.894
		L287.998,194.807L287.998,194.807z"/>
	<polygon style="fill-rule:evenodd;clip-rule:evenodd;fill:#1D1D1B;" points="286.135,203.761 275.037,209.255 274.439,213.515 
		286.097,205.63 286.135,203.761 	"/>
	<path style="fill-rule:evenodd;clip-rule:evenodd;fill:#1D1D1B;" d="M267.801,214.126c0.843-1.488,0.759-5.004,0.759-5.004
		s-16.759-7.012-17.126-7.103l-0.089,1.94L267.801,214.126L267.801,214.126z"/>
	<polygon style="fill-rule:evenodd;clip-rule:evenodd;fill:#1D1D1B;" points="267.203,216.966 249.934,209.678 249.954,211.254 
		266.307,221.824 267.203,216.966 	"/>
	<polygon style="fill-rule:evenodd;clip-rule:evenodd;fill:#1D1D1B;" points="273.729,217.177 272.907,221.324 284.678,212.917 
		284.64,211.497 273.729,217.177 	"/>
	<path style="fill-rule:evenodd;clip-rule:evenodd;fill:#FFFFFF;" d="M292.459,225.762c-3.522,3.276-6.99,5.922-10.196,8.041
		c0,0,13.379,1.838,17.946,4.388c3.001-2.586,4.749-4.472,4.488-4.639C303.202,233.254,292.459,225.762,292.459,225.762
		L292.459,225.762z"/>
	<path style="fill-rule:evenodd;clip-rule:evenodd;fill:#FFFFFF;" d="M348.52,245.231c-11.36-12.331-31.538-8.146-31.538-8.146
		l-2.018,3.214c0,0,1.878-0.999,13.312-0.252c11.435,0.748,19.02,6.969,20.16,7.885c1.14,0.916,0.897-0.785,0.616-1.158
		C348.772,246.399,348.52,245.231,348.52,245.231L348.52,245.231z"/>
	<path style="fill-rule:evenodd;clip-rule:evenodd;fill:#FFFFFF;" d="M295.798,64.497l75.184,188.258l30.342-2.84l0.046-0.004
		c-0.069-0.347-0.106-0.707-0.106-1.075c0-0.383,0.04-0.756,0.115-1.117l-28.028,0.631L296.919,56.576L295.798,64.497
		L295.798,64.497z"/>
	<path style="fill-rule:evenodd;clip-rule:evenodd;fill:#FFFFFF;" d="M386.78,265.143c-1.42-0.374-2.317-0.075-2.317-0.075
		l-12.182,2.093c-0.101,1.234,0.047,2.284,0.296,3.141l12.265,0.115c0,0,0.747,0.112,1.906,0.785
		c1.159,0.673,9.873,6.128,9.873,6.128c-0.006-0.631,0.077-1.386,0.249-2.247c0.523-2.616-1.345-3.214-3.886-4.036
		c-2.541-0.822-2.242-1.644-2.242-1.644c0.747-2.989-0.523-3.288-0.523-3.288S388.2,265.517,386.78,265.143L386.78,265.143z"/>
	<path style="fill-rule:evenodd;clip-rule:evenodd;fill:#FFFFFF;" d="M405.389,300.399c-1.187,0.037-21.141,0.572-27.205,1.42
		c0,0,29.681,0.588,32.232,13.434c0,0,3.456-3.158,3.494-4.839c0.037-1.682-3.512-3.924-4.409-4.11
		c-0.897-0.187,1.196-2.392,0.673-3.475C409.649,301.744,406.585,300.362,405.389,300.399L405.389,300.399z"/>
	<path style="fill-rule:evenodd;clip-rule:evenodd;fill:#FFFFFF;" d="M376.186,311.852c0,0-11.883-12.779-31.314-16.292
		c-19.431-3.512-27.82-2.709-27.82-2.709s2.34,2.896,3.761,8.48c0,0,22.939-7.639,54.851,11.866
		C375.663,313.198,377.541,314.048,376.186,311.852L376.186,311.852z"/>
	<path style="fill-rule:evenodd;clip-rule:evenodd;fill:#FFFFFF;" d="M312.29,305.347c-0.054-1.721-0.21-3.568-0.498-5.536
		c-1.669-1.685-24.887-1.719-24.887-1.719s0.198,3.083-0.403,8.07C286.502,306.162,295.608,302.783,312.29,305.347L312.29,305.347z"
		/>
	<path style="fill-rule:evenodd;clip-rule:evenodd;fill:#FFFFFF;" d="M257.974,294.495c-10.907-16.859-19.475-19.776-32.286-22.72
		c0,0-2.936,1.323-6.908,4.116c0,0,17.868,1.422,35.855,20.551C255.699,295.755,256.813,295.1,257.974,294.495L257.974,294.495z"/>
	<path style="fill-rule:evenodd;clip-rule:evenodd;fill:#FFFFFF;" d="M223.465,265.33c0,0-6.278-26.456-31.837-25.709
		c-12.689,0.371-19.999,3.873-24.291,8.184c0,0,35.811-13.055,52.163,18.536C220.768,265.968,222.089,265.628,223.465,265.33
		L223.465,265.33z"/>
	<path style="fill-rule:evenodd;clip-rule:evenodd;fill:#FFFFFF;" d="M171.15,233.642c15.113-5.528,34.08,0.897,34.08,0.897
		c-1.046-1.794-15.582-11.782-33.93-7.324c-18.348,4.458-18.684,17.787-18.684,17.787S156.037,239.17,171.15,233.642L171.15,233.642
		z"/>
</g>
</svg>
