<?xml version="1.0" encoding="UTF-8" standalone="no"?>
<!DOCTYPE svg PUBLIC "-//W3C//DTD SVG 1.1//EN" "http://www.w3.org/Graphics/SVG/1.1/DTD/svg11.dtd">
<svg xmlns="http://www.w3.org/2000/svg" version="1.1" viewBox="0.00 0.00 544.00 459.00" width="544.00" height="459.00">
<g stroke-width="5.00" fill="none" stroke-linecap="butt">
<path stroke="#806908" vector-effect="non-scaling-stroke" d="
  M 371.72 122.84
  Q 365.36 126.28 366.26 134.25
  Q 366.84 139.35 371.14 142.51"
/>
<path stroke="#806908" vector-effect="non-scaling-stroke" d="
  M 370.91 236.48
  Q 364.26 245.94 370.68 255.32"
/>
<path stroke="#806908" vector-effect="non-scaling-stroke" d="
  M 106.07 186.43
  L 104.41 177.59
  A 0.34 0.33 80.7 0 1 104.68 177.20
  L 112.05 175.99
  Q 112.38 175.93 112.33 175.60
  L 111.23 168.55
  Q 111.20 168.33 110.98 168.36
  Q 107.19 168.92 103.14 169.52
  C 100.34 169.93 98.36 170.86 98.76 174.00
  Q 99.76 181.91 102.19 191.51
  Q 103.15 195.28 106.99 194.42
  C 109.95 193.76 117.20 192.85 118.60 189.78
  Q 122.19 181.91 126.37 173.95
  A 1.16 1.14 -80.2 0 1 127.20 173.35
  L 133.49 172.28
  A 0.36 0.36 0.0 0 1 133.90 172.57
  L 135.30 180.04
  A 0.42 0.41 79.3 0 1 134.98 180.52
  L 128.57 181.87
  Q 128.04 181.98 128.16 182.51
  L 129.45 188.35
  Q 129.57 188.88 130.10 188.75
  L 138.67 186.68
  A 3.21 3.21 0.0 0 0 141.07 182.96
  L 138.15 167.60
  A 3.00 3.00 0.0 0 0 134.98 165.17
  C 131.92 165.41 124.02 165.63 122.24 168.77
  Q 117.86 176.47 114.05 184.56
  A 1.09 1.09 0.0 0 1 113.27 185.18
  L 106.33 186.61
  Q 106.11 186.66 106.07 186.43"
/>
<path stroke="#806908" vector-effect="non-scaling-stroke" d="
  M 122.34 209.94
  C 123.50 213.45 125.18 220.39 127.77 223.04
  Q 128.12 223.40 128.60 223.48
  Q 130.14 223.73 130.75 223.48
  Q 139.36 220.07 147.90 216.46
  Q 151.08 215.11 149.97 211.84
  L 144.45 195.69
  A 0.64 0.63 -17.1 0 0 143.67 195.28
  L 106.57 206.26
  A 0.67 0.66 -17.8 0 0 106.13 207.11
  L 108.16 213.29
  Q 108.36 213.92 108.99 213.71
  L 121.52 209.52
  A 0.65 0.65 0.0 0 1 122.34 209.94"
/>
<path stroke="#806908" vector-effect="non-scaling-stroke" d="
  M 127.29 246.19
  Q 126.43 244.57 128.07 243.76
  L 152.27 231.69
  Q 153.01 231.32 153.41 232.05
  L 156.68 238.04
  Q 157.14 238.90 156.28 239.36
  L 150.44 242.48
  A 0.39 0.39 0.0 0 0 150.28 243.02
  L 153.24 248.23
  Q 153.48 248.65 153.89 248.41
  L 161.51 243.90
  Q 164.56 242.10 162.92 238.95
  L 156.30 226.27
  Q 154.72 223.25 151.62 224.67
  Q 138.53 230.64 125.09 236.88
  C 121.21 238.68 118.19 239.34 120.60 244.20
  Q 125.45 253.96 128.53 258.98
  Q 130.47 262.14 133.76 260.26
  Q 137.67 258.02 141.13 255.91
  A 0.90 0.89 -30.3 0 0 141.45 254.71
  L 138.82 249.95
  Q 138.37 249.13 137.55 249.58
  L 132.59 252.31
  Q 131.02 253.18 130.17 251.59
  L 127.29 246.19"
/>
<path stroke="#806908" vector-effect="non-scaling-stroke" d="
  M 163.81 275.53
  A 0.64 0.64 0.0 0 1 164.83 275.05
  Q 167.88 277.33 170.73 275.23
  Q 174.91 272.15 178.70 269.09
  Q 181.46 266.87 179.42 263.97
  L 169.70 250.26
  Q 169.43 249.89 169.05 250.13
  L 136.36 271.39
  A 0.52 0.51 57.1 0 0 136.21 272.11
  Q 141.92 280.73 148.48 288.79
  Q 150.93 291.80 153.88 289.42
  Q 158.31 285.84 162.62 282.11
  C 165.40 279.70 163.67 278.28 163.81 275.53"
/>
<path stroke="#806908" vector-effect="non-scaling-stroke" d="
  M 187.42 319.85
  L 184.12 325.52
  Q 183.83 326.02 184.28 326.38
  L 189.48 330.59
  Q 189.83 330.88 190.02 330.47
  Q 198.42 312.25 208.19 294.72
  A 0.62 0.62 0.0 0 0 208.07 293.96
  L 203.80 290.03
  A 0.69 0.69 0.0 0 0 202.94 289.98
  Q 186.68 301.64 169.60 312.08
  A 0.41 0.40 51.6 0 0 169.53 312.72
  L 174.33 317.40
  A 0.47 0.47 0.0 0 0 174.94 317.44
  L 180.38 313.41
  A 0.63 0.63 0.0 0 1 181.19 313.45
  L 187.28 318.92
  Q 187.73 319.33 187.42 319.85"
/>
<path stroke="#806908" vector-effect="non-scaling-stroke" d="
  M 227.08 315.57
  A 0.50 0.50 0.0 0 1 227.77 315.43
  L 232.94 318.83
  A 0.50 0.50 0.0 0 0 233.64 318.68
  L 235.88 315.11
  A 0.50 0.50 0.0 0 0 235.74 314.43
  L 219.57 303.43
  A 0.50 0.50 0.0 0 0 218.89 303.54
  L 216.39 306.86
  A 0.50 0.50 0.0 0 0 216.49 307.57
  L 221.53 311.26
  A 0.50 0.50 0.0 0 1 221.65 311.95
  L 202.32 339.58
  A 0.50 0.50 0.0 0 0 202.45 340.28
  L 207.87 343.99
  A 0.50 0.50 0.0 0 0 208.57 343.85
  L 227.08 315.57"
/>
<path stroke="#806908" vector-effect="non-scaling-stroke" d="
  M 258.29 363.45
  A 0.56 0.56 0.0 0 1 257.55 363.78
  L 249.10 360.32
  Q 248.69 360.15 248.87 359.74
  L 262.04 329.00
  A 1.02 1.02 0.0 0 0 261.52 327.67
  L 257.40 325.82
  A 0.96 0.95 -65.3 0 0 256.14 326.29
  L 241.10 358.69
  A 3.31 3.31 0.0 0 0 242.70 363.08
  Q 250.85 366.88 259.15 369.97
  Q 263.40 371.56 264.81 367.50
  Q 270.61 350.74 276.39 334.06
  A 0.54 0.53 -70.5 0 0 276.07 333.38
  L 270.82 331.48
  A 0.41 0.41 0.0 0 0 270.30 331.72
  L 258.29 363.45"
/>
<path stroke="#806908" vector-effect="non-scaling-stroke" d="
  M 290.81 343.20
  L 298.64 345.11
  A 0.35 0.35 0.0 0 1 298.90 345.52
  L 297.36 352.73
  Q 297.32 352.93 297.52 352.97
  L 303.81 354.24
  A 0.36 0.36 0.0 0 0 304.24 353.95
  L 305.93 344.31
  A 2.89 2.88 11.9 0 0 303.77 341.01
  L 288.82 337.38
  Q 285.52 336.58 284.55 339.84
  Q 279.99 355.23 275.52 370.77
  Q 274.32 374.92 278.77 376.06
  Q 291.48 379.30 295.24 380.01
  Q 299.20 380.76 299.84 377.51
  Q 300.82 372.52 301.60 367.80
  A 0.43 0.43 0.0 0 0 301.26 367.31
  L 294.85 366.11
  A 0.51 0.51 0.0 0 0 294.26 366.52
  L 292.88 373.54
  Q 292.74 374.24 292.04 374.08
  L 283.74 372.12
  Q 283.00 371.94 283.19 371.21
  L 290.45 343.42
  Q 290.52 343.13 290.81 343.20"
/>
<path stroke="#806908" vector-effect="non-scaling-stroke" d="
  M 320.18 366.39
  A 0.40 0.40 0.0 0 1 320.61 366.03
  L 330.76 366.86
  A 0.40 0.40 0.0 0 0 331.19 366.48
  L 331.45 362.07
  A 0.40 0.40 0.0 0 0 331.08 361.65
  L 321.16 360.96
  A 0.40 0.40 0.0 0 1 320.79 360.52
  L 321.90 349.51
  A 0.40 0.40 0.0 0 1 322.33 349.15
  L 333.48 349.95
  A 0.40 0.40 0.0 0 0 333.91 349.57
  L 334.15 345.18
  A 0.40 0.40 0.0 0 0 333.79 344.76
  L 316.32 343.14
  A 0.40 0.40 0.0 0 0 315.89 343.48
  L 310.49 382.26
  A 0.40 0.40 0.0 0 0 310.83 382.71
  L 317.93 383.61
  A 0.40 0.40 0.0 0 0 318.37 383.25
  L 320.18 366.39"
/>
<path stroke="#806908" vector-effect="non-scaling-stroke" d="
  M 127.60 207.61
  A 0.61 0.61 0.0 0 0 127.22 208.38
  L 129.62 215.47
  A 0.61 0.61 0.0 0 0 130.41 215.85
  L 143.62 210.93
  A 0.61 0.61 0.0 0 0 143.98 210.15
  L 141.64 203.57
  A 0.61 0.61 0.0 0 0 140.87 203.20
  L 127.60 207.61"
/>
<path stroke="#806908" vector-effect="non-scaling-stroke" d="
  M 159.94 264.31
  A 1.09 1.09 0.0 0 0 159.79 265.97
  L 164.38 270.56
  A 1.09 1.09 0.0 0 0 165.79 270.66
  L 172.94 265.38
  A 1.09 1.09 0.0 0 0 173.17 263.85
  L 169.57 258.94
  A 1.09 1.09 0.0 0 0 168.07 258.68
  L 159.94 264.31"
/>
<path stroke="#806908" vector-effect="non-scaling-stroke" d="
  M 159.44 275.70
  A 0.70 0.70 0.0 0 0 159.63 274.82
  L 156.04 267.97
  A 0.70 0.70 0.0 0 0 155.02 267.72
  L 144.95 274.74
  A 0.70 0.70 0.0 0 0 144.79 275.73
  L 149.54 282.31
  A 0.70 0.70 0.0 0 0 150.53 282.46
  L 159.44 275.70"
/>
<path stroke="#806908" vector-effect="non-scaling-stroke" d="
  M 185.30 309.77
  A 0.34 0.34 0.0 0 0 185.28 310.30
  L 189.94 314.47
  A 0.34 0.34 0.0 0 0 190.46 314.39
  L 198.73 300.45
  A 0.34 0.34 0.0 0 0 198.23 300.01
  L 185.30 309.77"
/>
</g>
<path fill="#000910" d="
  M 159.99 94.63
  L 155.95 93.78
  A 0.58 0.58 0.0 0 1 155.58 92.91
  Q 156.07 92.11 155.86 91.22
  Q 155.72 90.64 156.29 90.48
  L 168.50 87.05
  Q 169.62 86.74 168.49 86.46
  L 161.84 84.86
  Q 161.45 84.76 161.06 84.89
  L 157.74 85.95
  A 0.36 0.36 0.0 0 1 157.28 85.51
  Q 160.67 72.41 165.85 59.91
  A 0.57 0.55 -87.2 0 1 166.19 59.59
  L 310.77 12.23
  A 0.32 0.31 -9.0 0 1 311.18 12.52
  L 311.58 322.20
  Q 311.58 322.86 310.92 322.73
  Q 298.77 320.17 287.00 316.25
  Q 286.44 316.06 286.44 315.47
  L 286.67 282.24
  Q 286.67 281.80 286.24 281.80
  L 224.23 281.70
  Q 223.82 281.70 223.51 281.43
  L 216.78 275.75
  Q 216.12 275.19 216.99 275.19
  L 286.01 275.20
  A 0.46 0.46 0.0 0 0 286.47 274.74
  L 285.55 98.25
  Q 285.55 97.71 285.03 97.85
  L 211.69 117.93
  Q 211.27 118.04 211.27 118.47
  L 211.24 131.24
  A 0.35 0.34 -6.2 0 0 211.66 131.57
  Q 224.56 128.58 237.06 125.63
  C 243.24 124.17 246.02 127.29 246.02 133.13
  Q 246.02 171.31 246.02 209.50
  C 246.02 214.13 242.60 215.22 238.44 215.37
  Q 206.60 216.47 174.75 217.58
  C 171.23 217.70 168.82 213.52 168.83 210.38
  Q 168.98 178.56 169.14 146.75
  Q 169.16 142.00 173.78 140.84
  Q 188.25 137.21 202.73 133.52
  Q 203.14 133.42 203.14 133.00
  L 203.12 120.24
  A 0.32 0.31 83.5 0 0 202.74 119.93
  L 163.26 128.80
  A 0.24 0.23 83.9 0 0 163.08 129.03
  L 163.14 196.73
  Q 163.14 197.93 162.73 196.80
  Q 147.36 154.24 152.88 109.19
  A 0.72 0.71 85.7 0 1 153.39 108.59
  L 162.24 106.12
  Q 163.02 105.90 162.25 105.64
  Q 158.32 104.32 154.20 103.95
  Q 153.90 103.92 153.67 103.22
  Q 153.60 103.00 153.71 102.66
  A 0.59 0.58 -87.9 0 1 154.11 102.28
  L 169.74 97.87
  Q 171.09 97.49 169.74 97.11
  C 166.90 96.33 164.27 95.21 161.21 96.09
  Q 158.13 96.97 155.10 97.86
  Q 154.67 97.99 154.70 97.54
  L 154.73 96.96
  Q 154.74 96.62 155.07 96.53
  L 160.01 95.17
  Q 161.13 94.86 159.99 94.63
  Z
  M 242.26 61.29
  A 0.34 0.34 0.0 0 0 242.27 61.94
  L 248.84 63.55
  A 0.34 0.34 0.0 0 0 249.02 63.55
  L 264.71 59.08
  A 0.34 0.34 0.0 0 0 264.69 58.43
  L 258.07 56.82
  A 0.34 0.34 0.0 0 0 257.89 56.82
  L 242.26 61.29
  Z
  M 252.23 63.79
  A 0.31 0.31 0.0 0 0 252.24 64.39
  L 258.93 66.01
  A 0.31 0.31 0.0 0 0 259.09 66.01
  L 274.80 61.52
  A 0.31 0.31 0.0 0 0 274.79 60.92
  L 268.11 59.29
  A 0.31 0.31 0.0 0 0 267.95 59.29
  L 252.23 63.79
  Z
  M 285.14 64.02
  A 0.31 0.31 0.0 0 0 285.13 63.42
  L 278.41 61.83
  A 0.31 0.31 0.0 0 0 278.25 61.83
  L 262.70 66.26
  A 0.31 0.31 0.0 0 0 262.71 66.86
  L 269.21 68.50
  A 0.31 0.31 0.0 0 0 269.37 68.50
  L 285.14 64.02
  Z
  M 245.32 64.70
  A 0.32 0.32 0.0 0 0 245.31 64.08
  L 238.80 62.43
  A 0.32 0.32 0.0 0 0 238.64 62.43
  L 222.81 66.93
  A 0.32 0.32 0.0 0 0 222.82 67.55
  L 229.53 69.17
  A 0.32 0.32 0.0 0 0 229.69 69.17
  L 245.32 64.70
  Z
  M 295.17 66.51
  A 0.31 0.31 0.0 0 0 295.16 65.91
  L 288.44 64.25
  A 0.31 0.31 0.0 0 0 288.28 64.25
  L 272.56 68.72
  A 0.31 0.31 0.0 0 0 272.57 69.32
  L 279.43 70.93
  A 0.31 0.31 0.0 0 0 279.59 70.93
  L 295.17 66.51
  Z
  M 255.39 67.11
  A 0.31 0.31 0.0 0 0 255.38 66.51
  L 248.71 64.88
  A 0.31 0.31 0.0 0 0 248.55 64.88
  L 232.93 69.34
  A 0.31 0.31 0.0 0 0 232.94 69.94
  L 239.45 71.59
  A 0.31 0.31 0.0 0 0 239.61 71.59
  L 255.39 67.11
  Z
  M 243.27 71.85
  A 0.32 0.32 0.0 0 0 243.28 72.47
  L 249.96 74.07
  A 0.32 0.32 0.0 0 0 250.12 74.07
  L 265.60 69.66
  A 0.32 0.32 0.0 0 0 265.59 69.04
  L 259.05 67.38
  A 0.32 0.32 0.0 0 0 258.89 67.38
  L 243.27 71.85
  Z
  M 226.15 70.14
  A 0.31 0.31 0.0 0 0 226.14 69.54
  L 219.26 67.95
  A 0.31 0.31 0.0 0 0 219.10 67.95
  L 203.49 72.41
  A 0.31 0.31 0.0 0 0 203.50 73.00
  L 210.00 74.67
  A 0.31 0.31 0.0 0 0 210.16 74.67
  L 226.15 70.14
  Z
  M 253.33 74.34
  A 0.30 0.30 0.0 0 0 253.34 74.91
  L 259.88 76.59
  A 0.30 0.30 0.0 0 0 260.04 76.59
  L 275.85 72.11
  A 0.30 0.30 0.0 0 0 275.84 71.53
  L 269.04 69.88
  A 0.30 0.30 0.0 0 0 268.88 69.88
  L 253.33 74.34
  Z
  M 235.93 72.58
  A 0.31 0.31 0.0 0 0 235.92 71.98
  L 229.30 70.35
  A 0.31 0.31 0.0 0 0 229.14 70.35
  L 213.56 74.82
  A 0.31 0.31 0.0 0 0 213.57 75.42
  L 220.12 77.06
  A 0.31 0.31 0.0 0 0 220.28 77.06
  L 235.93 72.58
  Z
  M 246.29 75.14
  A 0.31 0.31 0.0 0 0 246.28 74.54
  L 239.59 72.89
  A 0.31 0.31 0.0 0 0 239.43 72.89
  L 223.91 77.37
  A 0.31 0.31 0.0 0 0 223.92 77.97
  L 230.47 79.58
  A 0.31 0.31 0.0 0 0 230.63 79.58
  L 246.29 75.14
  Z
  M 184.48 78.19
  A 0.30 0.30 0.0 0 0 184.48 78.77
  L 190.97 80.46
  A 0.30 0.30 0.0 0 0 191.13 80.46
  L 206.95 75.96
  A 0.30 0.30 0.0 0 0 206.94 75.38
  L 200.32 73.72
  A 0.30 0.30 0.0 0 0 200.16 73.72
  L 184.48 78.19
  Z
  M 256.42 77.60
  A 0.31 0.31 0.0 0 0 256.41 77.00
  L 249.60 75.37
  A 0.31 0.31 0.0 0 0 249.44 75.37
  L 233.89 79.84
  A 0.31 0.31 0.0 0 0 233.91 80.43
  L 240.65 82.05
  A 0.31 0.31 0.0 0 0 240.81 82.05
  L 256.42 77.60
  Z
  M 194.49 80.61
  A 0.31 0.31 0.0 0 0 194.50 81.21
  L 201.11 82.85
  A 0.31 0.31 0.0 0 0 201.27 82.85
  L 216.96 78.35
  A 0.31 0.31 0.0 0 0 216.95 77.75
  L 210.25 76.15
  A 0.31 0.31 0.0 0 0 210.09 76.15
  L 194.49 80.61
  Z
  M 227.15 80.90
  A 0.30 0.30 0.0 0 0 227.14 80.32
  L 220.55 78.67
  A 0.30 0.30 0.0 0 0 220.39 78.67
  L 204.83 83.11
  A 0.30 0.30 0.0 0 0 204.84 83.69
  L 211.44 85.35
  A 0.30 0.30 0.0 0 0 211.60 85.35
  L 227.15 80.90
  Z
  M 165.40 83.84
  A 0.33 0.33 0.0 0 0 165.41 84.48
  L 172.01 86.10
  A 0.33 0.33 0.0 0 0 172.18 86.10
  L 187.73 81.65
  A 0.33 0.33 0.0 0 0 187.72 81.01
  L 181.35 79.34
  A 0.33 0.33 0.0 0 0 181.17 79.34
  L 165.40 83.84
  Z
  M 237.26 83.42
  A 0.32 0.32 0.0 0 0 237.25 82.81
  L 230.69 81.12
  A 0.32 0.32 0.0 0 0 230.53 81.12
  L 214.92 85.60
  A 0.32 0.32 0.0 0 0 214.93 86.22
  L 221.52 87.86
  A 0.32 0.32 0.0 0 0 221.68 87.86
  L 237.26 83.42
  Z
  M 175.62 86.22
  A 0.35 0.35 0.0 0 0 175.63 86.89
  L 181.97 88.53
  A 0.35 0.35 0.0 0 0 182.15 88.52
  L 197.75 84.06
  A 0.35 0.35 0.0 0 0 197.74 83.38
  L 191.19 81.83
  A 0.35 0.35 0.0 0 0 191.01 81.83
  L 175.62 86.22
  Z
  M 208.13 86.56
  A 0.31 0.31 0.0 0 0 208.12 85.96
  L 201.51 84.32
  A 0.31 0.31 0.0 0 0 201.35 84.32
  L 185.70 88.81
  A 0.31 0.31 0.0 0 0 185.71 89.41
  L 192.45 91.01
  A 0.31 0.31 0.0 0 0 192.61 91.01
  L 208.13 86.56
  Z
  M 195.92 91.22
  A 0.31 0.31 0.0 0 0 195.93 91.81
  L 202.42 93.48
  A 0.31 0.31 0.0 0 0 202.58 93.48
  L 218.34 89.04
  A 0.31 0.31 0.0 0 0 218.33 88.44
  L 211.62 86.79
  A 0.31 0.31 0.0 0 0 211.46 86.79
  L 195.92 91.22
  Z
  M 178.30 89.56
  A 0.33 0.33 0.0 0 0 178.29 88.92
  L 171.84 87.27
  A 0.33 0.33 0.0 0 0 171.66 87.27
  L 155.94 91.79
  A 0.33 0.33 0.0 0 0 155.96 92.43
  L 162.70 93.99
  A 0.33 0.33 0.0 0 0 162.86 93.99
  L 178.30 89.56
  Z
  M 166.19 94.29
  A 0.30 0.30 0.0 0 0 166.21 94.87
  L 172.98 96.47
  A 0.30 0.30 0.0 0 0 173.13 96.47
  L 188.77 92.02
  A 0.30 0.30 0.0 0 0 188.76 91.44
  L 181.94 89.82
  A 0.30 0.30 0.0 0 0 181.78 89.82
  L 166.19 94.29
  Z
  M 176.43 96.69
  A 0.33 0.33 0.0 0 0 176.44 97.33
  L 183.07 98.95
  A 0.33 0.33 0.0 0 0 183.23 98.95
  L 198.67 94.55
  A 0.33 0.33 0.0 0 0 198.66 93.92
  L 192.19 92.24
  A 0.33 0.33 0.0 0 0 192.01 92.24
  L 176.43 96.69
  Z
  M 157.64 102.36
  A 0.31 0.31 0.0 0 0 157.65 102.96
  L 164.40 104.61
  A 0.31 0.31 0.0 0 0 164.56 104.61
  L 180.13 100.17
  A 0.31 0.31 0.0 0 0 180.12 99.57
  L 173.40 97.95
  A 0.31 0.31 0.0 0 0 173.24 97.95
  L 157.64 102.36
  Z
  M 199.03 201.05
  Q 200.44 199.22 201.91 197.45
  Q 207.98 190.10 209.36 180.64
  C 210.91 170.08 210.42 161.04 204.59 151.91
  Q 202.39 148.47 199.18 146.96
  Q 198.10 146.46 199.29 146.40
  L 202.84 146.24
  Q 203.17 146.22 203.17 145.89
  L 203.16 139.98
  Q 203.16 139.54 202.72 139.63
  L 173.80 146.10
  A 1.12 1.11 84.2 0 0 172.93 147.18
  L 172.61 212.56
  Q 172.60 213.26 173.31 213.24
  L 240.78 211.48
  Q 241.28 211.46 241.28 210.97
  L 240.39 131.67
  Q 240.39 131.19 239.93 131.30
  L 211.62 137.64
  Q 211.12 137.75 211.14 138.26
  L 211.37 145.74
  Q 211.39 146.26 211.90 146.33
  Q 225.22 148.13 229.92 160.81
  C 235.32 175.37 231.85 191.39 219.33 201.04
  Q 218.94 201.34 218.44 201.35
  L 199.27 201.54
  Q 198.65 201.54 199.03 201.05
  Z"
/>
<path fill="#000910" d="
  M 354.88 316.23
  C 355.34 315.92 356.21 314.86 356.83 314.39
  C 371.49 303.25 386.98 308.10 397.58 322.03
  A 0.17 0.17 0.0 0 1 397.48 322.30
  L 391.83 323.46
  Q 391.54 323.52 391.35 323.30
  Q 387.10 318.36 381.12 315.81
  Q 380.62 315.60 380.69 316.13
  L 381.83 324.57
  A 0.50 0.49 82.6 0 1 381.40 325.13
  L 378.74 325.46
  Q 378.23 325.53 378.23 325.01
  Q 378.32 319.79 376.42 314.94
  A 0.83 0.82 -8.7 0 0 375.69 314.41
  Q 366.04 313.97 359.11 320.57
  Q 358.68 320.97 359.23 321.19
  Q 363.03 322.69 365.65 325.84
  Q 366.33 326.66 365.27 326.70
  L 362.75 326.79
  Q 361.80 326.82 361.08 326.21
  Q 359.19 324.58 356.73 324.06
  A 1.54 1.52 23.0 0 0 355.17 324.68
  L 353.88 326.57
  Q 353.55 327.04 352.98 327.04
  Q 334.35 326.96 316.02 323.75
  A 0.51 0.50 -85.3 0 1 315.60 323.25
  L 315.60 12.81
  A 0.32 0.32 0.0 0 1 316.02 12.51
  L 432.35 51.49
  A 0.62 0.61 -80.7 0 1 432.76 52.07
  L 432.00 310.99
  A 0.64 0.64 0.0 0 1 431.60 311.58
  Q 419.17 316.62 406.21 320.11
  Q 405.43 320.32 404.98 319.64
  C 392.77 301.05 369.13 297.70 354.34 315.62
  Q 352.55 317.79 354.88 316.23
  Z
  M 350.97 95.00
  Q 350.98 95.01 350.99 95.00
  Q 356.21 88.20 362.53 85.28
  C 381.87 76.38 398.46 92.50 404.34 109.48
  Q 411.95 131.49 405.05 153.80
  C 399.73 170.99 384.36 188.45 364.25 180.99
  Q 359.21 179.12 354.21 174.25
  Q 354.06 174.11 353.91 174.24
  L 353.90 174.25
  Q 353.75 174.39 353.88 174.55
  C 361.61 184.00 373.77 189.36 385.35 186.12
  C 399.41 182.19 409.02 168.14 413.01 154.75
  Q 420.35 130.14 411.64 106.07
  C 407.04 93.34 397.00 81.07 383.63 78.27
  C 370.32 75.48 357.98 83.43 350.70 94.49
  Q 350.56 94.70 350.77 94.85
  L 350.97 95.00
  Z
  M 359.27 95.96
  C 367.76 99.79 371.41 109.46 373.93 117.65
  A 0.77 0.76 82.4 0 0 374.63 118.19
  L 376.19 118.26
  Q 376.59 118.28 376.67 117.89
  C 378.37 109.00 379.15 99.80 377.01 90.72
  A 1.97 1.97 0.0 0 0 375.13 89.20
  Q 365.80 89.01 359.17 95.38
  Q 358.79 95.75 359.27 95.96
  Z
  M 382.65 119.16
  C 386.61 115.32 392.88 106.57 392.68 100.21
  Q 392.66 99.67 392.33 99.24
  Q 387.78 93.41 380.95 90.55
  A 0.31 0.31 0.0 0 0 380.53 90.91
  C 382.65 99.49 381.82 109.70 380.19 117.82
  Q 379.26 122.45 382.65 119.16
  Z
  M 349.53 108.73
  Q 349.18 109.32 349.85 109.44
  C 357.36 110.84 362.90 115.26 367.94 120.83
  Q 368.30 121.22 368.72 120.91
  L 370.38 119.74
  Q 370.82 119.42 370.68 118.90
  C 368.68 111.51 364.47 100.58 356.13 98.70
  A 0.80 0.79 21.3 0 0 355.28 99.07
  L 349.53 108.73
  Z
  M 396.05 104.98
  Q 395.99 104.74 395.83 104.63
  A 0.34 0.34 0.0 0 0 395.31 104.83
  C 393.68 111.78 388.60 118.28 383.67 123.30
  Q 383.25 123.73 383.57 124.25
  Q 385.05 126.62 385.37 129.40
  A 0.56 0.55 -7.6 0 0 386.00 129.88
  Q 396.11 128.45 400.90 119.59
  A 1.49 1.46 53.4 0 0 401.04 118.57
  Q 399.53 111.62 396.18 105.38
  Q 396.12 105.26 396.05 104.98
  Z
  M 365.95 123.92
  C 361.87 118.70 355.48 113.52 348.69 112.83
  A 0.63 0.63 0.0 0 0 348.03 113.26
  Q 345.28 121.75 345.06 130.69
  A 0.31 0.30 81.4 0 0 345.46 130.99
  C 351.55 128.98 357.54 129.97 363.73 130.80
  Q 364.30 130.87 364.38 130.30
  Q 364.75 127.42 366.04 124.81
  Q 366.28 124.34 365.95 123.92
  Z
  M 371.72 122.84
  Q 365.36 126.28 366.26 134.25
  Q 366.84 139.35 371.14 142.51
  C 381.05 151.57 387.82 125.31 376.04 121.73
  Q 374.08 121.13 371.72 122.84
  Z
  M 401.72 125.41
  C 398.48 130.51 392.17 132.68 386.35 133.40
  A 0.65 0.64 -89.4 0 0 385.79 133.95
  L 385.06 138.58
  Q 384.99 139.04 385.43 139.20
  C 389.46 140.60 397.66 142.92 401.70 140.52
  Q 402.11 140.28 402.16 139.81
  Q 402.92 132.68 402.26 125.54
  Q 402.18 124.69 401.72 125.41
  Z
  M 348.33 150.79
  C 351.74 144.29 357.19 140.23 364.17 137.65
  Q 364.70 137.45 364.63 136.88
  L 364.41 135.11
  A 0.73 0.72 2.2 0 0 363.82 134.48
  C 358.68 133.49 350.58 132.39 345.73 134.60
  A 1.03 1.01 77.0 0 0 345.13 135.58
  Q 345.41 143.30 347.59 150.72
  Q 347.87 151.67 348.33 150.79
  Z
  M 360.85 170.96
  C 360.94 161.52 363.93 153.33 367.88 144.95
  Q 368.08 144.52 367.82 144.11
  L 366.02 141.26
  Q 365.72 140.79 365.20 141.01
  Q 354.94 145.45 349.72 155.29
  Q 349.47 155.76 349.67 156.25
  Q 353.23 165.01 360.32 171.20
  Q 360.84 171.65 360.85 170.96
  Z
  M 397.02 158.52
  Q 400.19 151.81 401.49 144.51
  A 0.21 0.21 0.0 0 0 401.21 144.28
  C 396.08 146.22 389.04 144.42 384.17 142.40
  Q 383.63 142.17 383.25 142.62
  L 381.18 145.08
  Q 380.86 145.46 381.08 145.90
  Q 385.94 155.41 396.00 158.95
  Q 396.70 159.19 397.02 158.52
  Z
  M 370.05 148.52
  C 366.16 155.79 364.17 165.18 364.45 173.39
  Q 364.47 173.93 364.96 174.17
  Q 372.98 178.04 381.27 174.72
  A 0.36 0.35 52.8 0 0 381.35 174.11
  C 374.35 168.67 371.45 157.02 371.78 148.99
  Q 371.94 144.98 370.05 148.52
  Z
  M 394.49 161.59
  C 387.88 160.37 381.80 153.82 378.19 147.80
  Q 377.93 147.38 377.44 147.46
  L 375.54 147.78
  Q 375.10 147.85 375.11 148.30
  C 375.32 156.70 377.88 166.86 384.53 172.57
  Q 384.91 172.90 385.32 172.61
  Q 391.17 168.51 394.84 162.37
  Q 395.22 161.73 394.49 161.59
  Z
  M 351.22 207.43
  C 368.30 187.14 392.33 195.48 402.11 217.22
  Q 413.54 242.64 403.97 269.50
  C 396.33 290.94 374.14 306.14 353.96 287.10
  Q 353.85 287.00 353.73 287.10
  L 353.73 287.11
  Q 353.62 287.21 353.71 287.33
  C 367.22 304.22 389.02 303.99 402.58 287.34
  Q 408.18 280.47 411.26 272.17
  Q 421.78 243.84 410.16 215.98
  Q 406.25 206.61 398.97 199.58
  C 385.20 186.28 366.00 188.47 354.18 202.89
  C 353.25 204.03 351.64 205.60 350.87 207.20
  Q 350.17 208.67 351.22 207.43
  Z
  M 376.72 230.89
  C 378.16 222.06 379.06 213.11 377.15 204.41
  Q 376.63 202.03 373.76 202.25
  Q 364.93 202.92 359.15 208.32
  Q 358.72 208.72 359.26 208.96
  C 367.34 212.63 371.71 222.58 373.82 230.65
  A 0.80 0.80 0.0 0 0 374.57 231.25
  L 376.19 231.32
  Q 376.65 231.34 376.72 230.89
  Z
  M 382.69 232.19
  C 387.08 227.98 392.21 219.98 392.81 213.57
  A 1.38 1.37 29.4 0 0 392.53 212.58
  Q 387.92 206.58 380.96 203.60
  Q 380.39 203.35 380.53 203.96
  C 382.50 212.77 381.80 222.39 380.17 230.82
  Q 379.28 235.46 382.69 232.19
  Z
  M 368.69 233.99
  L 370.26 232.77
  Q 370.64 232.48 370.52 232.02
  C 368.57 224.26 364.21 213.40 356.07 211.84
  A 0.88 0.87 -68.7 0 0 355.15 212.25
  L 349.58 221.55
  Q 349.18 222.22 349.94 222.41
  Q 360.83 225.07 367.77 233.88
  A 0.65 0.65 0.0 0 0 368.69 233.99
  Z
  M 395.19 218.31
  C 393.73 224.83 388.26 231.74 383.64 236.41
  A 0.72 0.72 0.0 0 0 383.53 237.29
  Q 384.95 239.71 385.36 242.48
  Q 385.45 243.09 386.06 243.00
  Q 396.04 241.51 400.86 232.74
  A 1.45 1.44 -37.3 0 0 401.00 231.73
  Q 399.40 224.65 396.08 218.20
  Q 395.48 217.03 395.19 218.31
  Z
  M 365.81 236.77
  C 361.54 231.65 355.41 226.58 348.76 225.92
  Q 348.16 225.86 347.98 226.44
  Q 345.35 234.87 345.03 243.70
  Q 345.01 244.19 345.47 244.04
  C 351.46 242.19 357.66 242.97 363.65 243.92
  A 0.73 0.73 0.0 0 0 364.49 243.25
  Q 364.69 240.56 365.95 238.20
  Q 366.36 237.43 365.81 236.77
  Z
  M 370.91 236.48
  Q 364.26 245.94 370.68 255.32
  C 380.30 264.76 387.36 241.07 377.52 235.38
  Q 374.54 233.66 370.91 236.48
  Z
  M 401.73 238.63
  C 397.96 243.72 392.43 245.70 386.37 246.52
  Q 385.85 246.60 385.77 247.11
  L 385.04 251.60
  Q 384.96 252.13 385.47 252.31
  C 389.52 253.71 397.14 255.85 401.55 253.73
  Q 402.08 253.48 402.15 252.89
  Q 402.89 245.83 402.25 238.78
  Q 402.18 238.02 401.73 238.63
  Z
  M 348.14 263.99
  Q 353.49 254.24 364.10 250.75
  A 0.73 0.72 76.8 0 0 364.59 249.95
  L 364.37 248.28
  Q 364.28 247.62 363.62 247.49
  C 359.54 246.70 348.46 245.25 345.41 247.93
  A 1.05 1.04 -22.0 0 0 345.07 248.72
  Q 345.35 256.48 347.57 263.93
  A 0.31 0.31 0.0 0 0 348.14 263.99
  Z
  M 360.88 284.25
  C 360.23 275.13 364.20 266.18 367.76 258.03
  Q 367.99 257.52 367.69 257.04
  L 365.98 254.35
  Q 365.63 253.81 365.04 254.07
  Q 354.81 258.55 349.62 268.38
  A 1.00 0.96 -42.5 0 0 349.57 269.21
  Q 353.14 278.22 360.52 284.44
  A 0.22 0.22 0.0 0 0 360.88 284.25
  Z
  M 397.10 271.46
  C 399.00 266.90 400.64 262.61 401.40 257.75
  A 0.30 0.30 0.0 0 0 401.00 257.42
  C 395.90 259.37 388.79 257.41 383.93 255.42
  Q 383.48 255.24 383.18 255.63
  L 381.18 258.31
  Q 380.90 258.69 381.12 259.11
  Q 385.94 268.44 395.79 272.03
  Q 396.72 272.37 397.10 271.46
  Z
  M 364.97 287.25
  Q 372.95 291.11 381.21 287.87
  A 0.39 0.38 53.8 0 0 381.31 287.21
  C 374.02 281.30 371.41 269.89 371.63 261.00
  Q 371.65 260.31 371.29 259.91
  A 0.31 0.31 0.0 0 0 370.78 259.98
  C 366.74 267.99 363.80 277.53 364.49 286.55
  A 0.86 0.85 -79.7 0 0 364.97 287.25
  Z
  M 394.86 274.83
  C 387.16 272.63 382.20 267.39 378.08 260.83
  A 0.74 0.74 0.0 0 0 377.22 260.52
  Q 376.49 260.76 375.73 260.76
  Q 375.12 260.75 375.13 261.36
  C 375.23 269.69 377.89 279.98 384.49 285.56
  Q 384.98 285.98 385.51 285.60
  Q 391.32 281.37 395.00 275.18
  A 0.24 0.23 24.0 0 0 394.86 274.83
  Z"
/>
<path fill="#000910" d="
  M 396.05 392.88
  Q 388.49 414.76 381.23 436.75
  Q 380.13 440.08 376.73 440.63
  C 358.81 443.51 343.53 443.26 322.89 443.16
  C 315.88 443.12 308.70 441.49 301.24 440.89
  C 298.23 440.64 296.74 438.09 295.74 435.01
  Q 288.99 414.30 282.11 393.63
  Q 280.54 388.91 276.00 387.78
  C 254.17 382.31 235.54 375.18 218.19 364.37
  C 212.48 360.82 207.64 359.81 200.90 361.84
  Q 195.52 363.47 190.46 365.94
  Q 176.28 372.88 162.41 380.43
  C 151.44 386.40 111.87 338.84 104.95 330.48
  C 102.24 327.20 99.71 325.05 101.92 320.56
  Q 111.84 300.42 121.85 280.31
  C 123.91 276.18 123.10 273.95 120.73 269.91
  Q 103.27 240.21 94.78 206.74
  Q 93.47 201.54 88.38 199.85
  Q 67.42 192.90 46.47 185.94
  Q 43.94 185.10 42.80 183.47
  C 40.15 179.66 40.69 172.82 40.13 168.39
  Q 39.38 162.54 39.31 159.07
  C 38.88 137.06 39.04 121.83 41.76 104.63
  A 2.65 2.65 0.0 0 1 43.51 102.54
  L 157.25 63.55
  A 0.22 0.22 0.0 0 1 157.53 63.85
  C 130.85 128.23 141.91 200.80 185.21 255.05
  C 223.72 303.30 281.17 329.05 341.77 334.82
  C 372.92 337.79 403.43 331.31 432.02 319.16
  A 0.36 0.35 78.6 0 1 432.51 319.49
  L 432.52 377.23
  A 0.66 0.64 79.6 0 1 432.11 377.84
  Q 416.98 383.84 401.33 387.84
  Q 397.45 388.83 396.05 392.88
  Z
  M 106.07 186.43
  L 104.41 177.59
  A 0.34 0.33 80.7 0 1 104.68 177.20
  L 112.05 175.99
  Q 112.38 175.93 112.33 175.60
  L 111.23 168.55
  Q 111.20 168.33 110.98 168.36
  Q 107.19 168.92 103.14 169.52
  C 100.34 169.93 98.36 170.86 98.76 174.00
  Q 99.76 181.91 102.19 191.51
  Q 103.15 195.28 106.99 194.42
  C 109.95 193.76 117.20 192.85 118.60 189.78
  Q 122.19 181.91 126.37 173.95
  A 1.16 1.14 -80.2 0 1 127.20 173.35
  L 133.49 172.28
  A 0.36 0.36 0.0 0 1 133.90 172.57
  L 135.30 180.04
  A 0.42 0.41 79.3 0 1 134.98 180.52
  L 128.57 181.87
  Q 128.04 181.98 128.16 182.51
  L 129.45 188.35
  Q 129.57 188.88 130.10 188.75
  L 138.67 186.68
  A 3.21 3.21 0.0 0 0 141.07 182.96
  L 138.15 167.60
  A 3.00 3.00 0.0 0 0 134.98 165.17
  C 131.92 165.41 124.02 165.63 122.24 168.77
  Q 117.86 176.47 114.05 184.56
  A 1.09 1.09 0.0 0 1 113.27 185.18
  L 106.33 186.61
  Q 106.11 186.66 106.07 186.43
  Z
  M 122.34 209.94
  C 123.50 213.45 125.18 220.39 127.77 223.04
  Q 128.12 223.40 128.60 223.48
  Q 130.14 223.73 130.75 223.48
  Q 139.36 220.07 147.90 216.46
  Q 151.08 215.11 149.97 211.84
  L 144.45 195.69
  A 0.64 0.63 -17.1 0 0 143.67 195.28
  L 106.57 206.26
  A 0.67 0.66 -17.8 0 0 106.13 207.11
  L 108.16 213.29
  Q 108.36 213.92 108.99 213.71
  L 121.52 209.52
  A 0.65 0.65 0.0 0 1 122.34 209.94
  Z
  M 127.29 246.19
  Q 126.43 244.57 128.07 243.76
  L 152.27 231.69
  Q 153.01 231.32 153.41 232.05
  L 156.68 238.04
  Q 157.14 238.90 156.28 239.36
  L 150.44 242.48
  A 0.39 0.39 0.0 0 0 150.28 243.02
  L 153.24 248.23
  Q 153.48 248.65 153.89 248.41
  L 161.51 243.90
  Q 164.56 242.10 162.92 238.95
  L 156.30 226.27
  Q 154.72 223.25 151.62 224.67
  Q 138.53 230.64 125.09 236.88
  C 121.21 238.68 118.19 239.34 120.60 244.20
  Q 125.45 253.96 128.53 258.98
  Q 130.47 262.14 133.76 260.26
  Q 137.67 258.02 141.13 255.91
  A 0.90 0.89 -30.3 0 0 141.45 254.71
  L 138.82 249.95
  Q 138.37 249.13 137.55 249.58
  L 132.59 252.31
  Q 131.02 253.18 130.17 251.59
  L 127.29 246.19
  Z
  M 163.81 275.53
  A 0.64 0.64 0.0 0 1 164.83 275.05
  Q 167.88 277.33 170.73 275.23
  Q 174.91 272.15 178.70 269.09
  Q 181.46 266.87 179.42 263.97
  L 169.70 250.26
  Q 169.43 249.89 169.05 250.13
  L 136.36 271.39
  A 0.52 0.51 57.1 0 0 136.21 272.11
  Q 141.92 280.73 148.48 288.79
  Q 150.93 291.80 153.88 289.42
  Q 158.31 285.84 162.62 282.11
  C 165.40 279.70 163.67 278.28 163.81 275.53
  Z
  M 187.42 319.85
  L 184.12 325.52
  Q 183.83 326.02 184.28 326.38
  L 189.48 330.59
  Q 189.83 330.88 190.02 330.47
  Q 198.42 312.25 208.19 294.72
  A 0.62 0.62 0.0 0 0 208.07 293.96
  L 203.80 290.03
  A 0.69 0.69 0.0 0 0 202.94 289.98
  Q 186.68 301.64 169.60 312.08
  A 0.41 0.40 51.6 0 0 169.53 312.72
  L 174.33 317.40
  A 0.47 0.47 0.0 0 0 174.94 317.44
  L 180.38 313.41
  A 0.63 0.63 0.0 0 1 181.19 313.45
  L 187.28 318.92
  Q 187.73 319.33 187.42 319.85
  Z
  M 227.08 315.57
  A 0.50 0.50 0.0 0 1 227.77 315.43
  L 232.94 318.83
  A 0.50 0.50 0.0 0 0 233.64 318.68
  L 235.88 315.11
  A 0.50 0.50 0.0 0 0 235.74 314.43
  L 219.57 303.43
  A 0.50 0.50 0.0 0 0 218.89 303.54
  L 216.39 306.86
  A 0.50 0.50 0.0 0 0 216.49 307.57
  L 221.53 311.26
  A 0.50 0.50 0.0 0 1 221.65 311.95
  L 202.32 339.58
  A 0.50 0.50 0.0 0 0 202.45 340.28
  L 207.87 343.99
  A 0.50 0.50 0.0 0 0 208.57 343.85
  L 227.08 315.57
  Z
  M 258.29 363.45
  A 0.56 0.56 0.0 0 1 257.55 363.78
  L 249.10 360.32
  Q 248.69 360.15 248.87 359.74
  L 262.04 329.00
  A 1.02 1.02 0.0 0 0 261.52 327.67
  L 257.40 325.82
  A 0.96 0.95 -65.3 0 0 256.14 326.29
  L 241.10 358.69
  A 3.31 3.31 0.0 0 0 242.70 363.08
  Q 250.85 366.88 259.15 369.97
  Q 263.40 371.56 264.81 367.50
  Q 270.61 350.74 276.39 334.06
  A 0.54 0.53 -70.5 0 0 276.07 333.38
  L 270.82 331.48
  A 0.41 0.41 0.0 0 0 270.30 331.72
  L 258.29 363.45
  Z
  M 290.81 343.20
  L 298.64 345.11
  A 0.35 0.35 0.0 0 1 298.90 345.52
  L 297.36 352.73
  Q 297.32 352.93 297.52 352.97
  L 303.81 354.24
  A 0.36 0.36 0.0 0 0 304.24 353.95
  L 305.93 344.31
  A 2.89 2.88 11.9 0 0 303.77 341.01
  L 288.82 337.38
  Q 285.52 336.58 284.55 339.84
  Q 279.99 355.23 275.52 370.77
  Q 274.32 374.92 278.77 376.06
  Q 291.48 379.30 295.24 380.01
  Q 299.20 380.76 299.84 377.51
  Q 300.82 372.52 301.60 367.80
  A 0.43 0.43 0.0 0 0 301.26 367.31
  L 294.85 366.11
  A 0.51 0.51 0.0 0 0 294.26 366.52
  L 292.88 373.54
  Q 292.74 374.24 292.04 374.08
  L 283.74 372.12
  Q 283.00 371.94 283.19 371.21
  L 290.45 343.42
  Q 290.52 343.13 290.81 343.20
  Z
  M 320.18 366.39
  A 0.40 0.40 0.0 0 1 320.61 366.03
  L 330.76 366.86
  A 0.40 0.40 0.0 0 0 331.19 366.48
  L 331.45 362.07
  A 0.40 0.40 0.0 0 0 331.08 361.65
  L 321.16 360.96
  A 0.40 0.40 0.0 0 1 320.79 360.52
  L 321.90 349.51
  A 0.40 0.40 0.0 0 1 322.33 349.15
  L 333.48 349.95
  A 0.40 0.40 0.0 0 0 333.91 349.57
  L 334.15 345.18
  A 0.40 0.40 0.0 0 0 333.79 344.76
  L 316.32 343.14
  A 0.40 0.40 0.0 0 0 315.89 343.48
  L 310.49 382.26
  A 0.40 0.40 0.0 0 0 310.83 382.71
  L 317.93 383.61
  A 0.40 0.40 0.0 0 0 318.37 383.25
  L 320.18 366.39
  Z"
/>
<rect fill="#ffc900" x="-1.41" y="-57.62" transform="translate(278.13,169.10) rotate(-0.1)" width="2.82" height="115.24" rx="0.28"/>
<path fill="#ffc900" d="
  M 274.88 112.81
  L 274.88 226.61
  A 0.42 0.42 0.0 0 1 274.46 227.03
  L 268.15 227.04
  A 0.42 0.42 0.0 0 1 267.73 226.62
  L 267.70 114.40
  A 0.42 0.42 0.0 0 1 268.02 113.99
  L 274.36 112.40
  A 0.42 0.42 0.0 0 1 274.88 112.81
  Z"
/>
<path fill="#ffc900" d="
  M 261.78 228.30
  L 261.55 115.97
  A 0.40 0.40 0.0 0 1 261.84 115.59
  L 265.25 114.59
  A 0.40 0.40 0.0 0 1 265.76 114.97
  L 266.13 228.12
  A 0.40 0.40 0.0 0 1 265.75 228.52
  L 262.20 228.70
  A 0.40 0.40 0.0 0 1 261.78 228.30
  Z"
/>
<path fill="#ffc900" d="
  M 260.17 116.40
  L 260.13 231.63
  A 0.39 0.39 0.0 0 1 259.74 232.02
  L 253.10 232.02
  A 0.39 0.39 0.0 0 1 252.71 231.63
  L 252.73 118.06
  A 0.39 0.39 0.0 0 1 253.03 117.69
  L 259.69 116.02
  A 0.39 0.39 0.0 0 1 260.17 116.40
  Z"
/>
<path fill="#ffc900" d="
  M 371.72 122.84
  C 377.67 127.06 377.94 138.90 371.14 142.51
  Q 366.84 139.35 366.26 134.25
  Q 365.36 126.28 371.72 122.84
  Z"
/>
<path fill="#ffc900" d="
  M 204.65 173.00
  C 204.46 183.88 201.19 193.03 192.53 200.67
  Q 192.19 200.97 191.77 200.80
  C 184.21 197.75 179.23 190.23 177.09 182.49
  C 173.36 168.95 179.22 155.09 191.04 147.81
  Q 191.47 147.55 191.94 147.74
  C 200.87 151.42 204.79 164.26 204.65 173.00
  Z"
/>
<path fill="#ffc900" d="
  M 106.33 186.61
  L 113.27 185.18
  A 1.09 1.09 0.0 0 0 114.05 184.56
  Q 117.86 176.47 122.24 168.77
  C 124.02 165.63 131.92 165.41 134.98 165.17
  A 3.00 3.00 0.0 0 1 138.15 167.60
  L 141.07 182.96
  A 3.21 3.21 0.0 0 1 138.67 186.68
  L 130.10 188.75
  Q 129.57 188.88 129.45 188.35
  L 128.16 182.51
  Q 128.04 181.98 128.57 181.87
  L 134.98 180.52
  A 0.42 0.41 79.3 0 0 135.30 180.04
  L 133.90 172.57
  A 0.36 0.36 0.0 0 0 133.49 172.28
  L 127.20 173.35
  A 1.16 1.14 -80.2 0 0 126.37 173.95
  Q 122.19 181.91 118.60 189.78
  C 117.20 192.85 109.95 193.76 106.99 194.42
  Q 103.15 195.28 102.19 191.51
  Q 99.76 181.91 98.76 174.00
  C 98.36 170.86 100.34 169.93 103.14 169.52
  Q 107.19 168.92 110.98 168.36
  Q 111.20 168.33 111.23 168.55
  L 112.33 175.60
  Q 112.38 175.93 112.05 175.99
  L 104.68 177.20
  A 0.34 0.33 80.7 0 0 104.41 177.59
  L 106.07 186.43
  Q 106.11 186.66 106.33 186.61
  Z"
/>
<path fill="#ffc900" d="
  M 122.34 209.94
  A 0.65 0.65 0.0 0 0 121.52 209.52
  L 108.99 213.71
  Q 108.36 213.92 108.16 213.29
  L 106.13 207.11
  A 0.67 0.66 -17.8 0 1 106.57 206.26
  L 143.67 195.28
  A 0.64 0.63 -17.1 0 1 144.45 195.69
  L 149.97 211.84
  Q 151.08 215.11 147.90 216.46
  Q 139.36 220.07 130.75 223.48
  Q 130.14 223.73 128.60 223.48
  Q 128.12 223.40 127.77 223.04
  C 125.18 220.39 123.50 213.45 122.34 209.94
  Z
  M 127.60 207.61
  A 0.61 0.61 0.0 0 0 127.22 208.38
  L 129.62 215.47
  A 0.61 0.61 0.0 0 0 130.41 215.85
  L 143.62 210.93
  A 0.61 0.61 0.0 0 0 143.98 210.15
  L 141.64 203.57
  A 0.61 0.61 0.0 0 0 140.87 203.20
  L 127.60 207.61
  Z"
/>
<path fill="#000910" d="
  M 127.60 207.61
  L 140.87 203.20
  A 0.61 0.61 0.0 0 1 141.64 203.57
  L 143.98 210.15
  A 0.61 0.61 0.0 0 1 143.62 210.93
  L 130.41 215.85
  A 0.61 0.61 0.0 0 1 129.62 215.47
  L 127.22 208.38
  A 0.61 0.61 0.0 0 1 127.60 207.61
  Z"
/>
<rect fill="#ffc900" x="-36.22" y="-1.47" transform="translate(209.80,220.25) rotate(-1.8)" width="72.44" height="2.94" rx="0.26"/>
<path fill="#ffc900" d="
  M 175.95 224.63
  L 245.68 222.83
  A 0.31 0.31 0.0 0 1 246.00 223.14
  L 246.01 231.72
  A 0.31 0.31 0.0 0 1 245.71 232.03
  L 180.92 233.61
  A 0.31 0.31 0.0 0 1 180.65 233.45
  L 175.69 225.09
  A 0.31 0.31 0.0 0 1 175.95 224.63
  Z"
/>
<path fill="#ffc900" d="
  M 127.29 246.19
  L 130.17 251.59
  Q 131.02 253.18 132.59 252.31
  L 137.55 249.58
  Q 138.37 249.13 138.82 249.95
  L 141.45 254.71
  A 0.90 0.89 -30.3 0 1 141.13 255.91
  Q 137.67 258.02 133.76 260.26
  Q 130.47 262.14 128.53 258.98
  Q 125.45 253.96 120.60 244.20
  C 118.19 239.34 121.21 238.68 125.09 236.88
  Q 138.53 230.64 151.62 224.67
  Q 154.72 223.25 156.30 226.27
  L 162.92 238.95
  Q 164.56 242.10 161.51 243.90
  L 153.89 248.41
  Q 153.48 248.65 153.24 248.23
  L 150.28 243.02
  A 0.39 0.39 0.0 0 1 150.44 242.48
  L 156.28 239.36
  Q 157.14 238.90 156.68 238.04
  L 153.41 232.05
  Q 153.01 231.32 152.27 231.69
  L 128.07 243.76
  Q 126.43 244.57 127.29 246.19
  Z"
/>
<path fill="#ffc900" d="
  M 370.91 236.48
  C 377.65 236.06 379.67 243.17 378.73 248.42
  Q 377.46 255.53 370.68 255.32
  Q 364.26 245.94 370.91 236.48
  Z"
/>
<path fill="#ffc900" d="
  M 190.54 244.49
  L 279.61 244.49
  A 1.46 1.46 0.0 0 1 281.07 245.93
  L 281.30 268.66
  A 1.46 1.46 0.0 0 1 279.84 270.14
  L 210.54 270.12
  A 1.46 1.46 0.0 0 1 209.44 269.63
  L 189.45 246.91
  A 1.46 1.46 0.0 0 1 190.54 244.49
  Z"
/>
<path fill="#ffc900" d="
  M 163.81 275.53
  C 163.67 278.28 165.40 279.70 162.62 282.11
  Q 158.31 285.84 153.88 289.42
  Q 150.93 291.80 148.48 288.79
  Q 141.92 280.73 136.21 272.11
  A 0.52 0.51 57.1 0 1 136.36 271.39
  L 169.05 250.13
  Q 169.43 249.89 169.70 250.26
  L 179.42 263.97
  Q 181.46 266.87 178.70 269.09
  Q 174.91 272.15 170.73 275.23
  Q 167.88 277.33 164.83 275.05
  A 0.64 0.64 0.0 0 0 163.81 275.53
  Z
  M 159.94 264.31
  A 1.09 1.09 0.0 0 0 159.79 265.97
  L 164.38 270.56
  A 1.09 1.09 0.0 0 0 165.79 270.66
  L 172.94 265.38
  A 1.09 1.09 0.0 0 0 173.17 263.85
  L 169.57 258.94
  A 1.09 1.09 0.0 0 0 168.07 258.68
  L 159.94 264.31
  Z
  M 159.44 275.70
  A 0.70 0.70 0.0 0 0 159.63 274.82
  L 156.04 267.97
  A 0.70 0.70 0.0 0 0 155.02 267.72
  L 144.95 274.74
  A 0.70 0.70 0.0 0 0 144.79 275.73
  L 149.54 282.31
  A 0.70 0.70 0.0 0 0 150.53 282.46
  L 159.44 275.70
  Z"
/>
<path fill="#000910" d="
  M 159.94 264.31
  L 168.07 258.68
  A 1.09 1.09 0.0 0 1 169.57 258.94
  L 173.17 263.85
  A 1.09 1.09 0.0 0 1 172.94 265.38
  L 165.79 270.66
  A 1.09 1.09 0.0 0 1 164.38 270.56
  L 159.79 265.97
  A 1.09 1.09 0.0 0 1 159.94 264.31
  Z"
/>
<path fill="#000910" d="
  M 159.44 275.70
  L 150.53 282.46
  A 0.70 0.70 0.0 0 1 149.54 282.31
  L 144.79 275.73
  A 0.70 0.70 0.0 0 1 144.95 274.74
  L 155.02 267.72
  A 0.70 0.70 0.0 0 1 156.04 267.97
  L 159.63 274.82
  A 0.70 0.70 0.0 0 1 159.44 275.70
  Z"
/>
<path fill="#ffc900" d="
  M 187.28 318.92
  L 181.19 313.45
  A 0.63 0.63 0.0 0 0 180.38 313.41
  L 174.94 317.44
  A 0.47 0.47 0.0 0 1 174.33 317.40
  L 169.53 312.72
  A 0.41 0.40 51.6 0 1 169.60 312.08
  Q 186.68 301.64 202.94 289.98
  A 0.69 0.69 0.0 0 1 203.80 290.03
  L 208.07 293.96
  A 0.62 0.62 0.0 0 1 208.19 294.72
  Q 198.42 312.25 190.02 330.47
  Q 189.83 330.88 189.48 330.59
  L 184.28 326.38
  Q 183.83 326.02 184.12 325.52
  L 187.42 319.85
  Q 187.73 319.33 187.28 318.92
  Z
  M 185.30 309.77
  A 0.34 0.34 0.0 0 0 185.28 310.30
  L 189.94 314.47
  A 0.34 0.34 0.0 0 0 190.46 314.39
  L 198.73 300.45
  A 0.34 0.34 0.0 0 0 198.23 300.01
  L 185.30 309.77
  Z"
/>
<path fill="#ffc900" d="
  M 280.15 314.47
  L 250.10 300.35
  A 0.78 0.78 0.0 0 1 250.45 298.86
  L 280.50 299.62
  A 0.78 0.78 0.0 0 1 281.26 300.40
  L 281.26 313.76
  A 0.78 0.78 0.0 0 1 280.15 314.47
  Z"
/>
<path fill="#000910" d="
  M 185.30 309.77
  L 198.23 300.01
  A 0.34 0.34 0.0 0 1 198.73 300.45
  L 190.46 314.39
  A 0.34 0.34 0.0 0 1 189.94 314.47
  L 185.28 310.30
  A 0.34 0.34 0.0 0 1 185.30 309.77
  Z"
/>
<path fill="#ffc900" d="
  M 227.08 315.57
  L 208.57 343.85
  A 0.50 0.50 0.0 0 1 207.87 343.99
  L 202.45 340.28
  A 0.50 0.50 0.0 0 1 202.32 339.58
  L 221.65 311.95
  A 0.50 0.50 0.0 0 0 221.53 311.26
  L 216.49 307.57
  A 0.50 0.50 0.0 0 1 216.39 306.86
  L 218.89 303.54
  A 0.50 0.50 0.0 0 1 219.57 303.43
  L 235.74 314.43
  A 0.50 0.50 0.0 0 1 235.88 315.11
  L 233.64 318.68
  A 0.50 0.50 0.0 0 1 232.94 318.83
  L 227.77 315.43
  A 0.50 0.50 0.0 0 0 227.08 315.57
  Z"
/>
<path fill="#ffc900" d="
  M 258.29 363.45
  L 270.30 331.72
  A 0.41 0.41 0.0 0 1 270.82 331.48
  L 276.07 333.38
  A 0.54 0.53 -70.5 0 1 276.39 334.06
  Q 270.61 350.74 264.81 367.50
  Q 263.40 371.56 259.15 369.97
  Q 250.85 366.88 242.70 363.08
  A 3.31 3.31 0.0 0 1 241.10 358.69
  L 256.14 326.29
  A 0.96 0.95 -65.3 0 1 257.40 325.82
  L 261.52 327.67
  A 1.02 1.02 0.0 0 1 262.04 329.00
  L 248.87 359.74
  Q 248.69 360.15 249.10 360.32
  L 257.55 363.78
  A 0.56 0.56 0.0 0 0 258.29 363.45
  Z"
/>
<path fill="#ffc900" d="
  M 290.45 343.42
  L 283.19 371.21
  Q 283.00 371.94 283.74 372.12
  L 292.04 374.08
  Q 292.74 374.24 292.88 373.54
  L 294.26 366.52
  A 0.51 0.51 0.0 0 1 294.85 366.11
  L 301.26 367.31
  A 0.43 0.43 0.0 0 1 301.60 367.80
  Q 300.82 372.52 299.84 377.51
  Q 299.20 380.76 295.24 380.01
  Q 291.48 379.30 278.77 376.06
  Q 274.32 374.92 275.52 370.77
  Q 279.99 355.23 284.55 339.84
  Q 285.52 336.58 288.82 337.38
  L 303.77 341.01
  A 2.89 2.88 11.9 0 1 305.93 344.31
  L 304.24 353.95
  A 0.36 0.36 0.0 0 1 303.81 354.24
  L 297.52 352.97
  Q 297.32 352.93 297.36 352.73
  L 298.90 345.52
  A 0.35 0.35 0.0 0 0 298.64 345.11
  L 290.81 343.20
  Q 290.52 343.13 290.45 343.42
  Z"
/>
<path fill="#ffc900" d="
  M 320.18 366.39
  L 318.37 383.25
  A 0.40 0.40 0.0 0 1 317.93 383.61
  L 310.83 382.71
  A 0.40 0.40 0.0 0 1 310.49 382.26
  L 315.89 343.48
  A 0.40 0.40 0.0 0 1 316.32 343.14
  L 333.79 344.76
  A 0.40 0.40 0.0 0 1 334.15 345.18
  L 333.91 349.57
  A 0.40 0.40 0.0 0 1 333.48 349.95
  L 322.33 349.15
  A 0.40 0.40 0.0 0 0 321.90 349.51
  L 320.79 360.52
  A 0.40 0.40 0.0 0 0 321.16 360.96
  L 331.08 361.65
  A 0.40 0.40 0.0 0 1 331.45 362.07
  L 331.19 366.48
  A 0.40 0.40 0.0 0 1 330.76 366.86
  L 320.61 366.03
  A 0.40 0.40 0.0 0 0 320.18 366.39
  Z"
/>
</svg>
